<?xml version="1.0" standalone="no"?>
<!DOCTYPE svg PUBLIC "-//W3C//DTD SVG 20010904//EN"
 "http://www.w3.org/TR/2001/REC-SVG-20010904/DTD/svg10.dtd">
<svg version="1.0" xmlns="http://www.w3.org/2000/svg"
 width="1028.000000pt" height="934.000000pt" viewBox="0 0 1028.000000 934.000000"
 preserveAspectRatio="xMidYMid meet">
<metadata>
Created by potrace 1.15, written by Peter Selinger 2001-2017
</metadata>
<g transform="translate(0.000000,934.000000) scale(0.100000,-0.100000)"
fill="#000000" stroke="none">
<path d="M7990 8420 c0 -6 -27 -10 -60 -10 -33 0 -60 -4 -60 -10 0 -5 -13 -10
-30 -10 -16 0 -30 -4 -30 -10 0 -6 -27 -10 -60 -10 -33 0 -60 -4 -60 -10 0 -5
-13 -10 -30 -10 -16 0 -30 -4 -30 -10 0 -5 -7 -10 -15 -10 -18 0 -105 -84
-105 -101 0 -6 -13 -24 -30 -39 -16 -15 -30 -34 -30 -42 0 -7 -9 -20 -20 -28
-11 -8 -20 -21 -20 -30 0 -9 -9 -22 -20 -30 -11 -8 -20 -21 -20 -28 0 -8 -13
-27 -30 -42 -16 -15 -30 -33 -30 -40 0 -6 -22 -33 -50 -60 -27 -27 -50 -56
-50 -64 0 -9 -7 -16 -16 -16 -8 0 -33 -18 -54 -40 -21 -22 -45 -40 -52 -40 -7
0 -20 -9 -28 -20 -8 -11 -22 -20 -32 -20 -11 0 -18 -7 -18 -20 0 -13 -7 -20
-20 -20 -11 0 -20 5 -20 10 0 7 -100 9 -290 8 -159 -1 -290 -6 -290 -10 0 -4
-8 -8 -18 -8 -10 0 -24 -9 -32 -20 -8 -11 -21 -20 -30 -20 -9 0 -22 -9 -30
-20 -8 -11 -22 -20 -32 -20 -10 0 -18 -4 -18 -10 0 -5 -9 -10 -20 -10 -11 0
-20 -4 -20 -10 0 -5 -9 -10 -20 -10 -11 0 -20 -4 -20 -10 0 -5 -13 -10 -30
-10 -16 0 -30 -4 -30 -10 0 -5 -9 -10 -20 -10 -12 0 -20 -7 -20 -16 0 -12 7
-14 31 -9 17 4 37 8 43 10 6 1 19 5 29 10 9 4 28 4 41 1 14 -3 27 -2 30 3 3 4
16 6 28 4 31 -6 81 33 75 58 -7 24 63 73 92 64 14 -4 28 1 43 15 22 20 31 21
208 19 158 -3 191 -6 230 -23 56 -24 57 -25 41 -35 -9 -6 3 -16 41 -33 43 -20
58 -33 72 -64 10 -22 25 -53 34 -71 14 -29 14 -33 -1 -57 -22 -32 -21 -36 3
-36 11 0 20 -4 20 -9 0 -5 10 -11 23 -13 35 -5 76 -99 72 -163 -2 -27 -8 -51
-14 -53 -16 -5 -14 -22 3 -22 7 0 19 -6 25 -14 7 -8 27 -17 46 -20 24 -5 43
-18 62 -43 16 -20 39 -47 51 -60 13 -13 21 -30 18 -38 -4 -10 1 -15 14 -15 11
0 20 -3 20 -6 0 -3 -23 -39 -51 -80 -38 -55 -50 -80 -47 -99 3 -14 3 -23 0
-20 -3 3 -14 -2 -24 -12 -19 -17 -26 -93 -8 -93 15 0 12 -40 -6 -93 -11 -32
-21 -47 -34 -47 -16 0 -48 -27 -39 -33 2 -1 13 -7 24 -13 11 -6 21 -24 23 -39
3 -22 -3 -34 -28 -53 -20 -15 -29 -30 -25 -40 3 -8 3 -30 -1 -48 -6 -31 -9
-34 -43 -34 -20 -1 -54 -8 -76 -16 -22 -9 -47 -17 -57 -18 -22 -3 -46 -24 -53
-47 -9 -26 48 -83 75 -76 24 6 38 -34 30 -83 -5 -33 -7 -35 -55 -42 -91 -12
-118 -18 -130 -28 -8 -6 -18 -5 -31 5 -23 17 -38 19 -28 3 5 -8 0 -9 -17 -5
-13 4 -27 7 -31 7 -5 0 -8 7 -8 15 0 8 -7 15 -16 15 -9 0 -23 8 -30 18 -16 20
-18 36 -4 27 15 -9 12 15 -4 31 -17 17 -56 19 -56 2 0 -6 -8 -2 -17 8 -10 11
-31 26 -46 34 -25 12 -29 12 -37 0 -6 -8 -10 -10 -10 -5 0 6 -9 11 -20 12 -11
1 -20 -4 -20 -13 0 -26 -19 -15 -22 14 -2 15 -7 27 -13 27 -28 1 -55 58 -33
71 4 3 6 10 3 15 -4 5 -1 9 4 9 6 0 11 -5 11 -11 0 -6 11 -8 29 -4 23 5 33 1
50 -21 19 -24 21 -25 21 -6 0 11 -8 23 -17 26 -10 4 -13 10 -8 14 13 9 18 35
5 27 -5 -3 -10 -2 -10 3 0 5 -10 14 -22 20 -23 11 -23 11 4 11 14 1 28 7 31
14 3 9 13 8 41 -6 26 -12 37 -14 34 -5 -6 17 -102 51 -106 37 -3 -6 -13 -4
-27 5 -15 10 -26 12 -30 6 -9 -15 -73 -9 -79 7 -3 7 -12 13 -20 13 -15 0 -33
96 -23 124 3 7 1 18 -5 24 -8 8 -8 16 2 27 7 8 9 15 5 15 -4 0 -2 7 5 15 7 9
13 39 14 68 l1 52 67 0 c46 0 72 5 82 15 14 13 7 15 -62 18 -125 4 -132 7
-132 53 0 21 5 39 10 39 17 0 11 71 -7 89 -30 28 -43 59 -43 104 0 54 -13 67
-67 67 -32 0 -51 -6 -70 -24 l-26 -24 52 -52 c56 -56 58 -60 36 -60 -8 0 -15
-4 -15 -10 0 -5 7 -10 15 -10 8 0 15 -9 15 -19 0 -11 6 -22 13 -25 10 -5 10
-7 0 -12 -7 -3 -13 -14 -13 -24 0 -10 -8 -33 -17 -50 l-18 -32 -70 6 c-38 3
-87 8 -109 11 -21 3 -54 1 -73 -6 -29 -9 -36 -8 -46 5 -9 12 -20 14 -48 7 -49
-11 -85 -8 -81 7 3 15 -10 16 -25 1 -13 -13 -33 -4 -33 16 0 8 16 16 39 20 22
4 45 13 52 21 6 8 24 14 40 14 16 0 29 3 29 6 0 18 -34 32 -95 36 -50 5 -72
11 -82 24 -17 23 -12 36 17 51 25 12 38 34 39 66 2 30 -29 19 -35 -13 -8 -37
-15 -38 -31 -3 -15 32 -17 53 -4 53 5 0 12 10 16 23 4 13 8 17 12 10 2 -7 9
-13 14 -13 6 0 3 10 -5 22 -23 32 -20 38 15 34 24 -3 33 1 36 15 6 23 23 15
23 -12 0 -10 5 -28 12 -38 9 -15 9 -25 0 -46 -7 -14 -12 -42 -12 -61 l0 -36
41 33 c28 22 37 35 30 42 -6 6 -11 28 -11 48 0 29 -4 38 -21 42 -23 6 -21 32
2 32 9 0 15 13 17 33 2 17 7 32 12 32 5 0 7 14 3 32 -6 32 -31 68 -46 68 -14
0 -46 43 -47 61 0 9 -9 19 -20 22 -34 9 -25 37 13 37 24 1 28 3 16 10 -14 8
-174 10 -771 11 l-158 0 0 -31 c0 -16 -4 -30 -10 -30 -5 0 -10 12 -10 26 0 14
-7 33 -16 42 -14 14 -17 14 -24 1 -7 -12 -22 -14 -67 -9 -32 3 -97 4 -145 2
l-88 -3 0 -39 c0 -21 5 -42 10 -45 6 -3 10 -26 10 -51 0 -24 5 -44 10 -44 6 0
10 -9 10 -20 0 -40 -25 -15 -44 44 -5 15 -13 17 -41 13 -21 -3 -35 -2 -35 4 0
6 -9 7 -20 4 -11 -4 -20 -2 -20 4 0 6 9 11 20 11 16 0 20 7 20 34 0 39 15 56
23 26 9 -36 37 -13 37 32 0 36 -2 39 -22 32 -13 -4 -58 -6 -101 -5 -44 0 -83
-2 -89 -5 -15 -9 12 -24 45 -24 30 0 36 -17 10 -27 -10 -4 -25 -16 -35 -27
-16 -21 -16 -21 -38 -1 -12 11 -28 32 -36 46 -15 30 -78 49 -97 30 -8 -8 0
-11 26 -11 24 0 37 -5 37 -13 0 -7 16 -30 35 -51 19 -21 35 -42 35 -47 0 -14
-28 -11 -33 4 -2 7 -8 8 -13 3 -5 -5 -4 -11 4 -13 6 -3 12 -12 12 -20 0 -11
-5 -13 -17 -7 -10 4 -31 7 -46 6 -33 -2 -32 18 1 33 26 12 28 21 6 29 -8 3
-12 10 -9 16 12 20 -15 10 -39 -15 -14 -14 -32 -25 -40 -25 -9 0 -21 -9 -28
-20 -25 -40 -76 -18 -151 67 -25 27 -34 44 -26 48 18 12 -11 25 -53 25 -21 0
-38 5 -38 10 0 6 -13 10 -28 10 -16 0 -34 8 -42 20 -8 11 -21 20 -28 20 -8 0
-27 14 -42 30 -15 17 -35 30 -44 30 -9 0 -16 5 -16 10 0 6 -9 10 -20 10 -11 0
-20 5 -20 10 0 6 -7 10 -16 10 -9 0 -29 14 -44 30 -15 17 -34 30 -42 30 -7 0
-20 9 -28 20 -8 11 -22 20 -32 20 -10 0 -18 5 -18 10 0 6 -9 10 -20 10 -11 0
-20 5 -20 10 0 6 -48 10 -125 10 l-126 0 -34 -35 c-19 -19 -35 -41 -35 -50 0
-8 -4 -15 -10 -15 -5 0 -10 -9 -10 -20 0 -11 -2 -20 -6 -20 -3 0 -32 27 -64
60 -32 33 -64 60 -70 60 -7 0 -25 14 -40 30 -15 17 -35 30 -44 30 -9 0 -16 5
-16 10 0 6 -8 10 -18 10 -10 0 -24 9 -32 20 -8 11 -21 20 -28 20 -8 0 -58 45
-113 100 -55 55 -104 100 -110 100 -6 0 -24 13 -39 30 -15 17 -33 30 -40 30
-6 0 -33 23 -60 50 -27 28 -54 50 -60 50 -6 0 -29 18 -50 40 -21 22 -46 40
-54 40 -9 0 -16 5 -16 10 0 6 -13 10 -30 10 -16 0 -30 5 -30 10 0 6 -9 10 -20
10 -11 0 -20 5 -20 10 0 6 -9 10 -20 10 -11 0 -20 5 -20 10 0 6 -9 10 -20 10
-11 0 -20 5 -20 10 0 6 -9 10 -20 10 -11 0 -20 5 -20 10 0 6 -27 10 -60 10
-33 0 -60 4 -60 10 0 6 -18 10 -40 10 -22 0 -40 5 -40 10 0 6 -63 10 -170 10
-107 0 -170 -4 -170 -10 0 -5 -8 -10 -18 -10 -10 0 -24 -9 -32 -20 -8 -11 -22
-20 -32 -20 -10 0 -18 -4 -18 -10 0 -5 -9 -10 -20 -10 -11 0 -20 -4 -20 -10 0
-5 -9 -10 -20 -10 -11 0 -20 -4 -20 -10 0 -5 -9 -10 -20 -10 -11 0 -20 -4 -20
-10 0 -5 -7 -10 -15 -10 -17 0 -125 -104 -125 -120 0 -5 3 -10 6 -10 12 0 64
35 64 43 0 4 11 19 24 32 19 19 32 23 54 19 23 -5 33 -1 45 16 8 12 21 20 29
18 7 -3 17 4 23 15 5 11 19 25 30 31 11 5 33 19 48 29 16 10 31 17 33 14 3 -3
17 1 30 8 18 9 35 10 62 3 20 -5 46 -10 57 -12 11 -2 23 -4 28 -5 4 0 7 -6 7
-12 0 -11 46 -59 56 -59 2 0 4 20 4 46 l0 45 53 -4 c60 -4 97 -21 97 -44 0
-11 3 -13 13 -5 13 11 57 -17 57 -37 0 -6 7 -11 15 -11 13 0 76 -31 100 -50 6
-4 28 -8 51 -7 31 0 47 -7 67 -27 15 -15 24 -33 21 -41 -4 -10 -2 -13 8 -10
16 6 86 -50 76 -61 -4 -4 -1 -16 7 -28 8 -11 15 -38 15 -59 0 -30 -4 -40 -20
-44 -24 -6 -24 -10 -5 -43 19 -33 19 -60 -1 -81 -13 -15 -14 -24 -6 -46 22
-61 35 -113 29 -119 -3 -3 -2 -17 3 -30 13 -33 -13 -58 -52 -50 -35 7 -35 -3
-1 -55 19 -30 26 -51 24 -80 -1 -22 6 -55 15 -74 15 -33 15 -49 0 -123 -1 -7
-7 -17 -13 -23 -8 -8 -5 -23 11 -52 11 -23 24 -43 29 -45 4 -2 7 -10 7 -18 0
-8 4 -14 10 -14 5 0 9 -11 8 -24 -1 -14 3 -35 9 -48 6 -13 16 -43 23 -68 7
-25 21 -57 31 -72 11 -14 19 -32 19 -40 0 -7 14 -22 30 -33 16 -11 30 -26 30
-33 0 -8 9 -16 20 -19 16 -4 19 -11 14 -32 -12 -49 -24 -54 -53 -22 -37 40
-58 45 -64 16 -2 -14 -1 -22 3 -20 13 8 51 -46 45 -64 -5 -17 30 -111 46 -121
4 -3 1 -14 -7 -24 -13 -19 -14 -19 -33 2 -10 12 -25 22 -34 22 -9 0 -17 10
-19 22 -2 13 -11 24 -20 26 -13 3 -17 -4 -16 -30 1 -18 4 -35 7 -38 9 -8 28
-41 53 -92 21 -45 47 -64 48 -35 1 21 99 -94 105 -124 4 -15 15 -31 25 -34 25
-8 70 -89 63 -115 -4 -14 0 -20 12 -20 14 0 15 3 5 15 -9 11 -9 15 -1 15 21 0
53 -21 79 -51 13 -16 29 -29 36 -28 25 3 36 -2 36 -17 0 -9 9 -27 20 -41 11
-14 20 -36 20 -49 0 -18 6 -24 22 -24 20 0 20 -2 -11 -34 -29 -30 -33 -41 -33
-85 1 -36 -4 -53 -15 -60 -21 -11 -10 -61 14 -61 14 0 15 -9 9 -66 -7 -73 -26
-118 -52 -128 -23 -9 -26 -3 -15 27 7 18 7 28 0 33 -6 4 -8 19 -5 36 4 20 1
30 -9 35 -11 4 -13 9 -5 18 17 21 21 55 6 55 -8 0 -16 -13 -19 -29 -5 -25 -10
-29 -39 -27 -23 1 -36 8 -44 24 -17 34 -20 35 -39 6 l-18 -28 43 -36 44 -37
-24 -13 c-18 -10 -25 -10 -28 -1 -6 18 -53 71 -63 71 -12 0 -12 -37 1 -45 14
-8 13 -55 -1 -55 -6 0 -8 -7 -5 -17 4 -9 3 -19 -2 -22 -18 -12 -22 -59 -7 -75
8 -8 15 -22 15 -31 0 -9 7 -29 15 -45 15 -29 12 -105 -5 -115 -15 -9 -42 35
-43 70 -1 25 -5 34 -14 30 -8 -2 -13 1 -11 8 2 14 -28 75 -48 94 -14 15 -30
46 -60 125 -11 27 -24 48 -31 48 -18 0 -8 -99 16 -152 11 -26 21 -54 21 -62 0
-9 6 -16 14 -16 14 0 76 -82 76 -101 0 -5 4 -17 9 -27 35 -69 35 -71 13 -112
-12 -22 -17 -42 -11 -45 5 -4 9 -17 9 -31 0 -35 -35 -32 -51 4 -8 18 -28 35
-51 45 -21 9 -38 24 -38 32 0 8 -4 15 -10 15 -5 0 -10 13 -10 29 0 17 -4 32
-9 35 -5 4 -10 30 -10 59 -1 80 -23 177 -40 177 -5 0 -6 11 -3 25 6 35 -10 31
-27 -7 -11 -24 -11 -33 -3 -36 12 -4 17 -44 6 -55 -10 -9 -54 35 -54 55 0 27
-28 78 -43 78 -7 0 -21 13 -30 30 -10 16 -23 35 -30 42 -16 17 -37 65 -37 86
0 9 -14 44 -30 77 -24 49 -27 62 -17 70 8 6 17 31 20 56 5 38 3 50 -13 64 -11
10 -17 22 -14 26 3 5 -6 14 -20 21 -15 6 -31 26 -38 45 -11 30 -15 33 -40 27
-23 -5 -34 0 -58 26 -17 18 -28 35 -25 40 2 4 -2 16 -10 26 -8 10 -15 27 -15
36 0 10 -8 22 -18 27 -19 10 -42 71 -42 110 0 14 -6 21 -19 21 -13 0 -21 10
-25 34 -4 19 -13 39 -21 46 -9 7 -15 29 -15 51 0 32 4 39 19 39 12 0 21 -9 25
-24 4 -15 15 -26 28 -28 20 -3 22 -9 22 -70 1 -47 5 -68 14 -68 6 0 12 -6 12
-14 0 -8 14 -24 30 -36 22 -15 30 -30 30 -51 0 -16 5 -29 11 -29 6 0 9 -6 6
-12 -5 -16 30 -68 46 -68 7 0 30 -21 52 -46 61 -71 66 -75 84 -69 14 4 21 -4
31 -37 7 -24 17 -47 22 -52 4 -6 8 -20 8 -31 0 -19 27 -55 41 -55 2 0 13 16
24 36 13 25 24 34 37 31 10 -3 18 -4 18 -2 0 2 -16 31 -35 64 -19 32 -35 66
-35 74 0 14 -30 47 -44 47 -19 0 -85 94 -86 122 0 21 24 14 52 -14 10 -10 24
-18 31 -18 6 0 18 -15 26 -32 14 -35 78 -98 97 -98 7 0 15 -7 18 -16 4 -12 13
-14 32 -10 15 4 23 3 20 -3 -3 -5 4 -11 17 -15 22 -5 47 -52 47 -88 0 -9 6
-21 14 -27 8 -7 18 -27 22 -44 6 -30 19 -46 37 -47 10 0 9 34 -3 46 -5 5 -10
25 -12 44 -1 19 -14 54 -30 77 -15 23 -28 45 -28 50 0 12 -61 34 -72 27 -5 -3
-12 3 -15 15 -3 11 -16 27 -29 36 -14 9 -24 25 -24 38 0 25 -30 113 -49 143
-11 17 -12 17 -7 1 10 -30 -4 -67 -25 -67 -12 0 -26 16 -41 48 -17 35 -28 46
-42 44 -10 -2 -23 2 -27 10 -12 18 -11 78 1 78 18 0 10 18 -10 23 -12 3 -20
14 -20 25 0 11 -7 23 -16 26 -9 4 -14 9 -11 13 4 3 2 13 -5 20 -9 11 -9 17 3
23 11 8 9 13 -11 27 -39 28 -52 31 -81 14 -25 -14 -28 -13 -51 10 -14 13 -39
35 -56 48 -17 14 -29 28 -26 32 2 4 -4 10 -14 13 -19 6 -25 16 -59 91 -23 51
-43 75 -64 75 -10 0 -19 5 -21 12 -2 6 -10 8 -16 4 -15 -9 -16 -62 -2 -71 6
-3 10 -17 10 -31 0 -13 5 -24 10 -24 6 0 10 -13 10 -29 0 -44 -36 -30 -52 20
-6 22 -15 39 -20 39 -4 0 -8 6 -8 13 0 6 -11 33 -24 60 -21 43 -22 47 -5 47
10 0 21 9 24 21 8 25 -13 79 -31 79 -15 0 -37 71 -25 83 9 9 61 -12 61 -25 0
-4 7 -8 16 -8 10 0 14 -6 10 -15 -3 -8 -1 -15 4 -15 6 0 10 -6 10 -14 0 -8 13
-27 28 -43 16 -15 31 -36 35 -45 7 -19 26 -23 42 -10 6 4 7 3 3 -2 -13 -16 -9
-36 7 -36 8 0 15 1 15 3 12 80 14 75 -22 79 -25 2 -33 8 -33 23 0 11 -6 19
-13 17 -9 -2 -12 4 -7 17 3 11 1 22 -5 26 -5 3 -10 10 -10 16 0 14 26 11 40
-5 6 -8 21 -16 33 -18 17 -2 22 -10 22 -33 0 -31 11 -35 47 -20 12 5 18 3 18
-7 0 -18 47 -64 56 -55 4 4 2 12 -3 19 -9 12 -36 92 -37 111 -1 5 -9 14 -19
21 -19 14 -23 41 -7 51 9 6 3 14 -52 77 -21 24 -25 35 -18 49 11 20 2 79 -12
79 -5 0 -9 15 -8 33 3 51 1 57 -19 57 -11 0 -22 4 -26 10 -3 5 -12 7 -19 4
-15 -6 -20 -70 -6 -79 19 -12 11 -45 -10 -45 -11 0 -20 -3 -20 -6 0 -14 42
-74 52 -74 7 0 7 -34 -2 -77 0 -1 -9 -1 -20 0 -30 2 -92 60 -95 89 -2 14 -6
35 -10 47 -5 18 -2 21 24 21 16 0 33 5 36 10 3 6 -1 10 -9 10 -12 0 -14 5 -6
26 13 33 13 34 -5 34 -18 0 -48 63 -47 100 0 16 6 38 12 50 10 19 5 27 -46 76
-31 30 -59 52 -62 50 -9 -9 -57 35 -62 57 -9 34 -37 34 -38 0 0 -82 0 -81 -21
-47 -11 18 -29 39 -41 47 -14 10 -20 22 -17 31 4 10 1 16 -8 16 -8 0 -15 9
-15 19 0 11 -3 26 -6 35 -10 25 19 19 46 -9 13 -14 35 -25 49 -25 29 -1 61
-21 61 -39 0 -7 5 -9 11 -5 8 4 8 9 0 17 -20 20 -11 30 24 24 33 -5 35 -4 35
24 0 31 11 37 29 15 16 -19 61 -27 67 -11 3 7 -9 26 -25 43 -17 17 -31 40 -31
51 0 16 -6 21 -24 21 -16 0 -27 7 -31 19 -3 12 -12 18 -20 15 -9 -4 -12 0 -8
14 3 14 -1 21 -16 25 -14 3 -21 13 -21 29 0 18 -2 20 -10 8 -8 -12 -10 -11
-10 8 0 12 -4 22 -8 22 -5 0 -14 11 -20 25 -6 13 -23 27 -37 31 -14 3 -25 13
-25 21 0 8 -4 12 -9 9 -5 -3 -23 1 -40 10 -18 9 -39 17 -48 18 -9 2 -21 10
-28 19 -11 15 -13 15 -36 0 -13 -9 -26 -19 -29 -22 -11 -12 -50 -31 -65 -31
-8 0 -15 -4 -15 -10 0 -5 -22 -10 -50 -10 -27 0 -50 -4 -50 -10 0 -5 -9 -10
-20 -10 -11 0 -20 -4 -20 -10 0 -5 -9 -10 -20 -10 -11 0 -20 -4 -20 -10 0 -5
-9 -10 -20 -10 -11 0 -20 -4 -20 -10 0 -5 -13 -10 -30 -10 -16 0 -30 -4 -30
-10 0 -5 -9 -10 -20 -10 -11 0 -20 -4 -20 -10 0 -6 -27 -10 -60 -10 -33 0 -60
-4 -60 -10 0 -5 -6 -10 -13 -10 -25 0 -87 -67 -87 -94 0 -14 -4 -26 -10 -26
-5 0 -10 -7 -10 -17 0 -9 -27 -42 -60 -75 -48 -46 -60 -64 -60 -89 0 -23 -12
-42 -50 -79 -48 -47 -50 -51 -50 -104 0 -31 -4 -56 -10 -56 -5 0 -10 -13 -10
-30 0 -16 -4 -30 -10 -30 -5 0 -10 -9 -10 -20 0 -11 -4 -20 -10 -20 -6 0 -10
-60 -10 -160 0 -100 4 -160 10 -160 6 0 10 -9 10 -20 0 -11 5 -20 10 -20 6 0
10 -9 10 -20 0 -11 5 -20 10 -20 6 0 10 -7 10 -16 0 -23 25 -44 54 -44 14 0
26 -4 26 -10 0 -5 9 -10 20 -10 17 0 20 -7 20 -50 0 -27 5 -50 10 -50 6 0 10
-9 10 -20 0 -11 5 -20 10 -20 6 0 10 -18 10 -40 0 -22 5 -40 10 -40 6 0 10
-27 10 -60 0 -33 4 -60 10 -60 6 0 10 -16 10 -35 0 -30 10 -45 75 -110 42 -41
81 -75 88 -75 7 0 19 -9 27 -20 8 -11 22 -20 32 -20 10 0 18 -4 18 -10 0 -5 9
-10 20 -10 11 0 20 -4 20 -10 0 -5 9 -10 20 -10 11 0 20 -4 20 -10 0 -5 7 -10
15 -10 19 0 185 -164 185 -183 0 -7 9 -19 20 -27 11 -8 20 -22 20 -32 0 -10 5
-18 10 -18 6 0 10 -18 10 -40 0 -22 5 -40 10 -40 6 0 10 -13 10 -30 0 -16 5
-30 10 -30 6 0 10 -8 10 -18 0 -10 9 -24 20 -32 11 -8 20 -22 20 -32 0 -10 5
-18 10 -18 6 0 10 -9 10 -20 0 -11 5 -20 10 -20 6 0 10 -8 10 -18 0 -9 9 -23
20 -30 15 -9 20 -23 20 -52 0 -22 5 -40 10 -40 6 0 10 -63 10 -170 0 -107 4
-170 10 -170 6 0 10 -18 10 -40 0 -22 5 -40 10 -40 6 0 10 -9 10 -20 0 -11 5
-20 10 -20 6 0 10 -9 10 -20 0 -11 5 -20 10 -20 6 0 10 -13 10 -30 0 -16 5
-30 10 -30 6 0 10 -18 10 -40 0 -22 5 -40 10 -40 6 0 10 -13 10 -30 0 -16 5
-30 10 -30 6 0 10 -9 10 -20 0 -11 5 -20 10 -20 6 0 10 -13 10 -30 0 -16 5
-30 10 -30 6 0 10 -12 10 -28 0 -17 8 -32 21 -40 14 -9 18 -19 14 -32 -4 -14
-2 -20 9 -20 9 0 16 -4 16 -10 0 -5 -9 -10 -20 -10 -11 0 -20 -4 -20 -10 0 -5
-7 -10 -15 -10 -29 0 -65 -47 -65 -85 0 -32 2 -35 30 -35 17 0 30 -4 30 -10 0
-5 9 -10 20 -10 11 0 20 5 20 10 0 17 70 11 88 -7 12 -12 13 -18 4 -21 -6 -2
-12 -12 -12 -23 0 -10 -4 -19 -10 -19 -5 0 -10 -13 -10 -28 0 -16 -8 -34 -20
-42 -11 -8 -20 -21 -20 -30 0 -9 -9 -22 -20 -30 -26 -18 -26 -30 0 -30 16 0
20 -7 20 -30 0 -27 3 -30 30 -30 17 0 30 5 30 10 0 6 18 10 40 10 22 0 40 -4
40 -10 0 -5 8 -10 18 -10 10 0 24 -9 32 -20 8 -12 26 -20 42 -20 15 0 28 -4
28 -10 0 -5 7 -10 16 -10 15 0 44 -23 44 -34 0 -3 -6 -6 -13 -6 -20 0 -47 -33
-47 -58 0 -15 6 -22 20 -22 11 0 20 -4 20 -10 0 -5 7 -10 15 -10 11 0 13 -8 8
-31 -5 -25 -3 -31 8 -27 9 3 13 16 11 36 -2 18 0 32 5 33 137 8 238 7 250 -2
7 -7 39 -11 72 -10 46 1 61 -3 76 -19 10 -11 28 -20 40 -20 12 0 30 -9 40 -20
20 -22 98 -29 110 -10 8 13 565 12 565 -1 0 -5 -13 -9 -30 -9 -16 0 -30 -2
-30 -5 0 -2 12 -16 27 -31 24 -24 25 -28 10 -39 -20 -15 -22 -25 -4 -25 15 0
42 29 43 48 1 6 2 17 3 22 0 6 15 10 31 10 28 0 30 -3 30 -37 0 -78 5 -83 76
-83 49 0 64 -3 64 -14 0 -8 3 -21 6 -29 3 -9 -3 -17 -18 -22 -21 -6 -201 -15
-327 -15 -46 0 -52 -2 -41 -15 10 -13 44 -15 204 -14 240 2 265 1 247 -10 -11
-7 -7 -12 16 -24 22 -12 33 -13 41 -5 8 8 15 8 24 1 7 -6 24 -13 38 -16 25 -4
25 -4 3 -12 -13 -4 -23 -11 -23 -15 0 -10 40 -25 54 -22 4 2 14 -2 20 -8 7 -5
16 -7 19 -4 11 11 56 -24 72 -56 9 -17 22 -30 30 -30 8 0 15 -5 15 -11 0 -5 5
-7 11 -3 8 4 8 9 0 17 -6 6 -11 19 -11 29 0 10 -4 18 -10 18 -5 0 -10 5 -10
10 0 6 9 10 20 10 11 0 20 5 20 10 0 6 14 10 30 10 17 0 30 5 30 10 0 6 13 10
29 10 16 0 31 6 34 13 2 6 8 9 12 5 5 -5 -2 -17 -14 -28 -21 -17 -22 -21 -8
-35 12 -12 39 -15 121 -15 64 0 106 -4 106 -10 0 -6 -30 -10 -70 -10 -40 0
-70 -4 -70 -10 0 -5 9 -10 19 -10 11 0 23 -5 26 -11 4 -6 29 -9 55 -8 48 3 80
-14 80 -41 0 -20 -28 -40 -54 -40 -14 0 -26 -4 -26 -10 0 -5 12 -10 26 -10 29
0 54 -21 54 -44 0 -9 5 -16 10 -16 6 0 10 -9 10 -20 0 -11 5 -20 10 -20 6 0
10 -13 10 -30 0 -36 -27 -41 -50 -10 -8 11 -22 20 -32 20 -10 0 -18 5 -18 10
0 6 -9 10 -20 10 -11 0 -20 5 -20 10 0 6 9 10 20 10 11 0 20 5 20 10 0 6 -8
10 -18 10 -10 0 -24 9 -32 20 -8 12 -26 20 -42 20 -15 0 -28 5 -28 10 0 6 -22
10 -50 10 -27 0 -50 5 -50 10 0 6 -9 10 -19 10 -14 0 -20 -9 -24 -37 -6 -49
-1 -56 34 -49 24 5 29 2 29 -14 0 -12 -7 -20 -17 -21 -134 -9 -150 -15 -172
-65 -12 -27 -26 -44 -37 -44 -24 0 1 -28 29 -32 12 -2 22 -9 22 -17 0 -8 6
-16 13 -19 7 -2 12 6 12 22 0 29 11 39 34 30 10 -4 16 -18 16 -41 0 -33 -2
-34 -32 -33 -18 1 -44 1 -58 1 -23 -2 -24 -3 -7 -15 9 -7 17 -25 17 -40 0 -14
5 -26 10 -26 6 0 10 -5 10 -10 0 -13 -149 -10 -167 3 -16 12 5 47 28 47 9 0
22 7 29 16 11 13 10 16 -8 21 -23 6 -28 18 -13 27 5 3 9 22 8 41 -1 27 -5 35
-19 35 -10 0 -18 -4 -18 -10 0 -17 -26 -11 -45 10 -21 23 -50 27 -42 6 4 -9
-2 -17 -14 -21 -10 -4 -19 -10 -19 -15 0 -13 52 -22 63 -11 11 11 38 3 49 -13
13 -19 9 -46 -7 -46 -8 0 -15 5 -15 12 0 9 -3 9 -12 0 -17 -17 -159 -16 -184
2 -10 8 -15 18 -11 22 4 5 12 2 16 -5 6 -10 10 -10 16 -1 4 6 4 14 0 18 -5 6
-170 21 -252 23 -17 1 -23 7 -23 25 0 15 -6 24 -15 24 -8 0 -15 5 -15 10 0 6
-6 10 -14 10 -8 0 -24 14 -36 30 -12 17 -28 30 -36 30 -8 0 -14 8 -14 19 0 24
49 45 90 39 17 -3 33 -1 36 4 8 12 -48 57 -73 58 -55 0 -154 81 -123 100 10 6
9 13 -6 34 -11 14 -22 26 -26 26 -5 0 -8 6 -8 13 0 7 -18 29 -40 47 -35 30
-40 39 -40 76 0 24 -5 46 -12 50 -7 5 -4 10 11 16 24 8 20 28 -5 28 -8 0 -12
-4 -9 -10 10 -16 -22 -12 -39 5 -17 17 -46 20 -46 5 0 -5 7 -10 15 -10 9 0 27
-11 40 -25 19 -18 25 -35 25 -70 0 -26 5 -45 11 -45 6 0 9 -9 6 -20 -3 -12 4
-28 20 -44 25 -26 63 -92 63 -111 0 -15 50 -114 61 -120 4 -3 6 -18 3 -33 -4
-22 2 -34 35 -66 21 -21 37 -44 35 -51 -3 -7 2 -15 10 -18 9 -4 16 -13 16 -21
0 -20 -27 -27 -44 -11 -11 11 -21 12 -44 4 -16 -5 -33 -9 -38 -8 -9 3 -86 -9
-116 -17 -22 -6 -24 -24 -3 -24 9 0 27 -7 40 -16 14 -9 32 -13 41 -10 9 3 20
3 26 0 12 -8 -37 -34 -64 -34 -11 0 -27 -9 -36 -20 -18 -22 -67 -36 -76 -21
-11 18 -44 -1 -49 -29 -7 -30 -34 -41 -114 -44 -24 0 -43 -4 -43 -8 0 -5 -9
-8 -19 -8 -11 0 -22 -4 -26 -10 -3 -5 -12 -7 -20 -3 -19 7 -21 -53 -2 -61 6
-3 3 -5 -8 -3 -13 1 -23 13 -30 35 -5 17 -14 32 -20 32 -16 0 -47 57 -35 65
20 13 10 26 -11 14 -18 -9 -24 -8 -32 7 -6 10 -21 29 -35 43 -27 26 -61 101
-63 134 -1 13 -5 6 -12 -18 -7 -28 -7 -40 2 -43 6 -2 11 -11 11 -20 0 -10 9
-23 20 -30 11 -7 20 -21 20 -32 0 -11 5 -20 10 -20 6 0 10 -9 10 -20 0 -13 7
-20 20 -20 12 0 20 -7 20 -16 0 -9 10 -25 21 -35 18 -15 20 -21 9 -34 -11 -13
-63 -15 -371 -15 -233 0 -359 -4 -359 -10 0 -6 37 -10 90 -10 75 0 90 -3 90
-16 0 -27 27 -44 70 -44 23 0 48 -6 56 -14 18 -19 18 -26 -2 -26 -22 0 -53
-32 -36 -38 19 -6 14 -22 -8 -22 -11 0 -20 -4 -20 -10 0 -5 23 -10 50 -10 46
0 67 -13 38 -22 -27 -9 18 -34 62 -35 24 0 46 -6 48 -12 2 -7 31 -11 73 -11
38 0 69 -4 69 -8 0 -4 21 -14 46 -21 39 -12 48 -12 56 0 7 11 11 11 15 2 2 -8
22 -13 44 -13 32 0 39 -3 39 -20 0 -11 5 -20 10 -20 6 0 10 -11 10 -25 0 -15
7 -28 18 -32 39 -15 59 -63 26 -63 -22 0 -53 -32 -36 -38 19 -6 14 -22 -8 -22
-11 0 -20 -4 -20 -10 0 -5 5 -10 10 -10 6 0 10 -9 10 -20 0 -17 7 -20 50 -20
49 0 50 -1 50 -30 0 -16 5 -30 10 -30 6 0 10 -4 10 -10 0 -6 -32 -10 -76 -10
-56 0 -80 -4 -91 -16 -14 -13 -14 -17 -2 -25 12 -8 12 -10 -1 -19 -13 -9 -13
-11 0 -19 12 -8 11 -13 -8 -29 -22 -20 -30 -52 -12 -52 6 0 10 -9 10 -20 0
-13 -7 -20 -20 -20 -11 0 -20 -4 -20 -10 0 -5 9 -10 20 -10 11 0 20 -4 20 -10
0 -5 -4 -10 -10 -10 -5 0 -10 -4 -10 -10 0 -5 7 -10 16 -10 22 0 53 -32 36
-38 -6 -2 -12 -12 -12 -23 0 -10 -4 -19 -10 -19 -5 0 -10 -4 -10 -10 0 -6 57
-10 150 -10 93 0 150 -4 150 -10 0 -5 -4 -10 -10 -10 -5 0 -10 -13 -10 -30 0
-21 5 -30 16 -30 20 0 44 -24 44 -44 0 -9 4 -16 9 -16 5 0 11 -9 14 -20 3 -14
14 -20 31 -20 19 0 26 -5 26 -20 0 -11 5 -20 10 -20 6 0 10 -9 10 -20 0 -11 5
-20 10 -20 6 0 10 -7 10 -16 0 -24 30 -43 68 -44 17 0 32 -4 32 -10 0 -5 -4
-10 -10 -10 -5 0 -10 -4 -10 -10 0 -5 9 -10 20 -10 11 0 20 -4 20 -10 0 -5 14
-10 30 -10 17 0 30 -4 30 -10 0 -5 7 -10 16 -10 18 0 44 -23 44 -40 0 -16 26
-40 42 -40 8 0 20 -9 28 -20 8 -11 22 -20 32 -20 10 0 18 -4 18 -10 0 -5 9
-10 20 -10 11 0 20 -4 20 -10 0 -6 30 -10 70 -10 40 0 70 -4 70 -10 0 -6 43
-10 110 -10 67 0 110 -4 110 -10 0 -6 33 -10 80 -10 47 0 80 4 80 10 0 6 43
10 110 10 67 0 110 4 110 10 0 6 73 10 198 10 186 0 198 1 212 20 8 12 26 20
42 20 21 0 28 -5 28 -20 0 -17 7 -20 40 -20 22 0 40 -4 40 -10 0 -13 67 -13
75 0 10 16 25 12 25 -6 0 -9 10 -25 23 -36 l22 -20 -22 -18 c-28 -22 -29 -30
-3 -30 12 0 20 -7 20 -16 0 -9 9 -18 20 -21 11 -3 20 -9 20 -14 0 -5 9 -9 20
-9 11 0 20 -4 20 -10 0 -6 30 -10 70 -10 40 0 70 -4 70 -10 0 -5 9 -10 20 -10
11 0 20 -4 20 -10 0 -5 7 -10 16 -10 20 0 44 -24 44 -44 0 -14 38 -16 350 -16
227 0 350 4 350 10 0 6 14 10 30 10 17 0 30 5 30 10 0 6 21 10 46 10 28 0 51
6 61 15 14 14 13 18 -6 34 -12 10 -21 21 -21 25 0 3 23 6 51 6 43 0 50 3 47
18 -2 12 -14 17 -38 18 -88 3 -100 5 -100 14 0 6 20 10 44 10 25 0 48 5 51 10
3 6 24 10 46 10 28 0 39 4 39 15 0 11 7 14 23 10 15 -4 28 -1 37 10 9 11 22
14 40 10 17 -4 31 -1 39 9 8 10 23 13 47 9 22 -4 34 -2 34 6 0 6 14 11 30 11
23 0 30 4 30 20 0 11 5 20 10 20 6 0 10 -4 10 -10 0 -5 9 -10 19 -10 11 0 22
-6 25 -12 5 -10 7 -10 12 0 3 6 23 12 45 12 21 0 39 5 39 11 0 6 9 8 20 4 14
-5 20 -2 20 9 0 19 36 22 44 4 5 -10 7 -10 12 0 3 6 19 12 35 12 16 0 29 5 29
10 0 6 -22 10 -50 10 -27 0 -50 5 -50 10 0 6 9 10 20 10 11 0 20 5 20 10 0 6
9 10 20 10 22 0 27 15 8 24 -10 5 -10 7 0 12 19 9 14 24 -8 24 -11 0 -20 5
-20 10 0 6 -33 10 -78 10 -66 0 -80 3 -92 20 -10 14 -26 20 -52 20 -21 0 -38
5 -38 10 0 6 -47 10 -120 10 -109 0 -121 2 -132 20 -7 11 -23 20 -35 20 -16 0
-21 4 -17 15 7 17 -18 45 -40 45 -9 0 -16 8 -16 20 0 17 7 20 49 20 30 0 51 5
54 13 4 9 8 8 17 -3 9 -11 13 -12 17 -2 3 7 23 12 52 12 35 0 50 5 61 20 10
13 26 20 49 20 22 0 40 7 53 22 15 17 28 21 63 19 26 -1 45 2 45 9 0 6 33 10
86 10 l86 0 149 -150 c81 -83 153 -150 160 -150 6 0 24 -13 39 -30 15 -16 33
-30 40 -30 15 0 40 -25 40 -40 0 -17 26 -40 44 -40 9 0 16 -4 16 -10 0 -5 9
-10 20 -10 11 0 20 -4 20 -10 0 -5 9 -10 20 -10 11 0 20 -4 20 -10 0 -5 14
-10 30 -10 17 0 30 -4 30 -10 0 -5 23 -10 50 -10 28 0 50 -4 50 -10 0 -5 9
-10 20 -10 11 0 20 -4 20 -10 0 -5 9 -10 20 -10 11 0 20 -4 20 -10 0 -5 23
-10 50 -10 28 0 50 5 50 10 0 6 9 10 20 10 11 0 20 5 20 10 0 6 9 10 20 10 11
0 20 5 20 10 0 6 7 10 16 10 9 0 29 14 44 30 15 17 33 30 39 30 6 0 54 43 106
95 70 69 95 101 95 120 0 14 5 25 10 25 6 0 10 9 10 20 0 11 5 20 10 20 6 0
10 7 10 15 0 8 47 62 105 120 l105 105 225 0 c218 0 225 1 225 20 0 11 -4 20
-10 20 -5 0 -10 9 -10 20 0 13 7 20 20 20 11 0 20 5 20 10 0 6 -18 10 -40 10
-22 0 -40 5 -40 10 0 6 5 10 10 10 6 0 10 25 10 56 0 45 -4 60 -21 75 l-22 19
32 29 c39 36 39 41 1 41 -16 0 -30 5 -30 10 0 6 -37 10 -90 10 -53 0 -90 4
-90 10 0 6 43 10 110 10 61 0 110 3 110 6 0 11 -29 34 -44 34 -13 0 -16 12
-16 60 0 33 -4 60 -10 60 -5 0 -10 9 -10 20 0 13 -7 20 -20 20 -17 0 -20 7
-20 50 0 28 -4 50 -10 50 -15 0 -12 57 3 64 10 5 10 7 0 12 -15 7 -17 44 -3
44 6 0 10 9 10 20 0 13 -7 20 -20 20 -11 0 -20 7 -20 15 0 18 43 65 59 65 6 0
31 20 56 45 36 36 45 53 45 80 0 18 5 37 10 40 6 3 10 22 10 41 0 19 5 34 10
34 6 0 10 13 10 29 0 17 5 33 10 36 6 3 10 27 10 52 0 36 3 44 15 39 9 -3 18
1 21 9 4 8 14 15 24 15 11 0 21 4 25 9 3 6 106 10 248 10 153 1 243 5 245 11
2 6 45 10 103 10 59 0 99 4 99 10 0 6 -4 10 -10 10 -5 0 -10 5 -10 10 0 6 14
10 30 10 17 0 30 5 30 10 0 6 14 10 30 10 17 0 30 5 30 10 0 6 14 10 30 10 23
0 30 4 30 20 0 20 19 25 78 20 18 -1 23 3 20 17 -3 19 -30 20 -430 22 -91 1
-108 3 -108 17 0 18 -23 44 -40 44 -6 0 -18 7 -27 15 -21 21 0 45 38 45 16 0
29 5 29 10 0 6 14 10 30 10 17 0 30 5 30 10 0 6 23 10 50 10 28 0 50 5 50 10
0 6 -27 10 -60 10 -53 0 -60 2 -60 20 0 22 15 27 24 8 5 -10 7 -10 12 0 3 6
14 12 25 12 10 0 19 5 19 10 0 6 -60 10 -160 10 -100 0 -160 4 -160 10 0 6 57
10 150 10 93 0 150 4 150 10 0 6 23 10 50 10 28 0 50 3 50 6 0 14 -32 35 -45
30 -9 -3 -32 12 -60 39 -29 30 -53 45 -70 45 -14 0 -25 5 -25 10 0 6 18 10 40
10 22 0 40 5 40 10 0 6 -4 10 -10 10 -5 0 -10 5 -10 10 0 6 7 10 15 10 8 0 15
3 15 8 -1 21 -21 29 -80 30 -36 1 -66 6 -68 11 -2 6 -11 11 -20 11 -10 0 -23
14 -30 30 l-14 30 -129 0 c-79 0 -129 4 -129 10 0 6 5 10 10 10 6 0 10 8 10
19 0 10 9 21 20 24 15 4 20 14 20 41 0 20 5 36 10 36 6 0 10 14 10 30 0 17 5
30 10 30 6 0 10 14 10 30 0 17 5 30 10 30 6 0 10 12 10 26 0 53 8 54 280 54
283 0 280 -1 280 72 0 32 -5 47 -20 58 -14 10 -20 26 -20 52 0 21 -4 38 -10
38 -5 0 -10 14 -10 30 0 17 -4 30 -10 30 -5 0 -10 18 -10 40 0 22 -4 40 -10
40 -5 0 -10 9 -10 20 0 13 -7 20 -20 20 -11 0 -20 5 -20 10 0 6 9 10 20 10 18
0 20 7 20 70 0 40 4 70 10 70 6 0 10 9 10 20 0 11 5 20 10 20 6 0 10 9 10 20
0 11 5 20 10 20 6 0 10 9 10 20 0 11 5 20 10 20 6 0 10 14 10 30 0 17 5 30 10
30 6 0 10 14 10 30 0 17 5 30 10 30 6 0 10 60 10 160 0 100 4 160 10 160 6 0
10 14 10 30 0 17 5 30 10 30 6 0 10 18 10 40 0 22 5 40 10 40 6 0 10 14 10 30
0 17 5 30 10 30 6 0 10 14 10 30 0 17 5 30 10 30 6 0 10 9 10 20 0 11 5 20 10
20 6 0 10 7 10 16 0 9 14 29 30 44 18 17 30 38 30 54 0 14 5 26 10 26 6 0 10
9 10 20 0 11 5 20 10 20 6 0 10 9 10 20 0 11 9 25 20 32 11 7 20 23 20 36 0
12 8 26 18 29 9 4 43 33 74 65 31 32 63 58 70 58 8 0 20 9 28 20 8 11 21 20
30 20 9 0 22 9 30 20 8 11 22 20 32 20 10 0 18 5 18 10 0 6 9 10 20 10 11 0
20 5 20 10 0 6 9 10 20 10 11 0 20 5 20 10 0 6 8 10 18 10 10 0 24 9 32 20 8
11 20 20 27 20 16 0 103 85 103 101 0 6 18 28 40 49 22 21 40 45 40 52 0 7 9
20 20 28 11 8 20 20 20 28 0 18 66 82 85 82 8 0 15 5 15 10 0 6 7 10 15 10 19
0 145 124 145 143 0 7 9 19 20 27 12 8 20 26 20 42 0 15 5 28 10 28 6 0 10 13
10 28 0 16 8 34 20 42 12 8 20 26 20 42 0 15 5 28 10 28 6 0 10 9 10 20 0 11
5 20 10 20 6 0 10 14 10 30 0 17 -4 30 -10 30 -6 0 -10 27 -10 60 0 33 -4 60
-10 60 -5 0 -10 14 -10 30 0 17 -4 30 -10 30 -5 0 -10 8 -10 18 0 10 -9 24
-20 32 -11 8 -20 22 -20 32 0 10 -4 18 -10 18 -5 0 -10 7 -10 16 0 9 -13 29
-30 44 -16 15 -30 33 -30 40 0 7 -13 25 -30 40 -16 15 -30 34 -30 42 0 7 -9
20 -20 28 -11 8 -20 21 -20 30 0 9 -9 22 -20 30 -11 8 -20 20 -20 27 0 25 -88
103 -115 103 -14 0 -25 5 -25 10 0 6 -9 10 -20 10 -11 0 -20 5 -20 10 0 6 -13
10 -30 10 -16 0 -30 5 -30 10 0 6 -9 10 -20 10 -11 0 -20 5 -20 10 0 6 -13 10
-28 10 -16 0 -34 8 -42 20 -8 11 -21 20 -30 20 -9 0 -22 9 -30 20 -8 12 -26
20 -42 20 -15 0 -28 5 -28 10 0 6 -18 10 -40 10 -22 0 -40 5 -40 10 0 6 -9 10
-20 10 -11 0 -20 5 -20 10 0 6 -9 10 -20 10 -11 0 -20 5 -20 10 0 6 -9 10 -20
10 -11 0 -20 5 -20 10 0 6 -9 10 -20 10 -11 0 -20 5 -20 10 0 6 -37 10 -90 10
-53 0 -90 4 -90 10 0 6 -13 10 -28 10 -16 0 -34 8 -42 20 -8 11 -22 20 -32 20
-10 0 -18 5 -18 10 0 6 -9 10 -20 10 -11 0 -20 5 -20 10 0 6 -8 10 -18 10 -10
0 -24 9 -32 20 -8 11 -22 20 -32 20 -10 0 -18 5 -18 10 0 6 -7 10 -16 10 -9 0
-29 14 -45 31 -23 24 -34 30 -54 25 -18 -5 -25 -2 -25 9 0 8 -8 15 -18 15 -10
0 -24 9 -32 20 -8 11 -22 20 -32 20 -11 0 -18 7 -18 20 0 13 -7 20 -20 20 -11
0 -20 7 -20 15 0 20 -105 125 -125 125 -8 0 -15 5 -15 11 0 7 -21 10 -60 7
-41 -2 -61 1 -65 10 -2 6 -16 12 -30 12 -14 0 -25 5 -25 10 0 6 -18 10 -39 10
-22 0 -42 6 -45 13 -5 10 -7 10 -12 0 -7 -15 -84 -18 -84 -3 0 6 -4 10 -10 10
-5 0 -10 -4 -10 -10z m25 -51 c3 -4 16 -4 29 1 13 5 26 7 28 4 3 -2 25 -4 49
-5 24 0 58 -5 74 -10 17 -5 60 -13 97 -18 65 -9 70 -12 130 -73 35 -35 83 -80
108 -101 38 -31 43 -39 34 -54 -7 -10 -19 -17 -29 -15 -10 2 -14 -1 -10 -7 3
-6 17 -8 30 -5 12 3 26 1 29 -5 5 -7 15 -5 32 5 22 15 26 15 42 2 9 -8 46 -30
81 -49 35 -18 66 -41 69 -51 2 -10 8 -18 12 -18 5 0 7 -8 6 -17 -4 -23 -34
-29 -42 -9 -8 20 -44 20 -90 1 -34 -14 -36 -14 -41 5 -6 24 0 23 -65 5 -29 -8
-64 -17 -78 -21 -21 -6 -23 -4 -12 7 17 19 15 24 -12 27 -19 1 -25 -5 -31 -31
-12 -54 -11 -87 3 -87 6 0 12 5 12 11 0 8 4 8 14 0 10 -8 16 -9 21 -1 11 18
35 11 35 -10 0 -11 4 -20 10 -20 16 0 60 23 60 32 0 4 16 8 36 8 38 0 78 16
70 29 -3 4 5 18 17 30 21 19 25 19 43 7 16 -13 17 -17 5 -28 -12 -11 -13 -10
-8 5 4 11 1 17 -8 17 -28 0 -15 -30 15 -37 17 -3 41 -19 54 -36 23 -28 25 -29
41 -14 22 23 58 31 100 23 32 -6 34 -9 20 -22 -32 -32 -39 -56 -20 -70 15 -12
15 -14 -5 -34 -11 -11 -25 -18 -30 -15 -6 4 -13 0 -16 -8 -3 -8 -15 -18 -27
-21 -22 -6 -22 -6 3 -21 14 -7 35 -11 48 -8 26 6 29 -9 10 -50 -9 -19 -21 -27
-38 -27 -19 0 -21 -3 -11 -9 13 -8 13 -12 0 -27 -13 -16 -12 -17 16 -10 34 8
65 40 65 67 0 10 9 34 20 54 11 20 20 40 20 46 0 13 52 58 68 59 7 0 15 7 18
14 3 8 22 27 41 42 51 39 92 35 143 -15 45 -44 49 -52 20 -46 -13 3 -26 -5
-37 -21 -9 -14 -27 -30 -41 -35 -14 -6 -22 -15 -19 -23 4 -10 0 -12 -14 -9
-10 3 -19 1 -19 -5 0 -6 -10 -22 -22 -36 -13 -13 -37 -40 -55 -60 -17 -19 -34
-32 -37 -29 -3 4 -6 1 -6 -5 0 -6 -7 -18 -16 -27 -15 -14 -19 -14 -39 -1 -21
14 -24 14 -29 0 -3 -9 -6 -24 -6 -35 0 -15 -5 -18 -22 -14 -21 5 -25 0 -39
-50 -9 -30 -13 -58 -8 -61 15 -9 10 -26 -6 -20 -8 3 -15 1 -15 -3 0 -5 6 -11
13 -14 6 -2 -3 -9 -22 -14 -38 -10 -54 -33 -23 -33 11 0 22 -7 26 -15 4 -10
-1 -15 -14 -15 -11 0 -20 -5 -20 -11 0 -6 -7 -17 -16 -26 -14 -14 -16 -14 -29
3 -12 16 -16 17 -24 5 -6 -9 -8 -5 -8 17 1 17 4 30 7 29 3 -1 5 2 5 8 0 14
-24 7 -47 -15 -11 -10 -25 -17 -32 -16 -6 2 -8 1 -3 -1 12 -7 8 -23 -14 -54
-17 -24 -18 -29 -5 -29 9 0 16 -6 16 -14 0 -25 -23 -81 -37 -89 -7 -5 -11 -13
-7 -18 3 -5 1 -15 -4 -22 -15 -18 -25 -77 -14 -77 6 0 16 14 24 30 7 17 19 30
25 30 7 0 13 7 13 15 0 9 7 18 15 21 8 4 15 13 15 21 0 8 5 11 10 8 6 -3 10
-2 10 4 0 5 9 13 20 16 11 3 20 14 20 24 0 10 11 27 25 39 14 13 23 27 20 32
-3 6 -2 10 4 10 6 0 21 11 35 25 28 28 46 31 64 13 9 -9 12 -7 12 10 0 15 6
22 19 22 17 0 18 -3 8 -25 -7 -14 -15 -25 -18 -25 -4 0 -7 -19 -7 -42 -1 -31
-7 -48 -27 -67 l-25 -26 6 35 c4 19 13 42 20 51 22 25 17 42 -10 35 -15 -4
-26 -1 -29 7 -3 7 -6 4 -6 -6 -1 -10 4 -27 9 -37 8 -16 6 -22 -15 -36 -20 -13
-23 -19 -14 -31 9 -10 9 -17 1 -25 -7 -7 -12 -20 -12 -31 0 -10 -5 -15 -10
-12 -7 4 -9 -2 -5 -18 5 -19 2 -25 -14 -30 -25 -6 -31 0 -31 30 0 25 -1 26
-24 17 -9 -3 -16 -15 -16 -25 0 -14 -7 -19 -30 -19 -25 0 -30 -4 -30 -25 0
-23 -14 -31 -45 -25 -112 22 -138 19 -154 -16 -6 -13 -17 -24 -26 -24 -15 0
-20 -22 -16 -66 1 -14 -6 -23 -20 -27 -12 -3 -18 -10 -14 -16 3 -6 11 -9 16
-6 14 9 11 -5 -6 -21 -16 -17 -21 -39 -6 -29 5 3 13 0 17 -6 3 -6 1 -15 -6
-19 -7 -4 -9 -16 -6 -28 8 -25 -9 -62 -28 -62 -7 0 -21 -9 -31 -20 -11 -13
-14 -20 -6 -20 9 0 8 -5 -3 -15 -8 -8 -17 -15 -21 -15 -15 0 -46 -38 -36 -45
6 -3 11 -18 11 -32 0 -15 -3 -23 -6 -20 -4 3 -15 2 -25 -3 -33 -18 -52 -1 -45
41 5 33 3 39 -11 39 -17 1 -17 1 0 11 12 7 16 17 12 30 -4 11 -3 19 2 18 21
-4 33 2 33 16 0 8 5 15 10 15 6 0 10 11 10 25 0 14 4 25 9 25 5 0 11 15 13 33
3 17 8 40 13 50 5 13 4 18 -6 17 -39 -6 -47 12 -20 44 11 13 9 14 -18 6 -17
-5 -34 -8 -37 -7 -3 1 -13 -11 -22 -28 -9 -16 -20 -31 -24 -33 -5 -2 -8 -28
-8 -58 0 -48 -2 -54 -20 -54 -17 0 -40 -32 -40 -56 0 -11 39 -2 44 11 3 8 10
15 16 15 7 0 7 -6 0 -21 -9 -15 -8 -24 0 -35 10 -11 9 -15 -4 -20 -9 -3 -16
-14 -16 -24 0 -9 -9 -25 -20 -35 -11 -10 -20 -27 -20 -37 0 -11 -5 -28 -10
-39 -7 -12 -7 -19 -1 -19 5 0 13 -20 16 -44 5 -33 3 -50 -10 -70 -16 -25 -18
-25 -31 -9 -12 17 -13 17 -20 0 -4 -11 -13 -16 -22 -12 -13 5 -13 3 -1 -11 11
-13 11 -18 2 -21 -7 -3 -13 -12 -13 -21 -1 -22 -47 -75 -59 -68 -8 6 -25 -30
-22 -48 1 -5 -6 -17 -14 -27 -11 -11 -14 -25 -10 -38 5 -18 2 -21 -22 -20 -45
3 -53 0 -53 -19 0 -10 -15 -25 -33 -35 -18 -10 -38 -27 -46 -38 -10 -18 -10
-23 6 -36 16 -13 17 -14 1 -9 -11 3 -18 0 -18 -9 0 -7 -9 -16 -19 -20 -12 -3
-23 -23 -31 -53 -20 -74 -21 -82 -6 -82 8 0 19 19 26 49 9 39 15 48 29 44 20
-5 41 33 41 74 0 22 3 24 24 19 14 -3 28 -1 31 4 6 10 21 8 65 -8 13 -5 13 -3
0 14 -8 10 -10 16 -6 12 5 -4 15 0 23 10 13 15 14 15 9 0 -3 -9 0 -19 7 -22 9
-3 8 -7 -2 -14 -10 -7 -15 -33 -15 -89 -1 -71 -3 -79 -23 -88 -14 -6 -23 -18
-23 -32 0 -13 -5 -23 -11 -23 -6 0 -8 7 -5 16 9 24 -3 36 -20 20 -20 -20 -18
-36 8 -63 20 -22 21 -23 2 -23 -12 0 -27 -15 -42 -42 -28 -54 -93 -103 -112
-85 -10 10 -10 8 -2 -9 9 -16 7 -23 -8 -34 -10 -8 -16 -18 -13 -22 6 -11 -28
-38 -39 -32 -14 9 -8 38 12 64 23 29 26 50 6 50 -21 0 -30 33 -11 46 26 20 67
106 56 117 -8 8 -11 7 -11 -2 0 -9 -8 -11 -25 -7 -19 5 -27 2 -31 -11 -3 -10
-10 -26 -15 -35 -5 -10 -9 -27 -9 -38 0 -17 -3 -19 -19 -11 -15 8 -20 7 -25
-5 -3 -8 -10 -13 -15 -10 -12 8 -62 -14 -56 -24 3 -4 -4 -10 -15 -13 -11 -3
-27 -22 -36 -43 -14 -34 -17 -36 -32 -20 -14 13 -17 38 -18 126 -1 61 2 110 7
110 5 0 9 5 9 11 0 7 12 23 28 37 39 37 73 120 58 145 -8 15 -8 21 2 24 21 8
13 44 -14 68 -22 19 -23 23 -10 28 12 5 15 14 10 32 -4 15 -2 25 5 25 6 0 11
5 11 10 0 22 -40 9 -46 -15 -3 -14 -10 -25 -15 -25 -4 0 -17 -9 -28 -21 -24
-26 -55 -21 -59 9 -2 12 -8 22 -13 22 -5 0 -9 7 -9 15 0 8 -9 19 -20 25 -20
11 -29 60 -10 60 6 0 10 9 10 20 0 24 35 27 64 5 14 -10 22 -12 27 -4 3 6 23
12 44 14 44 4 47 7 49 37 1 26 36 39 36 13 0 -9 5 -13 10 -10 6 3 10 1 10 -5
0 -7 -7 -9 -16 -6 -17 6 -63 -39 -64 -63 0 -11 4 -11 18 2 10 10 22 14 27 10
4 -5 5 -2 0 6 -6 10 -2 12 14 6 33 -10 111 29 111 56 0 20 -1 21 -25 5 -33
-22 -51 -20 -60 7 -12 35 -12 41 -2 61 6 12 6 16 -1 12 -18 -11 -24 13 -10 44
8 19 22 32 42 36 34 7 53 -13 29 -31 -11 -8 -12 -14 -5 -19 6 -3 19 2 29 12
10 10 40 29 66 42 53 26 91 85 81 125 -3 13 1 27 10 34 9 8 16 20 16 27 0 8 3
14 8 14 9 0 32 49 32 70 0 9 12 22 27 29 18 8 23 15 16 22 -8 8 -18 7 -34 -2
-13 -7 -28 -12 -33 -11 -5 2 -15 -6 -23 -18 -25 -36 -41 -24 -48 35 -4 30 -5
66 -3 80 5 22 2 25 -22 25 -15 0 -35 9 -45 20 -10 11 -23 20 -29 20 -7 0 -10
20 -9 53 2 28 3 62 3 75 0 13 6 22 15 22 16 0 39 46 30 60 -3 5 -1 20 5 34 7
20 6 27 -8 35 -9 5 -14 12 -11 16 4 3 0 31 -7 63 -13 57 -9 93 18 145 12 25 5
31 -21 18 -17 -9 -25 -6 -51 21 -19 21 -29 40 -26 52 3 11 0 29 -7 40 -6 12
-16 64 -22 115 -9 87 -8 99 10 137 22 47 35 56 35 24 0 -11 5 -20 10 -20 6 0
10 13 10 28 0 16 8 44 17 62 13 27 14 35 3 38 -12 4 54 41 76 42 6 0 25 7 42
16 35 17 43 39 12 31 -22 -6 -25 7 -11 46 6 14 6 29 0 38 -8 11 -13 10 -28 -8
-27 -32 -34 -29 -27 10 8 43 -1 51 -30 28 -24 -19 -110 -28 -99 -11 3 6 12 10
19 10 8 0 16 9 19 20 4 14 0 20 -11 20 -14 0 -14 2 -3 9 8 5 15 19 16 32 2 32
25 37 25 5 0 -14 -4 -26 -10 -26 -5 0 -10 -5 -10 -11 0 -6 12 -9 28 -7 25 3
27 7 30 53 2 27 8 55 14 62 6 7 7 21 3 30 -5 15 -14 10 -51 -31 l-44 -50 0 35
c0 19 -5 40 -11 46 -7 7 -4 21 11 48 32 57 47 67 93 67 23 -1 47 4 54 10 9 7
13 7 13 -2 0 -9 4 -9 13 -2 6 5 38 15 69 22 32 6 60 15 62 19 6 9 75 1 81 -10z
m-6850 -467 c-1 -10 21 -40 56 -74 42 -42 57 -63 52 -75 -5 -15 -3 -16 8 -5
18 16 29 15 29 -3 0 -8 -7 -15 -15 -15 -8 0 -15 -5 -15 -10 0 -7 -6 -7 -17 -1
-10 5 -34 16 -54 25 -44 19 -65 42 -75 81 -4 17 -11 35 -16 42 -7 8 -3 16 11
25 12 7 21 19 21 26 0 7 4 11 9 8 5 -4 8 -14 6 -24z m6203 -167 c0 -14 7 -33
15 -43 18 -19 16 -101 -2 -162 -7 -22 -7 -38 -1 -44 6 -6 10 -31 10 -57 0 -40
-5 -51 -29 -71 -16 -14 -34 -34 -40 -46 -8 -15 -21 -22 -42 -22 -27 0 -29 -2
-23 -26 5 -20 3 -25 -7 -22 -8 3 -13 11 -11 17 1 6 -2 11 -8 11 -5 0 -10 11
-10 25 0 14 -4 25 -9 25 -4 0 -6 12 -3 26 3 16 -1 29 -9 35 -12 7 -11 11 5 26
10 10 16 13 12 6 -3 -6 -1 -15 5 -18 16 -11 23 3 10 19 -13 15 -5 92 10 102 5
3 9 16 9 30 0 26 1 27 24 18 13 -5 16 -22 16 -78 0 -83 7 -113 26 -120 12 -5
15 15 14 122 0 70 1 136 2 147 2 15 -2 19 -17 17 -18 -2 -18 -1 -5 10 9 7 21
32 28 56 14 47 30 56 30 17z m-4728 -76 c11 -8 12 -12 3 -16 -17 -6 -16 -24 0
-47 10 -14 18 -15 38 -7 15 5 31 6 40 0 8 -5 10 -9 5 -9 -5 0 -3 -6 3 -14 6
-7 8 -21 5 -31 -4 -9 -2 -20 5 -24 6 -4 12 -24 13 -45 1 -20 5 -39 10 -42 17
-11 8 -44 -12 -44 -13 0 -20 7 -20 20 0 11 -9 35 -20 55 -11 20 -20 44 -20 55
0 24 -35 49 -61 43 -15 -4 -22 3 -34 30 -8 20 -19 38 -25 42 -20 12 -10 27 15
21 18 -5 25 -2 25 9 0 18 9 19 30 4z m572 -32 c71 -18 121 -48 136 -82 11 -24
20 -29 53 -26 9 1 19 -8 22 -19 4 -17 10 -20 27 -15 28 9 90 -33 86 -57 -4
-28 -14 -32 -40 -14 -32 20 -35 20 -29 -3 3 -11 13 -21 22 -24 21 -5 24 -34 4
-34 -7 0 -13 4 -13 9 0 4 -7 8 -16 8 -24 0 -8 -16 41 -39 25 -11 63 -21 85
-21 23 0 58 -9 80 -20 22 -11 52 -20 68 -20 36 0 92 -19 92 -31 0 -5 6 -9 14
-9 7 0 16 -10 19 -21 4 -14 11 -20 21 -16 25 10 86 -21 86 -43 0 -13 5 -18 15
-14 11 5 15 -1 15 -25 0 -35 14 -41 30 -11 14 25 33 26 25 1 -6 -19 18 -36 36
-25 8 5 13 -10 10 -29 -4 -22 25 -77 40 -77 20 0 32 -25 24 -51 -9 -28 14 -23
25 5 8 22 11 23 43 13 22 -7 38 -21 46 -39 17 -37 32 -36 29 3 -4 45 18 47 37
3 18 -44 11 -79 -13 -69 -39 16 -47 15 -57 -7 -8 -17 -19 -23 -48 -24 -21 0
-40 3 -43 8 -9 14 -24 9 -18 -7 4 -9 1 -15 -7 -15 -8 0 1 -9 19 -20 18 -11 45
-20 61 -20 16 0 42 -7 57 -15 16 -8 36 -15 44 -15 8 0 23 -7 33 -14 28 -21 -2
-39 -50 -30 -35 6 -37 6 -24 -9 8 -10 28 -17 51 -17 35 0 71 -23 57 -37 -4 -3
-49 -6 -102 -7 -52 0 -95 -4 -95 -7 0 -4 -21 -10 -47 -14 -59 -9 -143 -50
-143 -70 0 -8 -7 -15 -15 -15 -8 0 -15 -3 -15 -6 0 -12 30 -35 39 -30 8 5 38
-22 30 -27 -16 -11 -81 -27 -107 -27 -17 0 -34 -4 -37 -10 -3 -5 -37 -10 -76
-10 -38 0 -69 -4 -69 -10 0 -5 -9 -14 -21 -21 -19 -10 -20 -8 -14 10 6 20 -10
31 -17 11 -1 -5 -34 -13 -72 -17 -88 -10 -102 -32 -17 -28 69 3 91 -6 72 -28
-9 -12 -9 -16 1 -20 7 -3 3 -6 -9 -6 -13 -1 -23 -7 -23 -14 0 -7 -25 -24 -56
-37 -42 -19 -59 -33 -72 -60 -19 -40 -29 -52 -58 -68 -21 -11 -97 -23 -163
-27 -19 -1 -37 -7 -39 -13 -5 -16 -62 -15 -63 1 0 10 -2 10 -6 0 -2 -7 -9 -13
-14 -13 -17 0 -79 -54 -79 -69 0 -8 5 -29 12 -47 9 -26 9 -36 -2 -49 -13 -16
-15 -16 -27 1 -7 10 -13 29 -13 42 0 18 -4 23 -16 18 -9 -4 -28 1 -41 9 -21
14 -23 21 -17 58 3 23 6 51 6 62 -1 67 -47 170 -104 230 -25 28 -27 34 -18 65
13 46 13 107 0 115 -7 4 -10 42 -9 95 2 91 -3 110 -25 110 -8 0 -30 18 -50 40
-20 22 -40 40 -46 40 -8 0 -30 31 -30 44 0 3 15 13 33 22 45 24 50 36 22 59
-18 14 -27 34 -31 67 l-7 48 74 70 c40 38 81 70 91 70 24 0 23 16 -2 23 -24 6
-34 29 -26 61 9 35 29 52 81 67 51 15 55 36 7 31 -18 -2 -32 -2 -32 0 0 3 9
23 20 46 11 22 20 48 20 57 0 8 6 15 14 15 10 0 12 13 10 49 -4 44 -1 53 26
79 16 17 30 35 30 40 0 14 43 32 65 27 11 -2 46 -10 77 -18z m6318 -1 c0 -7
-6 -19 -14 -26 -17 -13 -10 -40 9 -40 8 0 17 -10 21 -22 l7 -22 17 22 c10 12
22 22 27 22 6 0 15 11 21 25 6 14 15 25 19 26 5 0 16 2 26 4 10 2 22 -6 28
-17 9 -16 17 -19 45 -13 19 3 34 2 34 -3 0 -5 19 -12 42 -15 23 -3 48 -14 55
-23 16 -22 17 -34 2 -34 -6 0 -20 -11 -31 -26 -11 -14 -22 -23 -25 -20 -3 2
-20 -4 -39 -15 -43 -23 -53 -24 -70 -1 -13 16 -15 15 -35 -10 -24 -33 -54 -38
-44 -9 8 25 -23 44 -48 30 -10 -6 -26 -7 -37 -4 -10 3 -33 -1 -51 -10 -39 -21
-79 -13 -79 16 0 12 -4 17 -11 14 -6 -4 -8 -13 -5 -21 4 -10 -2 -12 -23 -8
-16 4 -32 1 -35 -5 -16 -25 -36 -11 -36 25 0 42 -23 43 -28 1 -2 -15 -8 -27
-15 -27 -6 0 -2 -6 9 -14 18 -14 18 -15 -8 -21 -36 -9 -59 0 -52 20 9 21 -22
19 -35 -2 -6 -10 -11 -13 -11 -6 0 6 7 18 15 27 17 16 20 36 6 36 -5 0 -29
-23 -54 -50 -40 -46 -46 -50 -69 -41 l-26 10 21 42 c11 23 33 49 48 58 16 9
34 26 40 38 7 13 19 23 28 23 14 0 14 2 1 10 -9 6 -10 10 -3 10 7 0 17 -9 23
-21 11 -19 13 -19 36 -4 13 8 24 11 24 6 0 -19 50 -4 73 22 12 15 30 27 40 27
21 0 22 -8 1 -31 -14 -16 -14 -18 7 -24 18 -6 28 -2 43 18 23 27 84 67 104 67
6 0 12 -6 12 -14z m-6884 -190 c10 -16 21 -23 31 -19 13 5 15 2 10 -18 -4 -13
-1 -36 6 -51 12 -29 27 -37 27 -16 0 9 3 9 11 1 16 -16 3 -43 -21 -43 -11 0
-20 -6 -20 -14 0 -26 22 -30 40 -7 14 20 18 21 29 8 17 -21 4 -88 -15 -80 -8
3 -14 10 -14 17 0 6 -29 25 -63 43 -45 22 -61 36 -59 49 3 12 -1 15 -13 11
-26 -10 -29 19 -6 56 12 19 21 46 21 61 0 33 15 33 36 2z m6634 -92 c0 -7 -7
-17 -15 -22 -13 -7 -14 -14 -5 -36 12 -33 12 -36 1 -36 -5 0 -11 9 -13 21 -3
20 -3 20 -28 -3 -13 -13 -28 -22 -33 -20 -4 1 -4 -10 -1 -25 5 -23 4 -26 -7
-15 -19 17 -28 15 -22 -7 4 -15 0 -18 -21 -14 -18 4 -26 1 -26 -9 0 -8 -6 -15
-12 -15 -7 0 -22 -4 -32 -9 -16 -6 -18 -4 -11 12 4 10 10 29 13 42 5 27 105
131 145 151 15 8 27 19 27 24 0 6 9 2 20 -8 11 -10 20 -24 20 -31z m-4110 -21
c0 -43 15 -61 39 -46 16 10 20 9 25 -2 8 -23 25 -18 32 10 14 58 45 4 42 -74
-2 -57 -3 -60 -33 -65 -72 -14 -129 -16 -137 -3 -4 6 -8 56 -8 110 0 90 1 97
20 97 15 0 20 -7 20 -27z m323 7 c4 -17 11 -19 49 -14 31 4 47 2 55 -7 17 -20
4 -69 -21 -79 l-21 -9 22 -7 c47 -14 8 -24 -93 -24 -84 0 -106 3 -110 15 -8
20 -24 19 -24 -1 0 -8 -4 -12 -10 -9 -5 3 -10 17 -10 31 0 17 6 24 19 24 10 0
21 9 24 20 3 11 14 20 25 20 11 0 25 7 32 15 7 8 16 13 20 10 5 -3 11 4 15 15
8 26 21 26 28 0z m-4256 -62 c18 -13 36 -31 39 -41 3 -10 17 -22 30 -27 24 -9
30 -32 24 -98 -1 -13 4 -29 10 -37 12 -14 6 -35 -10 -35 -11 0 -80 67 -80 79
0 5 -6 11 -14 14 -13 5 -31 57 -50 140 -8 34 6 35 51 5z m-946 -114 c11 -13
10 -17 -4 -25 -27 -16 -20 -32 11 -26 20 4 38 -3 69 -26 23 -18 41 -36 39 -42
-1 -5 -24 -8 -50 -7 -51 4 -78 -10 -70 -36 5 -15 4 -15 -9 0 -12 15 -18 16
-40 5 -15 -6 -27 -15 -27 -19 0 -11 -38 -10 -44 1 -3 5 1 14 9 21 26 22 16 32
-11 11 -22 -18 -28 -18 -40 -6 -28 28 -13 87 37 139 19 20 34 26 70 26 31 0
51 -5 60 -16z m4143 -106 c9 -17 16 -39 16 -50 0 -10 5 -18 10 -18 6 0 10 16
10 35 0 39 11 43 56 20 16 -8 37 -12 47 -9 14 4 17 -1 17 -29 0 -43 26 -57 47
-27 18 26 47 27 39 2 -4 -12 3 -27 19 -42 28 -26 39 -22 40 18 0 17 5 27 15
27 11 0 16 -13 18 -49 2 -29 10 -56 21 -68 18 -19 19 -19 23 6 3 14 3 46 1 71
-3 42 7 59 22 34 4 -5 18 -14 31 -19 13 -5 24 -16 24 -25 0 -10 10 -15 30 -15
29 0 30 -1 30 -50 0 -43 3 -50 20 -50 18 0 20 7 20 60 0 54 12 79 23 48 3 -10
10 -10 31 1 35 19 49 5 48 -48 0 -23 3 -41 7 -41 16 0 30 26 31 55 2 97 6 144
12 150 12 12 30 -36 30 -81 0 -44 0 -44 35 -44 40 0 67 -22 60 -50 -6 -23 15
-27 32 -6 6 8 25 19 40 26 16 6 32 21 36 33 6 22 6 22 18 -3 11 -23 12 -20 15
33 2 33 7 55 13 52 5 -4 9 -15 9 -26 0 -10 5 -19 10 -19 6 0 10 7 10 15 0 20
16 19 24 -1 10 -25 34 1 38 39 2 27 8 33 31 35 31 4 33 -3 12 -49 -19 -44 -49
-79 -68 -79 -14 0 -61 -79 -52 -88 2 -2 16 5 31 17 48 38 62 19 19 -27 -21
-22 -27 -24 -34 -13 -8 12 -12 12 -25 2 -14 -12 -16 -10 -16 17 0 18 -6 32
-16 36 -18 7 -34 0 -34 -15 0 -6 5 -7 11 -3 7 4 10 1 7 -7 -3 -8 -12 -13 -22
-11 -9 2 -16 -2 -16 -8 0 -6 5 -8 10 -5 6 3 10 -4 10 -15 0 -16 -4 -20 -15
-16 -8 3 -27 1 -41 -4 -15 -6 -32 -6 -41 -1 -9 5 -27 4 -45 -3 -22 -8 -31 -8
-37 2 -6 10 -20 8 -66 -6 -54 -17 -62 -18 -124 -3 -36 8 -71 22 -77 30 -8 10
-22 12 -55 7 -24 -4 -51 -7 -59 -7 -8 1 -48 2 -89 4 -47 2 -76 7 -79 15 -2 7
-8 12 -14 12 -6 0 -17 8 -24 18 -10 14 -16 15 -31 6 -15 -9 -23 -9 -37 2 -14
10 -24 10 -38 3 -16 -8 -24 -5 -44 15 -14 13 -31 23 -39 20 -14 -6 -30 13 -30
37 0 8 -8 23 -17 33 -25 24 -22 36 7 36 16 0 25 -6 25 -15 0 -8 5 -15 11 -15
6 0 10 17 9 43 -3 50 -2 77 4 77 3 0 12 -14 20 -32z m5533 -169 c9 -9 28 -15
55 -18 4 -1 5 -7 2 -15 -3 -7 2 -20 10 -29 9 -9 16 -23 16 -32 0 -11 5 -15 15
-11 18 7 37 -26 29 -49 -6 -14 -9 -13 -26 5 -14 15 -23 19 -31 11 -7 -7 -5
-16 7 -30 10 -11 15 -25 11 -30 -3 -6 -1 -11 4 -11 6 0 11 -7 11 -15 0 -25
-30 -5 -50 34 -10 20 -32 49 -50 66 -35 34 -49 25 -42 -27 4 -38 3 -100 -2
-105 -8 -9 -36 11 -36 26 0 22 -44 39 -110 42 -94 4 -111 1 -117 -21 -6 -24
-26 -26 -44 -3 -11 13 -11 17 -1 20 14 5 17 43 2 43 -5 0 -10 -4 -10 -10 0 -5
-10 -10 -22 -10 -20 0 -21 1 -3 20 10 11 30 20 45 20 25 0 70 31 70 49 0 10
69 31 104 31 14 0 26 5 26 11 0 6 14 9 33 8 39 -4 58 6 50 26 -6 18 37 21 54
4z m-9557 -54 c0 -29 11 -31 45 -9 14 9 25 12 25 6 0 -6 -9 -13 -20 -17 -15
-5 -17 -11 -10 -30 5 -12 7 -25 4 -27 -2 -3 10 -17 26 -33 31 -30 45 -90 15
-65 -36 30 -38 -17 -3 -75 10 -16 18 -42 18 -57 0 -15 5 -30 10 -33 13 -8 13
-58 -1 -89 -9 -19 -9 -29 0 -40 9 -11 10 -20 2 -35 -6 -11 -11 -29 -11 -40 0
-28 -35 -44 -76 -36 -42 7 -114 75 -135 125 -16 40 -17 223 -1 243 5 6 12 26
14 42 3 17 9 38 13 48 6 14 1 18 -24 23 -27 6 -31 11 -31 37 0 46 43 85 98 86
38 1 42 -1 42 -24z m9378 -248 c43 -3 70 -11 84 -23 11 -11 22 -18 24 -16 2 1
10 2 17 2 9 0 9 -2 -1 -9 -7 -4 -14 -20 -15 -35 -1 -14 -7 -26 -12 -25 -23 3
-55 19 -55 27 0 8 -43 32 -57 32 -3 0 0 -7 7 -15 11 -13 8 -15 -18 -15 -24 0
-30 -4 -26 -15 4 -8 12 -15 20 -15 16 0 58 -39 50 -47 -12 -13 -61 16 -75 45
-16 31 -47 48 -102 54 -15 2 -34 10 -42 17 -9 7 -21 10 -27 6 -5 -3 -10 1 -10
11 0 12 7 15 30 12 17 -3 30 -1 30 4 0 5 4 7 9 3 5 -3 12 -1 15 3 3 5 25 8 48
6 24 -2 71 -5 106 -7z m-3898 -157 c0 -5 16 -10 35 -10 21 0 44 -8 60 -22 25
-21 34 -58 15 -58 -5 0 -10 -7 -10 -16 0 -11 6 -14 20 -9 15 5 20 2 21 -12 0
-12 4 -9 11 10 7 20 7 32 -2 43 -7 8 -10 17 -7 20 3 3 22 -11 41 -32 27 -29
36 -47 36 -74 0 -26 9 -46 33 -74 19 -21 42 -55 53 -75 10 -20 27 -45 37 -55
9 -11 17 -26 17 -33 0 -7 5 -13 10 -13 6 0 10 -6 10 -13 0 -7 8 -22 18 -33 27
-30 82 -144 82 -170 0 -25 -15 -33 -22 -12 -3 7 -35 -19 -73 -57 -38 -38 -64
-70 -57 -73 23 -7 12 -20 -15 -17 -53 4 -113 46 -113 80 0 8 -4 15 -9 15 -5 0
-8 11 -8 24 0 42 -25 131 -39 139 -7 4 -21 23 -30 42 -16 35 -48 48 -56 23 -3
-8 -12 -5 -27 9 -12 11 -35 23 -49 26 -15 3 -37 8 -48 12 -16 5 -23 2 -27 -14
-4 -18 -8 -19 -36 -10 -17 6 -38 9 -46 5 -8 -3 -17 -1 -20 4 -11 19 -25 10
-25 -15 0 -25 -1 -25 -25 -9 -23 15 -25 15 -19 0 5 -13 -1 -16 -35 -16 -23 0
-41 -4 -41 -9 0 -5 -13 -4 -29 2 -17 6 -28 15 -25 19 10 16 -62 88 -102 104
-26 10 -46 26 -54 42 -7 15 -16 34 -21 43 -9 19 -3 29 18 29 27 0 95 51 89 66
-7 17 29 93 53 112 9 7 28 10 44 7 19 -3 27 0 27 10 0 9 11 21 25 27 14 6 25
15 25 20 0 4 65 8 145 8 90 0 145 -4 145 -10z m-4072 -22 c6 2 17 -9 24 -23 6
-14 15 -25 20 -25 4 0 8 -9 8 -21 0 -12 8 -23 20 -26 21 -6 29 -53 9 -53 -7 0
-9 -11 -5 -32 13 -67 12 -70 -16 -74 -34 -3 -41 8 -45 65 -3 56 -9 71 -27 71
-9 0 -16 -11 -18 -27 -4 -32 -38 -46 -38 -16 0 11 -5 24 -10 29 -6 6 -12 39
-14 73 -4 56 -2 63 18 71 12 4 29 3 41 -3 11 -6 26 -10 33 -9z m2434 -43 c5
-6 12 -5 20 3 18 18 38 15 38 -6 0 -26 11 -34 26 -21 10 8 23 4 52 -19 21 -17
50 -36 65 -43 15 -7 27 -17 27 -22 0 -6 9 -2 21 9 14 13 22 15 27 7 4 -7 32
-25 62 -41 37 -20 56 -37 58 -51 2 -14 -1 -22 -10 -20 -38 5 -69 -3 -87 -22
-11 -12 -25 -19 -33 -17 -7 3 -30 -1 -52 -8 -21 -8 -42 -12 -46 -9 -5 3 -12
-1 -17 -8 -18 -29 -76 -60 -114 -60 -24 0 -39 -4 -39 -12 0 -8 -9 -10 -26 -7
-20 4 -25 2 -19 -8 6 -10 4 -11 -6 -4 -26 16 -67 13 -72 -6 -3 -11 -19 -19
-46 -24 -23 -3 -50 -15 -60 -25 -12 -12 -27 -17 -45 -14 -15 3 -26 1 -26 -6 0
-6 9 -11 20 -11 11 0 20 -4 20 -8 0 -4 -9 -14 -20 -22 -11 -8 -20 -21 -20 -30
-1 -12 -3 -12 -14 3 -17 22 -26 22 -26 -3 0 -11 5 -20 12 -20 9 0 9 -3 0 -12
-19 -19 -15 -50 6 -46 9 2 17 10 17 18 0 16 32 15 53 -2 6 -6 12 -7 12 -3 0 4
-6 13 -14 19 -8 6 -16 20 -18 31 -2 17 3 20 32 21 85 1 100 4 100 19 0 10 10
15 29 15 16 0 32 6 35 13 5 10 7 10 12 0 3 -7 21 -13 40 -13 24 0 36 -5 41
-17 13 -38 67 -78 108 -80 150 -6 193 -11 213 -21 18 -11 22 -10 22 3 0 17 16
20 25 6 9 -15 -32 -32 -59 -25 -21 5 -24 3 -19 -16 3 -11 2 -20 -3 -19 -20 3
-34 -2 -32 -12 2 -6 -8 -13 -21 -15 -31 -6 -31 -6 -24 -32 4 -16 13 -22 34
-22 15 0 30 -4 34 -9 3 -5 23 -8 44 -6 36 3 40 1 50 -26 11 -31 35 -32 25 -1
-5 14 -4 14 4 3 12 -17 103 -16 113 1 4 7 15 5 31 -6 26 -17 68 -10 83 14 4 6
25 10 48 8 23 -1 61 2 85 6 35 6 42 5 42 -8 0 -19 15 -20 55 -2 22 9 35 10 48
2 13 -8 20 -8 27 4 6 10 10 11 10 3 0 -19 28 -16 39 5 9 16 11 16 23 1 22 -29
52 -32 63 -7 13 29 56 40 133 34 36 -3 62 -1 62 4 0 6 -9 10 -20 10 -11 0 -20
5 -20 11 0 5 -13 15 -30 20 -33 12 -35 16 -20 56 15 39 38 55 62 42 10 -5 24
-6 31 -2 19 12 47 14 47 3 0 -6 16 -10 35 -10 19 0 35 4 35 9 0 5 14 9 30 9
20 -1 30 -6 30 -17 0 -11 9 -5 25 15 13 17 33 34 44 37 20 5 60 -16 74 -40 4
-7 15 -13 23 -13 8 0 12 -4 9 -10 -3 -5 2 -11 12 -12 42 -3 73 -16 73 -30 0
-6 -6 -6 -14 1 -18 15 -61 -4 -49 -22 37 -60 79 -92 118 -88 41 3 75 -6 75
-21 0 -6 -18 -28 -40 -49 -35 -34 -43 -38 -62 -28 -45 24 -76 28 -99 12 -17
-13 -26 -14 -40 -5 -10 7 -30 12 -43 12 -14 0 -37 5 -53 11 -15 6 -46 12 -68
14 -22 2 -68 7 -102 11 -45 5 -63 4 -63 -5 0 -6 10 -11 23 -11 26 0 77 -21 77
-32 0 -5 9 -8 20 -8 11 0 20 -4 20 -10 0 -5 9 -10 20 -10 26 0 27 -43 1 -71
-11 -13 -17 -28 -13 -41 3 -15 1 -19 -6 -14 -7 4 -15 0 -18 -9 -4 -9 -13 -14
-21 -11 -17 7 -63 -36 -63 -59 0 -13 -17 -15 -105 -15 l-106 0 -34 35 c-27 26
-35 43 -35 70 0 19 5 35 10 35 6 0 10 9 10 20 0 11 5 20 10 20 6 0 10 8 10 18
0 10 5 23 12 30 9 9 8 12 -4 12 -9 0 -20 -9 -23 -21 -7 -22 -59 -79 -72 -79
-5 0 -14 -9 -21 -21 -11 -18 -11 -20 5 -17 10 2 21 8 25 13 5 6 5 -4 2 -21 -7
-35 2 -46 70 -98 33 -25 131 -57 176 -57 28 -1 125 31 135 44 6 6 23 19 39 27
16 8 31 21 34 30 3 8 13 24 23 35 10 11 19 36 21 55 2 24 8 34 18 33 50 -5
180 -37 180 -44 0 -4 15 -5 34 -2 25 4 35 1 39 -11 8 -21 -1 -45 -16 -42 -7 1
-9 1 -4 -1 16 -10 5 -39 -23 -62 -29 -22 -41 -61 -20 -61 6 0 10 -22 10 -50 0
-38 -4 -50 -15 -50 -8 0 -15 -4 -15 -10 0 -5 7 -10 15 -10 8 0 15 -4 15 -10 0
-5 18 -10 40 -10 22 0 40 -4 40 -10 0 -5 -18 -10 -40 -10 -22 0 -40 -4 -40
-10 0 -5 -7 -10 -16 -10 -23 0 -44 -25 -44 -54 0 -19 5 -26 20 -26 16 0 20 -7
20 -30 0 -16 -4 -30 -10 -30 -5 0 -10 -9 -10 -20 0 -13 7 -20 20 -20 11 0 20
-4 20 -10 0 -5 -25 -10 -56 -10 -57 0 -84 14 -84 44 0 21 -5 20 -35 -6 -32
-27 -32 -38 0 -38 34 0 32 -18 -2 -22 -17 -2 -29 -10 -31 -20 -3 -15 4 -18 32
-18 20 0 36 -4 36 -10 0 -5 -18 -10 -41 -10 -32 0 -40 -3 -36 -14 3 -8 -4 -21
-18 -30 -21 -14 -26 -14 -39 -1 -19 19 -26 19 -26 0 0 -8 -8 -15 -18 -15 -10
0 -31 -14 -48 -31 l-29 -31 -6 34 c-5 29 -7 31 -14 13 -11 -26 -31 -45 -45
-45 -14 0 -44 -29 -37 -36 3 -3 14 -1 25 5 12 6 41 11 66 11 48 0 61 -17 33
-44 -20 -20 -84 -27 -98 -10 -6 8 -15 14 -20 14 -14 0 -10 -30 5 -46 18 -17
82 -19 90 -1 5 10 7 10 12 0 3 -7 14 -13 25 -13 10 0 19 -4 19 -10 0 -5 14
-10 30 -10 17 0 30 -4 30 -10 0 -5 9 -10 20 -10 11 0 20 -4 20 -10 0 -5 -4
-10 -10 -10 -5 0 -10 -9 -10 -20 0 -15 7 -20 26 -20 16 0 37 -12 54 -30 15
-16 35 -30 44 -30 9 0 16 -4 16 -10 0 -6 27 -10 60 -10 33 0 60 -4 60 -10 0
-6 97 -10 270 -10 173 0 270 4 270 10 0 6 30 10 69 10 46 0 71 4 75 13 3 8 8
7 16 -6 11 -16 12 -16 35 0 14 10 25 26 25 36 0 21 30 23 30 2 0 -8 -5 -15
-10 -15 -6 0 -9 -3 -8 -7 2 -5 -9 -24 -25 -44 -15 -20 -27 -41 -27 -47 0 -7
-7 -12 -15 -12 -8 0 -15 9 -15 20 0 11 -7 20 -15 20 -8 0 -15 -9 -15 -19 0
-11 -6 -22 -12 -25 -10 -5 -10 -7 0 -12 22 -10 13 -35 -28 -74 -22 -21 -40
-46 -40 -54 0 -14 -32 -16 -280 -16 -180 0 -280 -4 -280 -10 0 -5 -13 -10 -30
-10 -16 0 -30 -4 -30 -10 0 -5 -18 -10 -40 -10 -33 0 -40 -3 -40 -20 0 -16 7
-20 36 -20 19 0 42 -6 50 -14 18 -19 18 -26 -1 -26 -8 0 -15 -4 -15 -10 0 -6
32 -10 75 -10 62 0 75 -3 75 -16 0 -33 26 -44 102 -44 62 0 76 3 88 20 8 11
22 20 32 20 10 0 18 5 18 10 0 6 23 10 50 10 28 0 50 5 50 10 0 6 18 10 40 10
22 0 40 5 40 10 0 6 -12 10 -26 10 -14 0 -32 7 -41 15 -22 22 0 45 43 45 18 0
36 5 39 10 3 6 42 10 86 10 46 0 79 4 79 10 0 6 9 10 20 10 13 0 20 7 20 20 0
13 7 20 20 20 13 0 20 7 20 19 0 11 6 21 13 24 8 3 5 11 -10 24 -13 11 -23 30
-23 42 0 25 42 71 65 71 8 0 15 5 15 10 0 6 -4 10 -9 10 -5 0 -11 11 -13 25
-3 13 -2 22 3 20 4 -3 10 -1 14 5 3 5 17 10 31 10 27 0 54 20 54 40 0 12 24
40 34 40 3 0 6 -19 6 -42 -1 -47 -18 -78 -44 -78 -19 0 -23 -56 -3 -63 9 -4 8
-8 -3 -16 -13 -10 -13 -12 -1 -20 12 -8 9 -15 -17 -39 -33 -31 -43 -77 -20
-84 17 -6 -14 -38 -36 -38 -9 0 -16 -8 -16 -20 0 -11 5 -20 10 -20 6 0 10 -4
10 -10 0 -5 -9 -10 -20 -10 -17 0 -20 -7 -20 -40 0 -22 -4 -40 -10 -40 -5 0
-10 -13 -10 -29 0 -16 -6 -32 -12 -34 -10 -4 -9 -8 2 -16 12 -8 11 -13 -8 -29
-27 -24 -28 -32 -2 -32 11 0 20 -4 20 -10 0 -5 -9 -10 -20 -10 -15 0 -20 -7
-20 -29 0 -16 -6 -31 -12 -34 -9 -3 -5 -11 11 -25 21 -19 22 -23 8 -37 -9 -8
-21 -15 -27 -15 -16 0 -60 -47 -60 -65 0 -30 -34 -14 -91 45 -32 33 -65 60
-73 60 -9 0 -16 5 -16 10 0 6 -13 10 -30 10 -16 0 -30 5 -30 10 0 6 5 10 10
10 6 0 10 5 10 10 0 6 -47 10 -120 10 -73 0 -120 -4 -120 -10 0 -5 -13 -10
-29 -10 -16 0 -32 -6 -35 -12 -5 -10 -7 -10 -12 0 -7 14 -44 16 -44 2 0 -5
-13 -10 -30 -10 -16 0 -30 -4 -30 -10 0 -5 -9 -10 -20 -10 -11 0 -20 -4 -20
-10 0 -5 -9 -10 -20 -10 -11 0 -20 -4 -20 -10 0 -5 -9 -10 -20 -10 -11 0 -20
-4 -20 -10 0 -5 -9 -10 -20 -10 -11 0 -20 -4 -20 -10 0 -5 -22 -10 -50 -10
-27 0 -50 -4 -50 -10 0 -5 -11 -10 -23 -10 -13 0 -32 -9 -42 -20 -13 -15 -31
-20 -67 -20 -26 0 -48 -4 -48 -10 0 -5 -9 -10 -20 -10 -11 0 -20 -4 -20 -10 0
-5 -18 -10 -40 -10 -22 0 -40 -4 -40 -10 0 -6 -57 -10 -150 -10 -93 0 -150 4
-150 10 0 13 -57 13 -65 0 -3 -5 -13 -10 -22 -10 -13 0 -13 2 -2 17 11 13 11
17 2 20 -20 7 -15 37 7 53 12 8 20 26 20 42 0 24 4 28 30 28 17 0 30 5 30 10
0 20 -32 22 -70 5 -31 -14 -43 -15 -54 -6 -17 14 -405 22 -413 8 -2 -4 9 -20
26 -36 26 -24 31 -37 31 -75 0 -25 -5 -46 -10 -46 -6 0 -10 -8 -8 -17 3 -16
-9 -18 -109 -21 -73 -2 -113 1 -113 8 0 14 -37 13 -44 -2 -5 -10 -7 -10 -12 0
-4 8 -33 12 -95 12 -53 0 -89 4 -89 10 0 6 -22 10 -50 10 -27 0 -50 5 -50 10
0 6 -9 10 -20 10 -11 0 -20 -4 -20 -10 0 -5 -9 -10 -20 -10 -11 0 -20 5 -20
10 0 6 -27 10 -60 10 -33 0 -60 4 -60 10 0 6 -22 10 -48 10 -36 0 -51 5 -62
20 -8 11 -26 20 -41 20 -15 0 -30 6 -33 13 -5 10 -7 10 -12 0 -3 -7 -13 -13
-23 -13 -9 0 -23 -9 -31 -20 -8 -11 -22 -20 -32 -20 -10 0 -18 -4 -18 -10 0
-5 -22 -10 -50 -10 -27 0 -50 -4 -50 -10 0 -5 -19 -10 -42 -10 -45 -1 -78 -18
-78 -41 -1 -24 -26 -50 -44 -43 -17 7 -23 44 -6 44 6 0 10 14 10 30 0 21 -5
30 -16 30 -22 0 -53 32 -36 38 19 6 14 56 -8 72 -14 10 -20 26 -20 52 0 21 -4
38 -10 38 -5 0 -10 18 -10 40 0 22 -4 40 -10 40 -5 0 -10 9 -10 20 0 11 -4 20
-10 20 -5 0 -10 9 -10 20 0 13 -7 20 -20 20 -12 0 -20 7 -20 16 0 9 -10 25
-22 36 -19 16 -20 21 -8 29 11 8 12 12 3 16 -16 6 -18 103 -3 103 18 0 10 18
-10 23 -15 4 -20 14 -20 36 0 19 -6 34 -15 37 -10 4 -13 13 -10 25 5 13 1 19
-10 19 -25 0 -48 28 -42 51 3 12 0 22 -9 26 -17 6 -19 39 -1 46 9 4 9 8 0 14
-6 5 -11 15 -11 23 3 50 -2 60 -32 60 l-30 0 0 60 c0 33 -4 60 -10 60 -5 0
-10 14 -10 30 0 17 -4 30 -10 30 -5 0 -10 16 -10 36 0 25 -7 43 -22 56 -18 15
-20 21 -9 28 11 6 5 16 -22 44 -43 42 -93 49 -117 16 -8 -12 -26 -20 -42 -20
-24 0 -28 -4 -28 -30 0 -16 -4 -30 -10 -30 -5 0 -10 -13 -10 -30 0 -16 5 -30
10 -30 6 0 10 -13 10 -30 0 -16 5 -30 10 -30 6 0 10 -9 10 -20 0 -11 -4 -20
-10 -20 -15 0 -12 -57 3 -64 10 -5 10 -7 0 -12 -15 -7 -18 -64 -3 -64 16 0 12
-90 -5 -106 -13 -13 -18 -12 -40 10 -19 19 -25 35 -25 71 0 25 -4 45 -10 45
-6 0 -10 53 -10 140 0 87 4 140 10 140 6 0 10 43 10 110 0 67 4 110 10 110 6
0 10 18 10 40 0 22 5 40 10 40 6 0 10 16 10 35 0 29 9 44 45 80 42 42 75 58
75 35 0 -5 18 -10 40 -10 22 0 40 5 40 10 0 6 9 10 20 10 11 0 20 5 20 10 0 6
14 10 30 10 17 0 30 5 30 10 0 6 23 10 50 10 28 0 50 5 50 10 0 6 9 10 20 10
11 0 20 5 20 10 0 6 8 10 18 10 10 0 24 9 32 20 8 11 21 20 30 20 9 0 22 9 30
20 8 11 20 20 28 20 18 0 82 66 82 85 0 8 5 15 10 15 6 0 10 -7 10 -15 0 -8
19 -33 41 -55 23 -23 38 -44 35 -48 -4 -3 -11 -1 -15 6 -5 8 -24 12 -48 10
l-40 -3 5 -37 c4 -31 2 -38 -12 -38 -23 0 -53 -30 -39 -38 11 -7 17 -54 14
-99 -1 -19 -7 -23 -31 -23 -23 0 -30 -4 -30 -20 0 -13 -7 -20 -20 -20 -18 0
-20 -7 -20 -60 0 -33 -4 -60 -10 -60 -5 0 -10 -18 -10 -40 0 -22 -4 -40 -10
-40 -5 0 -10 -21 -10 -46 0 -44 -16 -74 -40 -74 -17 0 -40 -26 -40 -44 0 -9 5
-16 10 -16 6 0 10 -9 10 -20 0 -13 7 -20 20 -20 11 0 20 -4 20 -10 0 -5 -18
-10 -40 -10 -22 0 -40 -3 -40 -6 0 -3 14 -19 31 -35 27 -25 31 -35 26 -63 -4
-25 -1 -36 9 -40 17 -7 18 -33 2 -39 -7 -2 -10 -8 -5 -12 4 -5 13 -3 19 3 18
18 38 14 38 -6 0 -26 20 -42 52 -42 25 0 28 -4 28 -33 0 -18 -5 -38 -12 -45
-9 -9 -6 -16 10 -30 12 -11 22 -27 22 -37 0 -9 5 -15 13 -12 52 19 57 19 75
-12 9 -17 21 -31 25 -31 5 0 6 -4 3 -9 -11 -18 -45 0 -43 22 1 13 -5 23 -15
25 -15 3 -18 -4 -18 -36 0 -39 0 -40 45 -46 37 -6 48 -13 61 -38 15 -29 15
-30 -1 -24 -9 3 -20 6 -25 6 -5 0 -12 9 -15 20 -6 20 -45 29 -45 10 0 -5 5
-10 10 -10 6 0 10 -9 10 -20 0 -13 7 -20 20 -20 12 0 20 -7 20 -18 0 -9 9 -23
20 -30 11 -7 20 -21 20 -32 0 -12 7 -20 16 -20 18 0 44 -23 44 -40 0 -15 25
-40 40 -40 21 0 40 -28 40 -60 0 -32 37 -80 62 -80 8 0 20 -9 28 -21 12 -16
24 -20 59 -17 28 1 46 -2 49 -10 2 -7 16 -12 31 -12 15 0 33 -9 41 -20 14 -19
26 -20 312 -20 258 0 298 2 298 15 0 9 -10 16 -27 16 -23 1 -24 2 -6 6 12 2
32 -1 45 -8 16 -9 23 -9 26 0 2 6 12 11 23 11 23 0 24 6 5 26 -11 10 -42 14
-120 14 -64 0 -106 4 -106 10 0 6 -30 10 -70 10 -70 0 -70 0 -64 25 10 38 -3
75 -26 75 -11 0 -20 5 -20 10 0 6 -60 10 -160 10 -100 0 -160 4 -160 10 0 9
135 16 223 11 21 -2 37 2 37 8 0 6 -13 11 -29 11 -16 0 -31 4 -33 8 -1 5 -27
12 -56 15 -32 4 -50 2 -47 -3 4 -6 -1 -10 -10 -10 -9 0 -14 4 -10 9 8 14 -22
21 -90 20 -35 -1 -61 3 -63 10 -2 6 -16 11 -32 11 -16 0 -30 6 -33 13 -3 10
-11 10 -39 0 -46 -17 -75 -16 -82 2 -5 13 0 15 29 9 23 -4 35 -2 35 5 0 6 -9
11 -20 11 -11 0 -20 5 -20 10 0 6 -8 10 -18 10 -10 0 -24 9 -32 20 -8 11 -22
20 -32 20 -14 0 -18 8 -18 39 0 22 -6 42 -12 45 -10 5 -10 7 0 12 20 9 14 26
-8 19 -14 -5 -20 -2 -20 9 0 9 -4 16 -10 16 -5 0 -10 13 -10 29 0 16 -6 31
-12 33 -9 3 -8 9 4 21 14 14 38 17 132 17 109 0 116 1 116 20 0 16 7 20 30 20
17 0 30 5 30 10 0 6 9 10 20 10 11 0 20 5 20 10 0 6 9 10 20 10 11 0 20 5 20
10 0 6 14 10 30 10 22 0 30 5 30 18 0 10 9 24 20 32 12 8 20 26 20 42 0 15 5
28 10 28 6 0 10 7 10 16 0 36 29 48 116 48 46 -1 84 3 84 8 0 4 9 8 20 8 16 0
20 7 20 34 0 19 -4 38 -10 41 -19 12 -10 40 18 53 16 6 48 14 73 16 24 2 46 4
49 5 2 1 -5 8 -17 16 -12 8 -28 12 -37 9 -9 -3 -16 -1 -16 5 0 11 18 15 52 12
9 -1 19 3 23 9 3 5 20 10 36 10 20 0 29 4 27 13 -6 16 -54 24 -99 17 -41 -8
-111 -59 -105 -76 5 -12 -36 -24 -79 -24 -30 0 -42 30 -15 37 26 7 26 33 0 40
-11 3 -20 8 -20 12 0 3 9 12 20 19 11 7 20 21 20 32 0 11 5 20 10 20 6 0 10
14 10 30 0 23 4 30 20 30 11 0 20 5 20 10 0 6 -4 10 -10 10 -5 0 -10 5 -10 10
0 6 9 10 20 10 13 0 20 7 20 20 0 11 -4 20 -10 20 -5 0 -10 9 -10 20 0 11 5
20 10 20 14 0 13 97 -2 102 -21 7 0 41 22 35 11 -3 18 -1 14 4 -3 5 1 9 8 9 7
0 61 3 121 5 102 5 107 5 107 -14 0 -11 5 -23 10 -26 6 -4 10 5 10 19 0 20 10
31 48 50 26 14 43 25 39 26 -4 0 -3 9 3 19 7 14 7 22 -1 27 -8 4 -3 11 12 20
13 7 27 10 31 8 5 -3 8 0 8 5 0 10 -20 15 -47 12 -6 -1 -14 12 -18 28 -3 16
-12 34 -19 40 -7 6 -11 21 -9 34 4 20 11 23 51 24 46 0 110 19 100 29 -3 2
-48 7 -99 9 -52 3 -116 8 -144 11 -63 7 -58 7 -72 5 -6 0 -9 -10 -6 -21 4 -14
14 -20 34 -20 16 0 29 -4 29 -10 0 -5 12 -10 26 -10 29 0 54 -21 54 -44 0 -9
5 -16 10 -16 6 0 10 -33 10 -80 l0 -80 -29 0 c-16 0 -31 -4 -33 -10 -2 -6 -60
-11 -141 -12 l-137 -3 0 33 c0 25 -4 32 -20 32 -13 0 -20 7 -20 20 0 11 -4 20
-10 20 -5 0 -10 9 -10 20 0 11 -4 20 -10 20 -5 0 -10 18 -10 40 0 38 2 40 30
40 17 0 30 5 30 10 0 6 18 10 40 10 22 0 40 5 40 10 0 6 13 10 29 10 20 0 30
6 34 20 3 11 0 23 -5 26 -15 10 -88 10 -88 2 0 -18 -50 -6 -67 16 -15 19 -21
21 -31 10 -7 -8 -24 -14 -37 -14 -14 0 -25 -4 -25 -10 0 -11 -33 -13 -79 -4
-29 6 -43 28 -22 36 13 4 18 47 6 47 -5 0 -9 -6 -7 -14 1 -7 -4 -15 -13 -18
-9 -4 -12 -13 -8 -23 5 -14 2 -16 -23 -11 -16 3 -23 4 -16 1 17 -8 15 -28 -8
-69 -11 -19 -29 -52 -41 -72 -11 -21 -25 -42 -30 -48 -5 -5 -9 -19 -9 -31 0
-12 -5 -24 -11 -26 -5 -2 -7 -11 -4 -21 5 -12 14 -15 34 -11 14 4 31 9 36 13
6 3 17 4 25 3 8 -1 20 7 25 19 8 17 20 22 60 24 28 1 58 5 68 10 16 6 18 4 17
-16 -3 -36 -1 -45 9 -31 6 10 13 9 31 -6 41 -34 18 -42 -118 -41 -176 2 -172
2 -172 -21 0 -11 -4 -20 -9 -20 -5 0 -11 -9 -14 -20 -6 -23 -52 -28 -60 -7 -2
7 -8 8 -13 3 -5 -5 -4 -11 4 -13 6 -3 12 -14 12 -25 0 -17 -5 -20 -30 -14 -22
4 -30 2 -30 -8 0 -10 -13 -14 -45 -14 -34 1 -49 -4 -64 -20 -10 -12 -30 -22
-44 -22 -14 0 -29 -4 -32 -10 -7 -12 -35 -13 -35 -2 0 5 12 15 28 23 47 24 66
49 38 49 -20 0 -30 19 -28 52 1 15 -2 28 -8 28 -5 0 -10 5 -10 10 0 6 7 10 16
10 20 0 44 24 44 44 0 9 5 16 10 16 6 0 10 9 10 19 0 11 5 23 10 26 18 11 11
35 -10 35 -25 0 -26 12 -1 27 15 10 21 10 25 0 3 -7 3 0 0 15 -5 20 -1 28 15
33 12 3 21 13 21 21 0 8 5 14 10 14 6 0 10 11 10 25 0 14 -4 25 -10 25 -5 0
-10 5 -10 10 0 6 18 10 40 10 36 0 40 2 40 25 0 18 7 28 26 35 14 6 22 15 19
21 -4 5 3 18 14 28 12 10 21 26 21 35 0 9 8 16 20 16 11 0 20 5 20 10 0 6 -9
10 -20 10 -16 0 -20 7 -20 33 1 30 19 67 34 67 10 0 7 -29 -6 -50 -7 -10 -8
-23 -4 -27 5 -4 11 -2 13 5 3 6 13 12 24 12 20 0 26 15 9 25 -17 10 1 35 26
35 13 0 24 5 24 10 0 6 -7 10 -15 10 -20 0 -19 6 5 30 11 11 26 17 35 14 8 -4
15 -2 15 4 0 6 -5 12 -12 14 -14 5 3 54 30 85 24 27 42 60 42 78 0 8 9 15 20
15 11 0 20 5 20 10 0 6 -4 10 -10 10 -14 0 -13 41 3 73 9 20 17 25 34 21 14
-4 25 1 33 13 8 13 13 14 16 6 9 -20 24 -15 24 7 0 15 7 20 29 20 16 0 32 6
35 13 5 10 7 10 12 0 9 -20 24 -15 24 7 0 17 7 20 40 20 22 0 40 4 40 10 0 13
73 8 82 -5z m5400 -56 c13 -16 29 -29 36 -29 17 0 15 -29 -3 -36 -8 -4 -15
-14 -15 -23 0 -9 -23 -41 -50 -71 -48 -53 -51 -54 -104 -55 -30 0 -53 2 -50 4
2 2 -3 15 -12 28 -11 18 -12 28 -4 38 8 9 7 17 -5 28 -18 19 -20 31 -2 21 10
-6 10 -4 0 7 -20 20 -16 76 7 99 17 17 33 20 100 19 75 -1 80 -2 102 -30z
m-4382 -167 c19 -9 35 -23 36 -29 1 -7 2 -21 3 -32 0 -10 9 -22 19 -25 25 -9
55 -28 80 -52 21 -19 21 -22 6 -35 -18 -15 -79 -18 -106 -5 -13 6 -18 4 -18
-8 0 -21 -6 -20 -33 4 -12 12 -28 18 -37 14 -8 -4 -46 -9 -83 -13 -40 -4 -72
-12 -77 -20 -4 -8 -13 -11 -19 -7 -7 5 -9 1 -5 -9 4 -11 10 -12 18 -6 13 11
48 7 91 -9 38 -14 44 -13 55 15 9 24 50 37 50 16 0 -21 -13 -41 -26 -41 -8 0
-19 -9 -26 -20 -7 -11 -19 -20 -26 -20 -7 0 -20 -4 -30 -9 -9 -5 -25 -12 -36
-15 -15 -5 -16 -9 -6 -21 7 -9 10 -19 6 -22 -4 -4 -10 -3 -14 2 -4 6 -25 11
-47 12 -22 2 -43 9 -48 18 -4 9 -22 15 -40 15 -18 0 -37 4 -43 10 -9 9 -43 12
-99 7 -39 -3 -49 -37 -11 -37 38 0 32 -13 -19 -38 -25 -12 -45 -17 -45 -12 0
6 -13 10 -30 10 -19 0 -30 5 -30 14 0 16 21 26 55 26 29 0 39 14 27 37 -11 18
-42 27 -42 12 0 -6 -5 -7 -10 -4 -6 4 -17 2 -25 -5 -9 -7 -15 -8 -20 -1 -3 6
-27 10 -53 9 -28 -1 -63 6 -87 17 -52 24 -50 22 -31 40 18 18 21 35 6 35 -5 0
-10 -3 -10 -7 0 -18 -72 -13 -97 7 l-25 19 26 7 c13 3 29 3 35 0 18 -11 76 29
75 53 -1 21 11 25 78 25 9 0 15 3 12 8 -3 4 -1 8 5 8 5 0 11 -5 13 -11 2 -7
20 -5 52 6 26 9 54 14 62 11 8 -3 17 1 20 8 3 8 14 12 25 9 13 -4 19 0 19 10
0 24 18 30 50 15 30 -13 40 -28 19 -28 -5 0 -7 -4 -4 -10 10 -15 35 -12 35 5
0 8 7 15 14 15 8 0 27 11 42 25 26 24 32 25 158 24 101 0 139 -4 166 -17z
m-4495 -62 c3 -11 12 -20 20 -20 12 0 45 -56 45 -77 0 -4 9 -14 19 -20 11 -7
27 -28 35 -48 36 -80 45 -103 66 -155 12 -30 28 -58 35 -63 7 -4 16 -20 20
-36 3 -16 13 -35 21 -42 17 -14 19 -76 2 -82 -8 -2 -1 -14 20 -31 23 -20 32
-36 32 -59 0 -18 7 -41 15 -51 8 -11 15 -32 15 -47 0 -16 12 -40 30 -59 17
-18 27 -37 23 -44 -4 -6 -8 -18 -8 -26 0 -10 -8 -14 -27 -12 -20 3 -28 -1 -28
-12 0 -9 -5 -16 -11 -16 -6 0 -8 8 -4 20 3 10 2 27 -4 37 -5 10 -10 38 -12 63
-3 44 -8 63 -35 127 -8 17 -14 40 -14 51 0 11 -9 26 -20 33 -11 8 -22 28 -24
45 -2 18 -15 45 -30 60 -14 16 -27 34 -27 41 -3 27 -4 32 -11 39 -5 4 -8 17
-8 29 0 11 -4 25 -10 31 -5 5 -11 18 -13 29 -7 35 -20 59 -49 93 -15 18 -28
43 -28 55 0 15 -11 29 -30 40 -16 10 -30 27 -30 37 0 10 -4 22 -10 25 -14 8
-13 38 2 53 17 17 26 15 33 -8z m4965 -171 c0 -12 -60 -69 -74 -70 -20 -2 -31
-5 -49 -13 -11 -5 -23 -4 -30 3 -6 6 -18 11 -27 11 -9 0 -25 7 -36 14 -19 15
-18 15 6 40 23 23 32 25 118 24 50 0 92 -4 92 -9z m3346 -38 c7 -12 25 -37 42
-54 34 -37 34 -59 -2 -96 -14 -15 -26 -37 -26 -48 0 -12 -5 -25 -10 -28 -6 -4
-19 -23 -29 -43 -11 -20 -38 -57 -60 -82 -23 -24 -41 -50 -41 -57 0 -8 -7 -16
-16 -20 -8 -3 -13 -12 -10 -19 3 -7 1 -16 -3 -19 -13 -7 -24 -110 -22 -193 1
-40 -2 -87 -8 -105 -9 -31 -17 -78 -27 -162 -7 -66 -25 -135 -35 -135 -5 0 -9
-6 -9 -13 0 -8 -11 -24 -24 -36 -18 -17 -25 -19 -29 -9 -7 16 -46 -28 -47 -52
-1 -28 -68 -62 -118 -59 -26 1 -57 -3 -70 -10 -13 -7 -30 -10 -38 -7 -16 6
-19 42 -4 51 6 3 10 43 9 88 -1 82 3 98 44 158 10 14 15 33 12 40 -3 9 9 29
30 49 32 31 36 33 62 20 20 -9 24 -14 13 -18 -26 -8 -39 -23 -33 -38 13 -33
53 -1 49 40 -2 15 2 30 8 34 14 9 56 86 56 103 0 8 14 28 30 46 17 18 30 37
30 43 0 11 80 171 91 180 3 3 11 21 18 40 7 19 17 44 21 55 4 11 13 34 20 52
6 17 20 39 30 48 10 9 16 23 14 30 -3 7 5 24 18 37 20 20 23 34 26 121 4 100
14 117 38 68z m-2436 -456 c6 -4 16 -19 21 -33 9 -24 11 -25 20 -9 12 20 29
23 29 5 0 -24 -69 -61 -121 -66 -41 -4 -52 -1 -64 14 -8 11 -13 24 -10 30 2 7
-4 10 -16 7 -19 -5 -49 12 -49 28 0 5 8 9 18 9 10 0 22 4 28 9 17 17 120 21
144 6z m380 -25 c0 -5 9 -10 20 -10 11 0 20 5 20 10 0 6 18 10 40 10 22 0 40
-4 40 -10 0 -5 14 -10 30 -10 17 0 30 -4 30 -10 0 -5 21 -10 46 -10 46 0 74
-16 74 -42 0 -8 9 -20 20 -28 11 -8 20 -22 20 -32 0 -10 5 -18 10 -18 6 0 10
-27 10 -60 0 -33 4 -60 10 -60 6 0 10 -9 10 -20 0 -11 5 -20 10 -20 6 0 10 -9
10 -20 0 -11 5 -20 10 -20 6 0 10 -9 10 -20 0 -11 5 -20 10 -20 6 0 10 -18 10
-40 0 -22 -4 -40 -10 -40 -5 0 -10 -9 -10 -20 0 -11 -4 -20 -10 -20 -6 0 -10
-27 -10 -60 0 -33 -4 -60 -10 -60 -6 0 -10 -29 -10 -68 0 -56 -3 -70 -20 -82
-14 -10 -20 -26 -20 -52 0 -21 -4 -38 -10 -38 -5 0 -10 5 -10 10 0 6 -7 10
-16 10 -18 0 -44 23 -44 40 0 17 26 40 44 40 12 0 16 11 16 50 0 28 -4 50 -10
50 -14 0 -12 37 3 44 10 5 10 7 0 12 -7 3 -13 12 -13 21 0 34 -26 43 -130 43
-94 0 -103 -2 -125 -25 -14 -13 -25 -31 -25 -40 0 -8 -9 -15 -20 -15 -17 0
-20 7 -20 40 0 33 -3 40 -20 40 -13 0 -20 7 -20 20 0 11 -4 20 -10 20 -6 0
-10 29 -10 66 0 57 -3 67 -20 71 -20 5 -28 23 -10 23 6 0 9 25 9 57 -1 35 3
59 10 61 6 2 11 21 11 43 0 21 5 39 10 39 6 0 10 8 10 18 0 10 9 24 20 32 15
11 20 26 20 62 0 26 5 48 10 48 6 0 10 -4 10 -10z m-5359 -45 c22 -46 49 -60
49 -25 0 27 14 25 33 -4 23 -35 30 -76 11 -69 -15 5 -20 -18 -6 -31 4 -4 8
-24 8 -44 2 -47 25 -112 41 -112 16 0 26 -17 14 -24 -10 -6 -61 38 -61 53 0 6
-6 14 -12 18 -17 11 -63 102 -55 110 4 3 -4 20 -16 37 -24 34 -47 91 -47 119
0 31 19 18 41 -28z m6669 -50 c0 -14 4 -25 8 -25 4 0 6 -16 4 -35 -2 -19 -8
-35 -13 -35 -5 0 -9 -8 -9 -19 0 -24 -25 -45 -44 -38 -11 4 -13 1 -9 -10 5
-12 2 -15 -9 -10 -9 3 -26 -3 -39 -14 -17 -15 -25 -17 -36 -7 -13 10 -13 13
-1 18 7 3 13 14 13 25 0 11 3 28 8 38 6 14 3 17 -18 17 -28 0 -34 25 -12 62
26 47 61 62 51 23 -8 -33 6 -32 41 5 36 38 65 40 65 5z m-7135 -145 c24 -16
48 -30 54 -30 6 0 11 -12 11 -26 0 -29 19 -53 38 -46 8 2 12 -8 12 -32 0 -19
4 -37 9 -40 4 -3 11 -23 15 -44 3 -22 13 -45 21 -52 8 -7 15 -22 15 -33 0 -11
3 -17 6 -14 12 11 44 -13 44 -33 0 -12 7 -20 16 -20 12 0 15 -6 10 -24 -8 -31
3 -59 20 -52 20 8 29 -15 11 -26 -14 -7 -14 -13 -4 -36 19 -44 47 -57 47 -22
0 11 -4 20 -10 20 -5 0 -10 5 -10 10 0 6 6 10 14 10 15 0 32 -37 22 -47 -3 -4
2 -18 11 -32 9 -14 17 -39 18 -56 0 -17 5 -29 12 -28 18 4 31 -20 37 -67 2
-25 5 -47 5 -49 1 -2 8 2 16 9 8 7 22 10 31 6 21 -8 14 -50 -9 -54 -11 -2 -27
-12 -38 -23 -12 -12 -33 -19 -58 -19 -32 0 -41 4 -46 23 -4 12 -17 31 -30 42
-12 11 -30 35 -40 54 -10 19 -27 43 -39 52 -21 17 -21 17 -2 38 15 16 17 24 8
33 -9 9 -9 15 1 26 10 13 8 14 -11 8 -27 -9 -53 9 -45 30 5 12 -7 19 -29 15
-5 0 -8 7 -8 17 0 10 -12 25 -27 33 -16 8 -35 21 -43 30 -8 9 -25 19 -37 23
-13 4 -23 12 -23 18 0 5 -6 24 -14 41 -23 52 -36 98 -36 128 0 18 -8 34 -20
41 -14 9 -20 24 -20 50 0 21 -3 38 -7 38 -13 0 -32 49 -22 56 5 3 9 12 9 20 0
18 40 63 58 63 7 1 33 -12 57 -29z m805 -257 c0 -7 5 -13 10 -13 6 0 10 -9 10
-20 0 -11 -4 -20 -10 -20 -18 0 -11 -24 15 -52 32 -35 31 -39 -5 -32 -36 8
-51 -17 -28 -44 8 -9 18 -25 21 -34 7 -20 32 -24 42 -8 3 6 1 10 -4 10 -6 0
-11 4 -11 10 0 5 7 7 15 4 8 -4 15 -15 15 -25 0 -11 7 -19 16 -19 11 0 14 -5
10 -16 -4 -12 -2 -15 9 -10 9 3 15 0 15 -9 0 -8 5 -15 10 -15 6 0 10 -9 10
-19 0 -11 5 -23 10 -26 20 -12 10 -35 -15 -35 -16 0 -25 6 -25 15 0 8 -7 15
-15 15 -9 0 -21 11 -27 25 -6 14 -17 25 -25 25 -7 0 -13 5 -13 10 0 6 -9 10
-19 10 -33 0 -51 11 -51 31 0 17 -32 73 -51 89 -16 14 -36 98 -27 114 9 16 11
15 24 -9 8 -15 14 -32 14 -38 0 -13 31 -36 50 -37 11 0 11 3 2 12 -7 7 -12 22
-12 35 0 13 -4 23 -10 23 -5 0 -10 9 -10 20 0 11 -4 20 -10 20 -5 0 -10 12
-10 26 0 14 4 23 8 20 4 -2 14 -1 22 4 16 10 50 -15 50 -37z m102 -29 c2 -9
26 -29 53 -44 40 -23 49 -33 47 -51 -3 -17 0 -20 13 -15 10 4 25 -4 40 -20 24
-26 25 -50 2 -38 -7 3 0 -6 16 -20 15 -14 27 -32 27 -41 0 -8 5 -15 10 -15 6
0 10 -7 10 -15 0 -19 -4 -19 -46 1 -32 16 -38 24 -35 51 1 7 -8 17 -19 23 -11
6 -20 20 -20 30 0 11 -6 20 -14 20 -7 0 -16 9 -19 20 -3 11 -17 24 -31 30 -39
14 -86 67 -86 94 0 14 49 5 52 -10z m6133 -56 c-4 -13 -9 -46 -11 -75 -2 -45
0 -52 19 -57 18 -5 19 -8 8 -15 -12 -8 -12 -12 -2 -25 15 -18 35 -11 27 9 -5
15 12 35 31 35 9 0 13 -18 13 -65 0 -64 0 -64 -32 -73 -33 -8 -33 -9 -10 -21
19 -10 21 -14 8 -26 -25 -26 -1 -196 26 -179 4 3 8 36 8 75 l0 69 60 0 60 0 2
48 c1 26 1 57 1 69 -2 26 31 37 49 16 9 -11 24 -14 58 -9 52 7 82 -6 62 -26
-6 -6 -12 -27 -12 -45 0 -19 -6 -36 -17 -41 -11 -7 -14 -15 -8 -28 7 -18 7
-18 15 1 5 11 9 14 9 8 1 -7 10 -13 21 -13 17 0 20 -7 20 -40 0 -22 4 -40 9
-40 15 0 22 -49 11 -70 -9 -16 -8 -22 5 -26 36 -14 -6 -68 -70 -90 -11 -3 -39
-15 -63 -26 -60 -28 -104 -39 -197 -48 -110 -10 -160 -27 -198 -67 -17 -19
-56 -57 -84 -85 -29 -28 -53 -60 -53 -70 0 -15 -5 -18 -20 -13 -15 5 -20 2
-20 -12 0 -11 -7 -28 -15 -39 -8 -10 -24 -38 -34 -61 -11 -24 -25 -43 -30 -43
-6 0 -11 -9 -11 -20 0 -11 -4 -20 -9 -20 -5 0 -7 -9 -4 -19 3 -10 -2 -30 -10
-42 -8 -13 -18 -39 -22 -56 -4 -18 -11 -35 -16 -39 -5 -3 -18 -25 -29 -50 -11
-24 -29 -64 -40 -89 -11 -25 -25 -45 -30 -45 -6 0 -10 -11 -10 -24 0 -13 -4
-26 -9 -28 -18 -6 -82 -112 -90 -150 -10 -43 -31 -63 -72 -72 -17 -3 -29 -13
-33 -29 -5 -22 -11 -24 -68 -25 -105 -1 -138 -5 -136 -16 4 -23 -24 -86 -39
-86 -12 0 -13 3 -4 14 10 12 8 17 -10 26 -16 9 -19 14 -9 20 21 13 22 42 2 38
-9 -2 -17 -8 -18 -13 -4 -44 -40 -85 -76 -85 -39 0 -36 22 10 58 28 24 34 33
25 43 -9 9 -18 5 -39 -16 -31 -31 -94 -68 -102 -60 -3 3 3 12 14 20 10 8 16
15 12 15 -4 0 -3 11 2 24 5 15 6 47 1 78 -7 43 -6 54 8 64 19 15 13 23 -18 26
-19 3 -26 -5 -39 -39 -9 -24 -22 -43 -30 -43 -8 0 -12 -6 -9 -14 5 -13 -12
-27 -38 -31 -54 -7 -88 -21 -104 -41 -24 -30 -31 -30 -31 -1 0 13 -4 27 -9 33
-16 17 -23 82 -9 90 6 4 14 2 16 -4 2 -7 8 -12 13 -12 15 0 10 42 -11 85 -11
22 -19 48 -20 58 0 9 -7 17 -15 17 -21 0 -31 30 -14 41 8 5 23 9 35 9 11 0 29
8 38 19 14 15 31 19 101 18 53 0 85 -4 85 -10 0 -7 5 -6 12 1 15 15 -13 39
-56 49 -16 3 -31 14 -33 24 -4 12 -17 19 -42 21 l-36 4 30 12 c57 23 75 35 75
50 0 8 31 45 69 83 38 38 71 76 75 84 4 12 29 20 57 17 3 -1 18 10 34 24 15
13 31 24 35 24 4 0 10 8 14 18 3 9 9 23 12 31 5 10 -1 13 -25 9 -25 -4 -31 -1
-31 14 0 10 -4 18 -10 18 -5 0 -10 -7 -10 -15 0 -8 -5 -15 -11 -15 -7 0 -9 10
-5 26 6 24 5 25 -9 11 -8 -9 -15 -20 -15 -26 0 -6 -6 -8 -14 -5 -8 3 -24 1
-35 -6 -14 -7 -21 -7 -21 0 0 5 6 10 13 10 7 0 26 16 41 35 16 19 32 33 36 30
5 -3 12 5 16 17 4 13 2 24 -5 26 -17 6 -14 79 5 90 8 5 21 20 28 33 7 13 20
23 29 23 10 -1 24 11 33 27 13 27 19 29 69 29 30 0 65 5 77 11 18 8 34 7 65
-4 40 -14 43 -13 64 9 12 13 28 24 36 24 7 0 13 3 13 8 0 11 51 29 89 31 44 2
45 4 29 31 -12 19 -10 24 22 53 20 18 34 39 32 49 -2 10 2 18 7 18 6 0 11 5
11 12 0 16 40 58 56 58 6 0 14 10 17 21 4 15 11 20 23 15 10 -4 25 1 35 10 21
19 104 23 121 6 6 -6 33 -4 76 5 48 11 67 12 70 4 5 -16 22 -13 22 4 0 8 5 15
11 15 6 0 8 7 5 17 -4 9 -1 20 6 24 26 16 -4 21 -112 20 -65 0 -110 3 -110 9
0 6 4 10 9 10 15 0 22 32 10 46 -13 15 -34 19 -25 5 3 -5 1 -23 -5 -40 -11
-32 -38 -41 -67 -22 -10 6 -10 10 2 21 9 7 13 16 10 22 -3 5 -11 5 -19 -2 -9
-8 -14 -6 -19 5 -7 18 2 45 16 45 13 0 38 26 38 40 0 6 7 13 15 16 8 4 15 12
15 19 0 6 9 20 20 30 11 10 20 24 20 30 0 22 33 28 47 9 10 -13 9 -21 -2 -38
-21 -30 -18 -45 10 -52 14 -3 25 -10 25 -15 0 -5 7 -9 15 -9 17 0 20 -16 5
-25 -6 -4 -8 -11 -5 -16 4 -5 -8 -9 -24 -9 -48 0 -38 -26 13 -36 25 -4 36 15
36 62 0 12 7 34 15 50 11 21 11 31 3 42 -9 10 -8 12 2 10 7 -2 24 16 37 40 26
45 51 58 38 20z m-4957 -240 c2 -19 11 -29 33 -37 31 -11 42 -51 14 -51 -8 0
-15 5 -15 11 0 7 -8 9 -22 4 -60 -19 -147 8 -133 42 3 9 0 20 -7 24 -19 12 -3
22 44 26 24 3 45 7 47 9 13 13 36 -4 39 -28z m2802 -18 c0 -5 -3 -9 -7 -9 -20
3 -34 -2 -28 -11 8 -13 45 -13 45 -1 0 6 8 9 18 9 9 0 25 3 34 7 11 4 21 0 30
-14 7 -12 22 -21 32 -21 17 0 16 -4 -10 -29 -23 -23 -35 -27 -61 -24 -18 3
-33 8 -33 12 0 3 -24 6 -52 5 -29 -1 -70 2 -91 6 -23 5 -39 4 -43 -2 -4 -7
-10 -4 -16 6 -5 9 -16 16 -23 16 -8 0 -15 6 -15 14 0 8 10 14 23 14 31 0 71
10 75 20 4 12 122 14 122 2z m1725 -117 c-6 -27 -72 -97 -114 -121 -12 -7 -31
-10 -41 -7 -13 4 -32 -3 -53 -19 -32 -24 -67 -34 -67 -20 0 4 16 32 36 62 29
43 34 56 23 63 -11 7 -9 10 8 15 11 3 23 14 26 24 5 20 25 24 126 28 l63 2 -7
-27z m-5652 -45 c3 -10 9 -10 27 0 19 12 24 11 36 -5 7 -10 14 -14 14 -10 0
13 83 -75 98 -105 8 -14 12 -34 10 -44 -3 -16 -12 -19 -57 -18 -34 1 -59 8
-69 18 -15 15 -13 16 28 16 43 0 44 0 22 16 -12 8 -27 12 -32 9 -6 -3 -10 -1
-10 4 0 6 -7 11 -15 11 -9 0 -35 9 -57 20 -23 11 -59 20 -80 20 -21 0 -38 5
-38 11 0 6 16 8 40 6 45 -5 65 11 55 43 -4 14 -2 20 8 20 9 0 17 -6 20 -12z
m-238 -219 c44 1 86 -2 92 -7 7 -4 59 -3 115 3 114 13 224 0 256 -29 11 -9 36
-16 60 -16 43 0 55 -12 25 -25 -31 -13 -67 -14 -80 -3 -13 10 -22 9 -118 -12
-53 -11 -95 -6 -107 13 -4 6 -10 8 -15 4 -12 -12 11 -41 41 -52 19 -6 33 -6
46 3 24 14 74 16 99 2 12 -6 30 -6 50 0 21 6 41 5 57 -2 25 -12 31 -24 14 -30
-6 -2 -11 -18 -13 -36 -2 -31 -17 -47 -17 -17 0 11 -11 15 -41 15 -36 0 -40
-2 -34 -20 7 -22 14 -22 -262 -21 -45 1 -85 -4 -88 -9 -11 -19 -252 -6 -272
14 -9 8 11 36 26 36 9 0 22 5 29 12 9 9 15 9 24 0 7 -7 26 -12 43 -12 18 0 35
-3 38 -7 4 -3 30 -8 59 -10 56 -4 97 14 84 35 -10 17 -36 15 -58 -5 -12 -11
-18 -12 -18 -4 0 7 -10 12 -22 11 -38 -3 -50 -1 -43 10 3 5 20 9 38 7 26 -2
33 2 35 19 2 12 13 25 25 29 16 5 4 10 -48 20 -38 7 -62 13 -52 14 9 0 17 5
17 10 0 5 2 15 5 23 4 9 -7 14 -37 16 -55 3 -78 11 -78 24 0 6 9 8 23 3 12 -4
58 -6 102 -6z m710 -161 c4 -4 14 -4 23 -1 11 3 9 -2 -6 -16 l-23 -20 21 -23
21 -23 -28 -12 c-37 -15 -116 -10 -148 11 -14 9 -25 19 -25 22 0 11 29 34 44
34 9 0 16 6 16 14 0 19 89 31 105 14z m-325 -108 c0 -17 -83 -33 -185 -35 -55
-1 -118 -8 -141 -15 -38 -13 -43 -12 -65 9 -16 15 -31 20 -44 16 -29 -9 -226
-11 -232 -2 -4 7 11 10 40 7 10 -1 24 3 30 8 7 6 96 9 217 8 169 -1 336 4 373
12 4 1 7 -2 7 -8z m5785 -150 c0 -1 20 -7 45 -13 45 -12 45 -12 42 -51 -2 -22
-21 -73 -42 -113 -34 -64 -36 -73 -20 -73 19 0 22 -11 35 -131 5 -46 3 -58 -9
-62 -9 -4 -16 -1 -16 5 0 6 -2 9 -5 7 -2 -3 -1 -18 4 -35 5 -20 4 -38 -6 -57
-10 -19 -12 -42 -7 -74 5 -34 4 -44 -5 -39 -9 6 -10 -5 -5 -41 5 -41 3 -53
-12 -68 -14 -14 -19 -35 -21 -79 -2 -83 -13 -146 -25 -146 -6 0 -7 -11 -4 -25
8 -32 -3 -32 -29 1 -15 18 -28 25 -45 22 -25 -4 -25 -4 8 -25 30 -18 32 -22
17 -31 -15 -8 -16 -15 -8 -38 13 -42 7 -57 -38 -93 -38 -31 -77 -38 -71 -13 1
9 -8 8 -34 -3 -47 -19 -68 -19 -60 0 3 10 -1 15 -12 16 -9 1 -32 3 -49 5 -18
2 -33 0 -33 -5 0 -17 -59 -33 -96 -27 -22 5 -41 3 -50 -5 -7 -6 -21 -8 -30 -5
-9 4 -23 1 -30 -5 -8 -6 -22 -8 -31 -4 -10 4 -40 9 -66 12 -43 3 -49 1 -54
-18 -5 -17 -11 -20 -34 -15 -25 5 -29 2 -29 -16 0 -20 44 -71 53 -62 3 3 16 7
31 9 14 3 37 7 51 9 29 5 34 -13 6 -21 -11 -3 -22 -11 -25 -19 -4 -10 0 -11
20 -4 36 14 47 12 40 -5 -6 -16 25 -28 60 -25 11 1 25 2 32 1 14 -1 17 -51 2
-51 -5 0 -10 -7 -10 -16 0 -8 -5 -12 -11 -9 -5 4 -26 -1 -45 -10 -19 -9 -42
-15 -52 -13 -10 1 -31 -7 -46 -20 -29 -23 -20 -30 15 -12 11 6 25 8 31 4 20
-13 59 -13 86 -1 27 11 37 14 58 16 14 1 47 50 47 68 0 7 9 13 19 13 12 0 18
-7 18 -24 0 -14 -4 -28 -10 -31 -5 -3 -10 -18 -10 -33 0 -33 11 -23 47 47 26
50 77 95 96 84 4 -2 7 -18 7 -34 0 -16 7 -41 17 -55 15 -24 15 -27 -5 -63 -12
-21 -22 -54 -22 -72 0 -47 -38 -99 -72 -99 -16 0 -28 -4 -28 -8 0 -10 -65 -42
-86 -42 -16 0 -56 -78 -48 -92 3 -4 12 -8 20 -8 12 0 18 18 17 56 0 6 24 14
56 18 115 13 105 16 112 -32 3 -24 2 -45 -3 -48 -4 -3 -8 -13 -8 -22 0 -10
-20 -35 -44 -56 -24 -21 -46 -50 -49 -64 -4 -15 -18 -40 -32 -56 -14 -16 -25
-33 -25 -38 0 -4 -6 -8 -14 -8 -8 0 -25 -15 -37 -32 -13 -18 -29 -37 -36 -41
-7 -4 -22 -26 -33 -47 -22 -43 -50 -63 -74 -54 -12 5 -16 0 -16 -19 0 -14 -5
-27 -10 -29 -6 -2 -11 -19 -12 -39 -1 -35 -28 -66 -47 -55 -4 3 -9 -15 -9 -40
-2 -36 -8 -50 -35 -74 -17 -16 -38 -30 -44 -30 -7 0 -13 -4 -13 -10 0 -5 -6
-10 -14 -10 -8 0 -16 -7 -20 -15 -7 -18 -26 -20 -26 -2 0 6 7 25 15 41 8 15
15 37 15 47 0 35 -28 20 -64 -35 -58 -88 -86 -87 -81 4 3 57 -6 83 -20 60 -4
-6 -11 -7 -17 -4 -6 4 -8 2 -5 -3 4 -6 0 -16 -8 -23 -8 -7 -12 -17 -8 -24 13
-19 11 -34 -3 -40 -8 -3 -14 -2 -14 3 0 16 -55 9 -75 -9 -28 -25 -55 -22 -55
6 0 16 10 28 28 38 25 13 28 19 24 53 -3 21 -9 41 -15 44 -13 9 -19 97 -7 104
7 4 6 13 -1 26 -20 38 -32 116 -18 124 5 4 5 14 -2 26 -15 29 -2 57 29 61 18
2 28 10 30 23 5 38 25 95 34 95 4 0 8 48 7 106 0 103 1 108 29 148 16 23 38
42 48 44 15 2 19 12 21 47 1 27 10 56 22 74 12 16 21 37 21 46 0 22 47 83 71
90 17 6 18 13 13 63 -4 31 -10 62 -14 67 -9 13 8 75 20 75 6 0 10 -4 10 -10 0
-5 8 -10 18 -10 13 1 11 6 -13 28 -19 18 -29 35 -27 49 2 12 -4 34 -14 48 -16
24 -16 26 2 40 10 8 27 15 37 15 25 0 67 29 67 46 0 8 7 17 15 20 8 4 15 14
15 24 0 10 9 22 20 25 11 3 20 11 20 17 0 7 15 9 41 5 22 -3 38 -3 35 0 -10
10 44 45 61 39 8 -4 22 -1 29 5 11 9 14 8 14 -4 0 -8 9 -17 20 -20 11 -3 20
-10 20 -17 0 -6 -5 -8 -11 -4 -8 5 -10 0 -6 -17 5 -21 1 -27 -24 -36 -29 -11
-33 -37 -6 -31 7 1 35 -10 64 -25 29 -15 58 -27 65 -27 7 0 38 -12 68 -27 30
-14 62 -29 70 -33 8 -4 23 -2 32 4 13 8 23 8 36 -1 22 -13 67 -6 83 13 9 11
15 12 26 3 19 -17 22 -9 16 39 -4 32 -10 42 -24 42 -10 0 -20 4 -24 9 -3 5
-19 12 -36 16 -23 5 -29 11 -27 28 2 16 -3 23 -19 25 -18 3 -23 -2 -23 -17 0
-12 -6 -21 -15 -21 -9 0 -15 9 -15 24 0 17 7 26 26 30 20 5 24 10 15 19 -8 8
-14 8 -23 -1 -8 -8 -17 -6 -36 8 -13 11 -29 17 -35 13 -6 -3 -7 -1 -3 5 4 6
14 8 24 5 14 -5 14 -3 -2 9 -12 10 -17 21 -13 32 8 21 -9 56 -28 56 -7 0 -16
6 -19 13 -5 10 -7 10 -12 0 -3 -7 -12 -13 -20 -13 -12 0 -13 8 -8 38 4 20 11
39 15 40 5 2 9 12 9 23 0 10 3 19 8 19 8 0 32 49 32 67 0 7 5 13 10 13 6 0 10
13 10 28 0 16 8 34 20 42 11 8 20 22 20 32 0 10 5 18 10 18 6 0 10 9 10 20 0
11 5 20 10 20 6 0 10 9 10 20 0 11 5 20 10 20 6 0 10 9 10 20 0 11 5 20 10 20
6 0 10 14 10 30 0 17 5 30 10 30 6 0 10 9 10 20 0 11 5 20 10 20 6 0 10 14 10
30 0 17 5 30 10 30 6 0 10 13 10 28 0 16 8 34 20 42 11 8 20 20 20 27 0 15 31
48 51 55 12 4 114 2 114 -2z m-1805 -360 c0 -5 13 -10 29 -10 17 0 33 -4 36
-10 3 -5 17 -10 29 -10 13 0 29 -7 36 -15 21 -25 -11 -45 -74 -45 -49 0 -56
-2 -56 -20 0 -13 -7 -20 -20 -20 -11 0 -20 -4 -20 -10 0 -5 -13 -10 -30 -10
-28 0 -30 -2 -30 -40 0 -33 -3 -40 -20 -40 -12 0 -20 -7 -20 -16 0 -15 -23
-44 -34 -44 -10 0 -6 39 4 45 15 9 12 64 -4 81 -8 8 -22 14 -31 14 -9 0 -15 6
-12 13 2 6 9 12 15 12 5 0 14 3 18 8 4 4 16 7 26 7 10 0 18 5 18 10 0 6 9 10
20 10 11 0 20 5 20 10 0 6 7 10 15 10 20 0 65 45 65 65 0 8 5 15 10 15 6 0 10
-4 10 -10z m442 -237 c18 -16 23 -48 12 -77 -8 -20 -41 -21 -61 0 -22 21 -37
3 -28 -34 5 -23 10 -29 26 -25 10 3 19 1 19 -5 0 -5 -9 -12 -20 -15 -15 -4
-31 6 -59 34 -21 22 -51 43 -67 48 -35 9 -39 36 -5 37 13 1 27 7 31 14 4 7 14
10 21 8 8 -3 19 2 25 9 8 12 16 9 43 -16 41 -38 44 -38 26 -4 -11 21 -12 29
-2 35 17 11 18 10 39 -9z m-3064 -132 c7 -1 10 -6 7 -11 -4 -6 -1 -17 5 -25 8
-9 8 -15 2 -15 -6 0 -12 5 -14 12 -9 25 -38 -1 -38 -35 0 -32 -1 -34 -37 -33
-21 1 -38 -3 -38 -9 0 -5 9 -8 19 -6 21 3 66 -18 66 -31 0 -4 -16 -8 -35 -8
-19 0 -35 5 -35 10 0 6 -18 10 -40 10 -33 0 -40 3 -40 20 0 13 -7 20 -20 20
-11 0 -20 5 -20 10 0 6 15 10 34 10 19 0 38 5 41 10 3 6 15 10 27 10 17 0 20
4 15 29 -3 16 -4 31 -2 33 4 3 50 3 103 -1z m75 -25 c8 -8 28 -14 44 -14 56 2
72 -28 28 -52 -14 -7 -25 -19 -25 -27 0 -7 -13 -16 -30 -19 -27 -6 -30 -10
-30 -45 0 -22 5 -39 10 -39 6 0 10 -4 10 -10 0 -5 -9 -10 -20 -10 -11 0 -20 5
-20 10 0 6 -9 10 -20 10 -12 0 -20 -7 -20 -16 0 -11 -5 -14 -16 -10 -9 3 -36
6 -60 6 -36 0 -44 3 -44 18 0 15 8 19 43 20 75 3 97 11 97 37 0 13 -4 27 -10
30 -15 9 -12 51 4 68 9 8 12 24 9 36 -4 16 -1 21 15 21 11 0 27 -6 35 -14z
m200 -108 c12 -7 28 -21 35 -30 7 -10 21 -18 30 -18 16 -1 16 -2 0 -14 -26
-19 -22 -26 14 -26 l33 0 -39 -21 c-41 -22 -86 -19 -86 5 0 16 -42 36 -75 36
-13 0 -27 5 -31 12 -9 15 42 59 60 52 8 -3 17 -1 21 5 8 14 10 14 38 -1z
m-1193 -103 c0 -32 26 -50 67 -46 26 2 44 -4 72 -26 20 -16 44 -32 54 -36 22
-8 22 -50 1 -72 -22 -21 -28 -105 -8 -105 8 0 14 -4 14 -10 0 -5 -17 -10 -38
-10 -24 0 -47 -7 -60 -19 -30 -25 -28 -27 18 -23 35 4 40 1 40 -16 0 -11 -9
-23 -19 -27 -10 -3 -21 -14 -24 -24 -3 -14 4 -22 30 -32 24 -9 32 -17 27 -28
-4 -9 -9 -26 -11 -38 -4 -17 -15 -24 -48 -29 l-43 -6 -7 -58 -7 -58 -40 -5
c-22 -3 -53 -1 -69 5 -24 8 -34 7 -48 -6 -16 -15 -20 -15 -31 -1 -11 13 -15
13 -40 -5 -23 -16 -30 -17 -46 -6 -28 19 -74 29 -74 15 0 -18 39 -47 73 -55
18 -3 37 -10 43 -15 20 -16 108 -28 121 -17 8 6 33 7 64 3 48 -7 50 -6 40 13
-12 23 -6 32 26 32 16 0 23 -6 23 -19 0 -16 10 -20 70 -26 50 -5 70 -11 70
-21 0 -8 -10 -14 -26 -14 -16 0 -37 -11 -51 -26 -27 -30 -22 -45 9 -25 14 9
23 10 31 2 6 -6 25 -11 41 -11 28 -1 29 -2 14 -14 -28 -20 -9 -106 23 -106 23
0 24 -7 4 -27 -9 -8 -15 -23 -13 -32 3 -13 17 -16 70 -17 86 -2 96 -6 100 -46
2 -25 9 -34 28 -38 18 -4 25 -12 25 -30 0 -21 -4 -24 -25 -22 -63 7 -73 6 -84
-10 -21 -33 5 -42 76 -26 71 15 98 13 98 -8 0 -8 9 -14 20 -14 15 0 20 -7 20
-25 0 -27 14 -33 27 -11 4 7 21 15 37 18 41 8 82 -32 65 -63 -8 -15 -8 -24 0
-32 6 -6 11 -23 11 -37 0 -14 5 -31 12 -38 9 -9 9 -12 -3 -12 -7 0 -19 -11
-26 -25 -10 -22 -9 -25 7 -25 30 0 42 -24 21 -42 -17 -14 -20 -14 -35 3 -9 11
-16 24 -16 30 0 5 -4 7 -10 4 -5 -3 -10 -22 -10 -41 0 -34 -1 -35 -32 -32 -23
2 -32 8 -31 18 2 8 -11 24 -27 35 -17 11 -30 26 -30 33 0 6 -4 12 -10 12 -15
0 -12 -21 7 -42 14 -16 15 -21 4 -27 -8 -5 -10 -14 -7 -20 4 -6 0 -12 -8 -12
-42 -4 -42 -3 -31 -38 10 -32 -4 -43 -43 -32 -34 10 -44 -3 -20 -27 16 -16
-13 -47 -36 -39 -18 7 -22 37 -5 37 6 0 9 6 6 14 -3 8 -1 17 6 20 7 2 2 5 -10
5 -13 1 -23 6 -23 12 0 5 -4 8 -9 5 -4 -3 -15 2 -24 12 -9 9 -36 38 -60 64
-25 26 -47 44 -51 41 -3 -4 2 -15 11 -25 10 -11 18 -30 18 -43 1 -13 7 -31 15
-40 10 -11 10 -19 2 -27 -17 -17 -63 7 -87 44 -28 45 -49 49 -40 9 7 -35 5
-36 -44 -19 -34 12 -58 34 -73 68 -6 13 -7 13 -7 -1 -1 -9 -14 -22 -30 -29
-24 -10 -33 -9 -55 5 -13 9 -40 19 -58 22 -34 5 -64 23 -38 23 7 0 24 9 36 21
20 19 22 19 38 3 15 -15 22 -15 56 -4 24 8 62 11 99 7 34 -3 61 -2 61 3 0 22
-35 32 -110 32 -44 -1 -80 3 -80 8 0 4 5 10 12 12 14 5 -21 48 -39 48 -7 0
-13 -11 -13 -25 0 -31 -30 -51 -91 -59 -36 -5 -50 -3 -62 9 -9 9 -31 22 -49
30 -27 11 -29 14 -11 15 12 0 25 5 28 10 3 6 44 10 91 10 54 0 83 4 79 10 -3
6 -17 10 -30 10 -13 0 -27 4 -30 10 -3 5 1 10 9 10 9 0 16 4 16 8 0 5 -13 7
-29 4 -20 -3 -28 -8 -24 -18 3 -8 0 -14 -6 -14 -6 0 -11 5 -11 10 0 14 -67 13
-76 -1 -4 -7 -10 -7 -16 -1 -6 6 -16 8 -22 6 -6 -2 -17 9 -23 26 -12 31 -1 42
15 15 7 -14 10 -13 26 3 16 19 16 20 -9 26 -21 5 -24 11 -19 31 5 21 2 25 -14
25 -12 0 -24 5 -27 10 -3 6 0 10 9 10 8 0 17 6 20 13 5 10 7 10 12 0 6 -15 64
-18 64 -4 0 5 -9 11 -20 14 -39 10 -22 33 33 44 72 15 227 15 255 1 16 -8 25
-9 33 -1 16 16 2 33 -26 33 -13 0 -27 5 -31 11 -4 8 -9 8 -17 0 -6 -6 -31 -11
-55 -11 -35 0 -45 4 -49 19 -6 24 -61 22 -75 -3 -6 -11 -14 -14 -25 -7 -9 4
-24 6 -34 4 -11 -3 -25 0 -33 6 -8 7 -25 9 -40 5 -19 -4 -31 0 -51 20 -20 20
-32 24 -58 19 -26 -5 -30 -3 -19 8 19 21 14 47 -13 65 -14 9 -25 20 -25 25 0
5 11 15 25 21 14 6 25 19 25 27 0 22 53 26 70 6 16 -19 30 -19 30 0 0 28 -43
65 -82 71 -21 4 -38 10 -38 15 0 5 -9 9 -20 9 -11 0 -20 6 -20 14 0 8 -6 16
-12 19 -7 2 6 7 29 11 24 4 45 12 49 17 3 5 12 9 21 9 25 0 75 41 69 57 -4 8
-3 20 1 26 4 7 8 16 8 22 0 18 36 17 56 -1 10 -9 19 -12 19 -6 0 6 2 17 5 24
3 8 -9 30 -28 49 -62 64 -63 67 -37 94 14 15 34 25 49 24 14 0 21 -3 14 -5 -8
-4 -9 -13 -3 -29 5 -12 6 -26 3 -29 -6 -6 12 -10 30 -7 4 0 7 -6 7 -14 0 -13
4 -14 20 -5 16 9 18 15 10 30 -5 10 -10 30 -10 44 0 22 5 26 48 31 26 4 57 14
70 22 17 10 27 11 36 3 8 -5 21 -8 30 -4 10 4 30 -4 52 -21 39 -30 59 -28 76
10 10 22 8 28 -8 40 -12 9 -31 12 -51 9 -17 -3 -41 -3 -54 1 -21 7 -21 8 -3
18 10 6 28 11 39 12 15 1 21 10 23 32 3 29 2 30 -48 37 -27 4 -57 9 -65 12
-23 9 -18 24 8 24 13 0 28 5 34 11 6 6 32 10 57 8 30 -3 46 0 46 7 0 18 -40
24 -90 14 -64 -13 -80 -12 -80 5 0 19 -5 19 -35 -1 -13 -8 -29 -14 -37 -13
-13 2 -32 -3 -78 -23 -31 -14 -191 -18 -207 -6 -7 6 -19 5 -32 -1 -14 -8 -22
-8 -26 0 -8 12 -1 22 23 27 26 6 124 23 152 26 52 6 71 17 77 47 4 21 14 32
39 41 19 7 34 15 34 19 0 16 60 70 71 63 6 -3 14 -2 18 3 3 5 19 19 35 31 27
21 30 21 48 6 10 -10 18 -27 18 -39z m3500 -8 c58 -2 65 -4 65 -22 0 -13 6
-19 16 -17 22 3 36 -47 17 -59 -7 -5 -19 -9 -27 -9 -9 0 -11 -7 -8 -21 5 -17
1 -20 -21 -18 -34 3 -82 -10 -82 -22 0 -5 -8 -9 -17 -9 -10 0 -38 -16 -62 -35
-26 -21 -55 -35 -72 -35 -33 0 -59 -9 -59 -21 0 -5 14 -9 30 -9 21 0 30 -5 30
-16 0 -12 -9 -15 -39 -13 -27 2 -46 -3 -60 -15 -16 -14 -33 -17 -85 -14 -51 2
-66 0 -66 -11 0 -13 -7 -13 -100 5 l-35 6 22 -21 c12 -11 34 -21 49 -21 24 0
102 -19 113 -27 12 -9 -46 -42 -82 -48 -23 -4 -54 -18 -68 -32 l-27 -25 -14
21 c-8 11 -31 27 -50 35 -20 9 -38 22 -41 31 -4 8 -12 15 -19 15 -10 0 -10 -2
0 -9 8 -4 13 -14 12 -22 -4 -27 0 -39 13 -39 24 0 66 -25 71 -42 3 -14 -2 -18
-20 -18 -13 0 -24 5 -24 10 0 6 -7 10 -15 10 -17 0 -115 92 -115 109 0 6 7 11
15 11 8 0 15 -5 15 -10 0 -6 8 -5 20 2 20 13 28 58 10 58 -15 0 -12 43 5 77
15 29 69 62 82 50 3 -4 13 8 22 26 9 17 25 34 35 36 21 3 34 15 52 46 12 21
44 22 56 2 4 -7 9 -4 14 8 11 33 46 65 69 65 11 0 25 4 31 9 15 14 64 22 64
11 0 -6 5 -8 10 -5 6 3 10 4 10 0 0 -3 -12 -10 -26 -15 -22 -9 -24 -13 -13
-26 11 -14 14 -13 23 3 26 48 85 73 156 66 30 -3 84 -6 120 -6z m-2020 -111
c14 -4 34 -11 45 -15 53 -21 92 -30 112 -25 16 5 38 -6 83 -40 33 -25 60 -42
60 -37 0 13 28 7 49 -10 13 -12 23 -13 39 -6 17 8 27 6 41 -7 11 -10 24 -15
30 -11 18 10 81 -25 81 -46 0 -22 16 -34 23 -17 3 10 8 8 18 -4 8 -10 30 -24
49 -33 19 -8 42 -19 50 -24 8 -5 23 -12 33 -15 41 -13 1 -76 -49 -76 -14 0
-23 -4 -19 -10 3 -5 0 -10 -8 -10 -16 0 -30 47 -15 52 5 2 2 12 -5 22 -17 24
-37 13 -37 -20 0 -13 -5 -24 -11 -24 -6 0 -9 -6 -6 -12 2 -7 0 -21 -5 -30 -7
-14 -5 -18 11 -18 18 0 18 -2 5 -29 -14 -28 -10 -61 6 -61 4 0 12 12 18 28 13
36 45 72 66 72 22 0 20 -19 -4 -44 -10 -12 -20 -38 -22 -59 -2 -34 -5 -38 -25
-34 -17 3 -23 0 -23 -15 0 -10 -7 -21 -15 -24 -8 -3 -19 -23 -25 -44 -12 -45
-45 -56 -99 -34 -18 8 -42 14 -52 14 -11 0 -19 5 -19 10 0 6 -6 10 -14 10 -7
0 -39 24 -70 54 -54 52 -155 104 -176 91 -4 -3 -21 2 -36 10 -16 8 -35 15 -42
15 -7 0 -15 6 -18 14 -3 8 -23 21 -45 30 -21 9 -56 31 -77 51 -22 19 -42 31
-46 27 -4 -4 -7 -2 -5 3 4 14 -21 65 -49 99 -18 22 -23 39 -20 70 3 35 0 41
-21 46 -28 6 -41 30 -17 30 15 0 15 3 3 28 -15 31 -12 63 7 56 7 -3 22 -1 34
3 26 10 178 9 212 -1z m-77 -961 c9 -2 30 -13 45 -23 15 -11 37 -23 50 -26 18
-6 22 -14 22 -50 l0 -43 -47 4 c-27 2 -68 5 -93 6 -42 3 -46 6 -57 39 -9 27
-9 45 -1 73 11 32 14 36 37 30 14 -4 34 -8 44 -10z m2004 -47 c18 -13 33 -29
33 -35 0 -7 5 -13 11 -13 6 0 9 -6 7 -12 -3 -7 1 -18 8 -25 18 -19 23 -16 17
8 -5 19 -4 20 13 11 26 -15 28 -99 3 -105 -20 -5 -59 27 -59 48 0 8 -4 15 -8
15 -5 0 -29 14 -54 30 -47 32 -65 65 -46 87 15 19 37 16 75 -9z m-2069 -106
c12 -13 22 -29 22 -36 0 -8 -10 -17 -22 -21 -15 -4 -19 -8 -10 -12 8 -3 19 0
25 6 6 6 28 11 49 11 21 0 38 5 38 10 0 6 23 10 50 10 43 0 50 -3 50 -20 0
-18 -7 -20 -80 -20 -73 0 -80 -2 -80 -20 0 -18 7 -20 68 -20 56 0 70 -3 82
-20 8 -12 26 -20 42 -20 21 0 28 -5 28 -20 0 -16 7 -20 30 -20 17 0 30 -4 30
-10 0 -5 9 -10 20 -10 11 0 20 -4 20 -10 0 -5 -9 -10 -20 -10 -11 0 -20 -4
-20 -10 0 -6 -30 -10 -70 -10 -40 0 -70 -4 -70 -10 0 -5 -21 -10 -46 -10 -36
0 -51 -5 -66 -22 -16 -19 -21 -20 -29 -8 -8 11 -12 12 -16 3 -2 -7 -13 -13
-23 -13 -10 0 -20 6 -23 13 -3 9 -10 9 -30 -2 -33 -17 -34 -37 -5 -62 27 -24
19 -32 -15 -16 -21 9 -27 19 -27 45 0 42 -20 62 -61 62 -19 0 -37 7 -45 18 -8
10 -13 12 -14 5 0 -7 -10 -13 -22 -13 -12 0 -29 -7 -39 -16 -19 -17 -55 -12
-44 6 7 12 -47 66 -74 75 -25 8 -25 53 1 61 10 3 36 -3 59 -15 22 -12 48 -21
59 -21 10 0 21 -4 25 -10 3 -5 12 -7 19 -4 7 3 16 -2 19 -10 9 -22 30 -20 47
4 8 11 22 20 32 20 10 0 18 4 18 9 0 5 10 12 23 15 l22 6 -23 13 c-12 7 -20
16 -17 19 7 7 -57 40 -71 37 -5 -1 -16 -1 -24 1 -11 1 -10 3 4 9 18 7 24 23
28 78 2 23 18 21 18 -3 0 -8 5 -14 12 -14 9 0 9 -3 0 -12 -9 -9 -7 -17 10 -35
26 -28 38 -29 38 -4 0 11 5 23 10 26 6 3 10 17 10 31 0 13 6 33 13 45 12 20
12 20 27 -3 8 -13 25 -33 38 -46z m2550 -114 c7 -7 12 -27 12 -45 0 -19 6 -36
16 -41 15 -8 14 -14 -9 -54 -20 -35 -23 -49 -14 -58 9 -10 9 -11 0 -6 -7 4
-21 2 -32 -4 -13 -6 -22 -6 -26 0 -3 5 -13 6 -21 3 -13 -5 -14 1 -8 33 3 22
13 46 21 55 7 9 11 24 7 33 -3 9 -1 16 5 16 6 0 11 15 11 33 0 46 14 59 38 35z"/>
<path d="M8571 7272 c-1 -13 -5 -20 -11 -17 -5 3 -10 -3 -10 -13 0 -17 -28
-51 -37 -44 -12 9 -23 -1 -18 -17 3 -10 -7 -43 -23 -77 -28 -57 -47 -111 -44
-126 1 -4 -17 -27 -39 -50 -39 -41 -48 -64 -38 -98 4 -15 19 -30 30 -30 4 0 9
16 12 36 4 22 22 56 47 85 30 36 40 55 35 69 -8 27 11 83 35 105 11 10 20 26
20 37 0 10 5 18 10 18 6 0 10 -5 10 -11 0 -5 5 -7 12 -3 7 5 9 2 5 -9 -3 -8 1
-21 9 -27 12 -11 14 -6 14 26 1 22 9 63 19 92 l18 52 -23 0 c-12 0 -25 6 -27
13 -3 6 -6 2 -6 -11z"/>
<path d="M4597 5144 c-4 -4 3 -24 15 -45 21 -38 23 -39 77 -39 36 0 60 5 72
16 19 17 68 26 84 15 15 -11 65 -12 65 -2 0 5 8 8 17 7 10 0 19 7 21 17 2 9
-1 17 -7 17 -6 0 -11 -4 -11 -10 0 -5 -7 -10 -15 -10 -8 0 -15 4 -15 9 0 17
-113 28 -203 19 -31 -3 -60 -2 -63 3 -6 10 -28 12 -37 3z"/>
<path d="M4630 4825 c0 -16 -9 -17 -147 -15 -60 1 -84 -2 -90 -13 -4 -7 -16
-16 -25 -20 -28 -10 -21 -27 12 -27 28 0 30 -3 30 -36 0 -38 -18 -64 -44 -64
-9 0 -16 -4 -16 -10 0 -13 33 -13 47 1 8 8 13 8 17 0 12 -19 -4 -31 -39 -31
-19 0 -37 -4 -40 -10 -3 -5 -24 -10 -46 -10 -36 0 -40 2 -37 23 1 12 -2 24 -7
27 -6 3 -11 -12 -13 -33 l-3 -39 39 7 c29 5 43 2 55 -9 9 -9 27 -16 41 -16 14
0 26 -5 26 -11 0 -7 18 -9 47 -7 38 2 48 0 51 -14 2 -12 -2 -15 -17 -11 -12 3
-21 2 -21 -2 0 -12 26 -33 45 -36 11 -3 23 -17 28 -36 8 -25 6 -35 -9 -51 -11
-11 -28 -22 -39 -25 -18 -4 -18 -5 2 -6 26 -1 73 18 73 31 0 4 13 8 29 8 21 0
30 6 34 21 4 16 3 18 -8 9 -19 -16 -32 -6 -40 30 -9 41 -8 44 17 45 29 0 35
30 12 56 -9 10 -13 19 -8 20 21 1 -34 18 -62 18 -18 1 -34 7 -37 15 -3 9 -15
12 -31 9 -20 -4 -26 -1 -26 12 0 10 8 23 17 30 11 8 17 28 19 56 0 24 2 47 3
52 2 11 41 8 41 -3 0 -5 5 -10 10 -10 6 0 10 9 10 20 0 17 7 20 44 20 24 0 51
3 60 6 17 7 22 44 6 44 -5 0 -10 -7 -10 -15z"/>
<path d="M5173 4615 c-3 -10 0 -21 8 -25 11 -7 10 -10 -4 -16 -9 -3 -24 -4
-32 0 -10 4 -17 -6 -25 -37 -6 -23 -15 -50 -20 -59 -20 -36 -11 -48 63 -86 15
-7 27 -20 27 -28 0 -8 5 -14 10 -14 14 0 12 54 -2 68 -7 7 -22 12 -33 12 -27
0 -38 10 -26 24 5 6 14 30 20 54 11 37 15 42 41 42 27 0 30 -3 30 -30 0 -16 5
-30 10 -30 6 0 10 5 10 10 0 6 30 10 70 10 49 0 70 4 70 13 -1 18 -71 47 -118
47 -37 0 -41 2 -44 28 -4 32 -44 45 -55 17z"/>
<path d="M4700 4121 c0 -5 16 -11 35 -13 57 -5 27 -27 -44 -32 -34 -3 -68 -9
-74 -15 -8 -6 -19 -5 -31 5 -11 8 -23 14 -28 14 -13 0 -9 -28 5 -33 9 -4 8 -8
-3 -17 -11 -9 -12 -13 -2 -17 28 -11 1 -63 -32 -63 -9 0 -16 -8 -16 -20 0 -16
-7 -20 -30 -20 -23 0 -30 -4 -30 -20 0 -11 -4 -20 -10 -20 -5 0 -10 -13 -10
-30 0 -16 -4 -30 -10 -30 -5 0 -10 -9 -10 -21 0 -15 4 -19 15 -15 8 3 22 9 30
12 11 4 15 0 15 -15 0 -14 6 -21 20 -21 11 0 20 -4 20 -10 0 -14 47 -13 56 1
9 15 -14 29 -48 29 -18 0 -29 7 -33 20 -3 11 -13 20 -21 20 -29 0 -9 35 31 55
26 13 59 19 97 19 l58 -1 -34 24 c-19 12 -40 23 -46 23 -6 0 -8 5 -5 10 3 6
23 10 43 11 20 0 46 4 57 9 19 8 19 9 -3 9 -41 2 -66 43 -41 68 15 15 178 5
206 -13 24 -15 77 -9 67 7 -8 13 22 22 51 15 24 -6 36 -36 15 -36 -5 0 -10 5
-10 10 0 6 -4 10 -10 10 -5 0 -10 -7 -10 -15 0 -15 20 -22 75 -27 24 -2 34
-11 50 -45 l19 -42 72 6 c48 4 73 2 78 -6 4 -6 25 -11 47 -11 24 0 38 4 34 10
-3 6 -17 10 -31 10 -13 0 -24 5 -24 10 0 6 -25 10 -55 10 -46 0 -60 4 -80 25
-14 13 -25 32 -25 43 0 10 -9 28 -20 40 -11 12 -20 28 -20 37 0 14 -22 21 -45
15 -31 -9 -212 3 -225 15 -20 17 -80 30 -80 16z"/>
<path d="M1410 7622 c0 -18 75 -102 91 -102 5 0 9 -8 9 -18 0 -10 5 -23 10
-28 8 -8 7 -19 0 -39 -14 -37 -4 -65 24 -65 27 0 49 -36 49 -80 0 -16 5 -30
11 -30 6 0 6 -4 -2 -8 -10 -7 -10 -14 0 -39 11 -25 17 -29 35 -22 11 4 24 12
28 18 8 13 -15 81 -28 81 -4 0 -5 6 0 13 14 22 2 51 -35 85 -31 29 -34 36 -24
53 9 14 9 24 1 42 -7 12 -15 29 -19 37 -4 8 -17 15 -28 14 -13 0 -30 14 -48
43 -36 57 -74 81 -74 45z"/>
<path d="M6195 7420 c-5 -8 -8 -23 -7 -32 2 -10 -2 -18 -7 -18 -6 0 -11 -12
-11 -27 0 -36 -9 -49 -40 -58 -32 -10 -60 -34 -71 -62 -11 -29 -59 -31 -84 -3
-9 10 -20 19 -24 18 -15 -3 -41 15 -41 29 0 19 -25 43 -44 43 -21 0 -20 -10 2
-26 16 -13 16 -13 0 -14 -10 0 -18 -8 -18 -17 0 -13 3 -14 12 -5 7 7 17 8 30
1 14 -7 18 -21 18 -59 0 -27 -5 -50 -11 -52 -7 -2 -14 -22 -16 -43 -11 -121
-10 -146 4 -161 20 -20 31 -18 39 9 4 12 15 29 24 37 10 8 23 40 29 70 14 64
34 95 56 87 11 -5 15 0 15 15 0 16 3 19 11 11 8 -8 20 -8 41 -1 16 6 32 8 35
5 7 -7 20 4 89 74 50 51 61 57 108 62 71 7 106 -1 106 -24 0 -13 8 -19 23 -20
12 -1 40 -3 62 -5 39 -4 85 11 85 28 0 5 -34 8 -75 7 -104 -2 -116 10 -32 33
37 9 56 10 92 0 55 -15 201 -16 210 -2 4 6 -11 10 -39 10 -25 0 -48 5 -51 10
-3 6 -35 10 -71 10 -41 0 -64 4 -64 11 0 8 -13 9 -42 4 -69 -13 -178 -14 -255
-2 -70 10 -72 11 -75 41 -2 24 -5 28 -13 16z"/>
<path d="M1870 6919 c0 -9 8 -27 18 -40 10 -13 25 -39 33 -56 8 -18 17 -33 21
-33 5 0 8 -4 8 -10 0 -5 -11 -10 -24 -10 -24 0 -24 -1 -21 -76 3 -72 12 -106
38 -161 7 -16 7 -30 0 -46 -11 -24 -4 -47 24 -75 7 -7 13 -18 13 -23 0 -5 16
-17 35 -26 21 -10 35 -24 35 -35 0 -10 5 -18 12 -18 6 0 19 -6 27 -14 23 -20
54 -27 71 -16 12 7 9 13 -14 35 -30 28 -39 53 -25 71 11 13 2 44 -12 44 -5 0
-14 10 -20 23 -8 18 -9 16 -5 -15 2 -20 2 -39 -1 -41 -10 -11 -33 5 -33 22 0
10 -3 21 -7 24 -12 13 -9 57 4 57 7 0 13 4 13 9 0 15 -18 23 -25 11 -4 -6 -21
6 -40 26 -28 30 -34 42 -31 73 2 20 -1 44 -5 53 -5 9 -5 18 0 20 12 5 23 58
11 58 -5 0 -10 19 -11 43 -2 64 -11 87 -44 105 -17 9 -33 22 -37 27 -5 6 -8 3
-8 -6z"/>
<path d="M2507 5966 c-4 -10 4 -27 21 -44 32 -33 38 -82 9 -74 -22 6 -57 -24
-57 -49 0 -28 22 -69 37 -69 9 0 11 8 7 25 -3 14 -3 25 0 25 13 0 86 -81 86
-95 0 -8 12 -22 26 -31 21 -14 27 -15 34 -4 9 14 3 40 -10 40 -4 0 -21 23 -38
50 -17 28 -38 50 -46 50 -8 0 -18 5 -22 11 -5 8 1 10 18 6 29 -8 42 10 27 34
-5 8 -9 27 -9 42 0 31 -25 87 -39 87 -5 0 -16 3 -24 6 -8 3 -17 -2 -20 -10z"/>
<path d="M1618 3534 c-12 -11 -10 -44 2 -44 6 0 10 -4 10 -10 0 -6 -47 -10
-120 -10 -102 0 -120 -2 -120 -16 0 -18 -24 -44 -40 -44 -7 0 -9 -7 -6 -16 4
-10 -2 -23 -14 -34 l-21 -18 26 -26 c14 -14 37 -26 50 -26 14 0 25 -4 25 -10
0 -5 18 -10 40 -10 42 0 54 -14 20 -23 -11 -3 -20 -12 -20 -21 0 -9 -4 -16
-10 -16 -5 0 -10 5 -10 10 0 15 -29 12 -46 -4 -8 -8 -14 -22 -14 -31 0 -14 9
-16 50 -13 35 2 50 -1 50 -9 0 -7 -4 -13 -10 -13 -5 0 -10 -4 -10 -10 0 -6 27
-10 60 -10 33 0 60 -4 60 -10 0 -6 -53 -10 -140 -10 -87 0 -140 -4 -140 -10 0
-6 37 -10 90 -10 50 0 90 -3 90 -6 0 -20 -34 -34 -84 -34 -31 0 -56 -4 -56
-10 0 -5 9 -10 20 -10 11 0 20 -4 20 -10 0 -5 9 -10 20 -10 11 0 20 5 20 10 0
6 9 10 20 10 11 0 20 -4 20 -10 0 -6 27 -10 60 -10 33 0 60 -4 60 -10 0 -5 9
-10 20 -10 11 0 20 5 20 10 0 6 9 10 20 10 11 0 20 -4 20 -10 0 -5 -4 -10 -10
-10 -5 0 -10 -5 -10 -10 0 -7 30 -10 83 -8 l82 3 -2 42 c-2 39 -16 75 -59 153
-67 117 -79 207 -28 194 32 -8 31 13 -2 49 -14 15 -32 43 -40 62 -8 19 -18 35
-23 35 -5 0 -11 7 -13 16 -2 9 -6 12 -10 8z"/>
<path d="M2867 3123 c-17 -4 -16 -6 4 -24 18 -16 31 -18 78 -12 31 3 58 10 59
15 5 11 42 10 42 -2 0 -5 12 -10 26 -10 16 0 37 -11 50 -26 29 -30 29 -34 5
-34 -38 0 -31 -19 9 -30 61 -17 104 -10 108 17 3 19 0 21 -37 16 -37 -5 -41
-3 -41 16 0 11 -4 21 -10 21 -5 0 -10 4 -10 9 0 5 54 9 120 9 120 0 137 2 126
20 -9 15 -193 24 -215 10 -14 -8 -23 -9 -33 -1 -13 10 -244 15 -281 6z"/>
<path d="M4610 560 c0 -5 5 -10 10 -10 6 0 10 -18 10 -40 0 -22 5 -40 10 -40
6 0 10 -13 10 -30 l0 -30 60 0 c33 0 60 4 60 10 0 6 7 10 16 10 8 0 22 6 30
14 16 17 19 46 4 46 -5 0 -10 9 -10 20 0 13 7 20 20 20 13 0 20 7 20 20 0 19
-7 20 -120 20 -73 0 -120 -4 -120 -10z"/>
<path d="M5090 520 c0 -27 5 -50 10 -50 6 0 10 -13 10 -30 l0 -30 60 0 c33 0
60 4 60 10 0 6 7 10 16 10 27 0 44 27 44 71 0 58 -17 68 -117 69 l-83 0 0 -50z"/>
</g>
</svg>
