<?xml version="1.0" standalone="no"?>
<!DOCTYPE svg PUBLIC "-//W3C//DTD SVG 20010904//EN"
 "http://www.w3.org/TR/2001/REC-SVG-20010904/DTD/svg10.dtd">
<svg version="1.0" xmlns="http://www.w3.org/2000/svg"
 width="1028.000000pt" height="934.000000pt" viewBox="0 0 600.000000 600.000000"
 preserveAspectRatio="xMidYMid meet">
<metadata>
Created by potrace 1.15, written by Peter Selinger 2001-2017
</metadata>
<g transform="translate(0.000000,600.000000) scale(0.100000,-0.100000)"
fill="#000000" stroke="none">
<path d="M737 5854 c-18 -19 0 -134 22 -134 4 0 11 14 15 31 6 29 7 30 53 27
l48 -3 7 -155 c3 -85 11 -330 17 -545 6 -214 13 -444 16 -510 12 -280 35
-1276 30 -1285 -3 -6 -35 -10 -71 -10 -50 0 -64 3 -64 15 0 8 7 15 15 15 8 0
15 5 15 10 0 7 -67 10 -196 9 l-196 -2 -74 -76 c-69 -70 -74 -79 -74 -118 0
-38 3 -43 23 -44 57 -4 104 4 129 22 22 15 41 18 101 16 128 -5 175 -62 68
-82 l-54 -11 27 -17 c18 -12 42 -17 79 -15 47 3 52 1 55 -20 5 -30 -18 -50
-67 -58 -50 -8 -54 -24 -7 -24 65 0 68 -6 40 -62 -18 -36 -24 -62 -22 -96 l3
-47 63 -3 62 -3 0 -39 c0 -21 4 -41 9 -44 5 -4 43 -9 84 -12 l75 -7 7 -228 c4
-126 11 -232 16 -235 5 -3 6 -11 2 -17 -5 -7 -15 -34 -24 -62 -14 -45 -19 -50
-48 -53 -31 -3 -31 -3 -31 42 0 25 -3 46 -7 46 -5 0 -20 -18 -36 -39 -32 -46
-35 -86 -8 -101 24 -12 33 -96 32 -290 -1 -74 3 -142 8 -150 8 -12 48 -16 213
-21 236 -7 281 0 298 42 15 34 21 36 45 9 12 -14 31 -20 57 -20 46 0 49 -23 5
-28 -26 -3 -38 -27 -17 -34 6 -2 6 -16 -2 -40 -15 -48 2 -72 44 -63 34 8 100
8 148 -1 19 -3 40 -6 46 -6 18 -2 -1 -67 -45 -152 l-39 -77 33 7 c28 5 39 1
59 -20 15 -14 26 -34 26 -46 0 -26 -43 -70 -68 -70 -27 0 -70 36 -75 63 -3 12
-4 -49 -4 -136 2 -155 8 -204 20 -155 14 56 94 61 122 8 19 -37 3 -77 -34 -87
-38 -10 -53 -5 -78 25 -20 24 -23 25 -22 7 0 -11 21 -38 45 -59 35 -31 57 -41
101 -48 31 -5 60 -11 65 -14 5 -3 6 -60 2 -128 -4 -83 -3 -134 5 -158 l12 -35
106 -6 c58 -4 111 -11 117 -16 6 -5 34 -14 61 -21 115 -27 128 -28 1355 -34
226 -2 439 13 512 34 44 14 96 20 156 20 111 0 107 -8 103 188 -2 112 0 142
11 143 7 1 18 2 23 4 6 1 37 3 70 3 57 2 64 5 113 48 29 25 52 53 52 62 0 10
-7 7 -25 -12 -33 -35 -76 -35 -104 1 -35 43 -3 103 54 103 31 0 65 -25 65 -48
0 -7 5 -12 10 -12 6 0 10 59 10 158 -1 119 -3 152 -12 137 -26 -48 -78 -59
-118 -27 -19 16 -22 24 -16 55 8 44 35 61 82 54 19 -3 34 -5 34 -3 0 1 -8 20
-19 42 -16 33 -51 168 -51 195 0 5 71 8 163 7 l162 -3 -2 43 c-2 24 2 42 8 42
6 0 32 -22 59 -49 46 -47 51 -49 82 -40 18 5 45 9 60 9 31 0 78 19 78 32 0 20
-38 47 -84 60 l-50 15 100 6 c54 4 143 7 196 7 53 0 109 5 124 10 l27 10 -8
140 c-4 76 -3 145 1 152 8 13 11 34 13 109 1 28 6 38 21 42 29 7 26 54 -7 102
-23 35 -27 37 -34 19 -4 -10 -8 -29 -8 -41 -1 -12 -6 -25 -11 -28 -15 -9 -50
4 -50 19 0 8 -7 19 -15 26 -8 7 -15 20 -15 30 0 10 -7 23 -15 30 -19 16 -19
30 -1 30 16 0 25 99 27 312 l2 147 79 7 c43 4 81 10 83 14 7 12 27 691 20 698
-3 3 -11 0 -17 -6 -7 -7 -40 -12 -78 -12 l-65 0 3 107 c6 237 33 1208 42 1533
6 190 14 460 18 600 4 140 11 261 15 268 5 6 28 12 53 12 42 0 44 -1 44 -30 0
-19 5 -30 14 -30 19 0 26 22 26 86 l0 55 -212 -6 c-378 -10 -3999 -20 -4072
-12 -94 12 -460 20 -469 11z m4467 -53 c15 -23 16 -128 6 -466 -19 -667 -39
-1405 -46 -1687 l-7 -276 24 -4 c16 -2 25 -11 27 -25 3 -20 -1 -21 -47 -19
-28 1 -54 6 -58 9 -12 13 -23 7 -23 -12 0 -22 -25 -34 -52 -25 -32 10 -19 48
17 52 17 2 33 7 37 10 3 4 9 201 12 437 4 237 8 453 11 480 2 28 7 181 10 340
4 160 11 409 16 555 6 146 12 344 15 440 3 96 7 181 9 188 5 14 41 17 49 3z
m-4133 -68 c0 -38 2 -88 4 -113 27 -324 64 -2232 44 -2271 -12 -24 -103 -20
-107 4 -3 12 6 19 28 23 l31 7 -5 86 c-3 47 -8 194 -11 326 -5 235 -15 618
-35 1325 -5 195 -11 404 -12 463 -2 94 -5 108 -19 104 -26 -7 -49 12 -49 40 0
24 3 25 35 20 31 -5 35 -3 35 17 0 29 7 36 37 36 22 0 23 -4 24 -67z m3649
-409 l31 -36 -6 -162 c-8 -248 -24 -785 -30 -1046 -2 -129 -8 -362 -11 -517
l-6 -282 128 -3 129 -3 3 -30 c1 -16 -1 -36 -6 -42 -6 -10 -130 -21 -252 -23
-3 0 -6 -33 -8 -72 -2 -40 -4 -74 -6 -75 -1 -1 -470 -3 -1042 -3 l-1039 -1 -3
81 c-3 77 -2 82 19 87 l23 6 -22 8 c-20 7 -22 16 -22 76 0 77 -23 113 -71 113
-25 0 -28 4 -34 53 -4 28 -11 57 -15 62 -4 6 -10 71 -13 145 -14 300 -73 496
-184 608 -153 155 -426 173 -707 48 -33 -14 -61 -24 -63 -22 -3 3 -9 184 -13
403 -5 219 -12 440 -15 492 l-6 94 37 38 38 39 1567 0 1567 0 32 -36z m-2635
-1019 c65 -18 137 -70 184 -133 67 -88 117 -293 123 -497 3 -111 -6 -126 -51
-83 l-24 22 5 -22 c7 -24 -3 -28 -33 -12 -25 14 -24 30 1 30 11 0 20 5 20 10
0 6 -30 10 -70 10 -40 0 -70 -4 -70 -10 0 -5 -9 -10 -20 -10 -31 0 -67 -26
-151 -107 l-76 -74 -16 25 c-36 55 -124 74 -188 41 -15 -8 -30 -15 -32 -15 -2
0 -9 36 -16 80 -13 80 -13 80 -50 90 -20 5 -50 10 -67 10 l-31 0 -7 261 c-9
298 -19 263 94 322 154 80 328 103 475 62z m-251 -876 c53 -42 63 -80 67 -249
l4 -155 -105 0 -105 0 -5 80 -5 80 -199 7 c-109 4 -200 9 -202 11 -3 2 -5 21
-7 41 l-2 37 110 3 c61 2 152 4 203 5 l92 1 0 44 c0 38 4 47 35 70 30 23 69
44 86 45 4 1 18 -8 33 -20z m-699 -464 c10 -334 11 -895 3 -895 -4 0 -15 11
-24 25 -14 22 -17 84 -20 542 -4 508 -1 564 27 536 5 -5 11 -99 14 -208z
m3992 -339 c-4 -542 -6 -575 -40 -563 -6 2 -10 202 -10 527 -1 542 1 570 39
570 13 0 14 -64 11 -534z m-2967 449 c0 -8 4 -15 9 -15 5 0 11 7 15 15 7 20
42 19 50 -2 6 -14 8 -14 21 3 13 18 14 18 24 -9 6 -16 11 -42 11 -58 l0 -29
-120 0 -120 0 0 55 0 55 55 0 c42 0 55 -3 55 -15z m-253 -81 c3 -9 -4 -32 -15
-52 l-21 -37 -90 -3 -91 -3 0 49 c0 27 3 52 7 55 3 4 51 7 105 7 81 0 100 -3
105 -16z m2722 4 c11 -10 14 -10 18 0 3 6 13 12 24 12 17 0 19 -8 19 -64 l0
-64 -82 -4 c-46 -2 -505 1 -1021 5 -1049 9 -987 4 -987 76 0 21 3 41 7 44 3 4
457 7 1008 7 787 0 1004 -3 1014 -12z m-2778 -165 c0 -27 1 -115 2 -198 l2
-150 -28 -5 c-26 -5 -67 -51 -67 -77 0 -6 -23 -49 -52 -95 -28 -46 -69 -114
-91 -151 -21 -37 -44 -66 -51 -64 -7 2 -12 45 -14 122 -2 104 0 121 16 139 10
12 45 62 76 112 54 86 57 95 54 145 l-3 54 -201 3 c-191 2 -202 3 -207 22 -12
48 0 57 86 64 45 3 135 6 200 6 l117 0 0 60 0 60 80 0 80 0 1 -47z m2767 11
c12 -8 22 -10 22 -4 0 5 11 10 25 10 23 0 24 -2 18 -50 -3 -27 -2 -50 3 -51
18 -2 120 -6 185 -8 73 -1 86 -12 69 -56 -9 -24 -12 -24 -132 -27 l-123 -3 -5
-29 c-3 -17 -8 -29 -12 -28 -5 1 -11 2 -15 2 -5 0 -16 14 -25 31 -17 28 -21
30 -70 27 l-53 -3 -2 -120 c-4 -184 29 -163 -260 -163 -137 0 -252 4 -258 8
-18 14 -75 22 -75 11 0 -6 11 -11 24 -11 13 0 26 -4 28 -10 2 -5 36 -11 76
-12 79 -2 102 -12 49 -22 -17 -3 -42 -8 -54 -10 -13 -3 -24 1 -27 11 -4 10
-15 14 -31 11 -13 -3 -22 -1 -19 3 3 5 -4 9 -15 9 -10 0 -27 3 -35 6 -12 5
-15 2 -10 -10 5 -12 0 -16 -23 -16 -16 0 -38 6 -48 14 -19 13 -17 15 18 21 20
4 37 12 37 17 0 12 -49 2 -68 -14 -7 -6 -11 -17 -8 -24 6 -16 -169 -20 -179
-3 -5 7 13 8 62 4 57 -6 71 -4 76 7 4 13 -60 15 -481 17 -393 2 -485 0 -474
-10 18 -19 14 -31 -7 -20 -16 9 -18 16 -10 51 7 32 6 46 -7 65 -9 14 -23 25
-30 25 -17 0 -17 3 1 65 33 108 21 188 -41 272 -13 17 -24 35 -24 39 0 4 429
4 953 0 811 -6 955 -9 975 -22z m-53 -659 c6 -1 21 -29 33 -61 13 -33 34 -81
46 -109 13 -27 38 -84 56 -125 18 -41 47 -107 66 -147 21 -47 28 -73 21 -75
-7 -2 -64 -3 -127 -2 -63 1 -220 3 -347 4 -187 1 -233 4 -233 14 0 16 -27 29
-41 20 -14 -9 -10 -22 9 -28 9 -3 -185 -3 -433 -1 -247 3 -514 5 -592 5 l-143
0 0 65 0 65 160 0 c132 0 160 3 160 14 0 8 6 16 13 19 6 2 -1 2 -16 0 -23 -4
-30 0 -34 16 -4 17 -11 20 -27 15 -17 -5 -19 -4 -9 6 7 7 26 13 43 12 16 0 30
4 30 9 0 5 18 9 40 9 22 0 40 -4 40 -10 0 -12 77 -13 84 -1 3 5 -32 12 -79 16
-63 5 -85 10 -85 21 0 11 18 14 80 14 79 0 80 0 80 25 0 25 1 25 80 25 64 0
80 3 80 15 0 11 11 15 40 15 29 0 40 -4 40 -15 0 -11 11 -15 40 -15 22 0 40 5
40 10 0 6 12 22 28 36 18 17 23 27 15 31 -7 2 -13 22 -13 44 0 35 3 39 25 39
14 0 25 5 25 11 0 9 30 11 103 7 56 -2 221 1 367 7 237 10 301 10 335 0z
m-3104 -343 c-11 -4 -11 -6 0 -13 8 -4 14 -16 14 -26 0 -18 5 -19 73 -22 28
-1 29 -21 1 -21 -18 0 -19 -2 -9 -15 11 -13 8 -15 -19 -15 -33 0 -42 -14 -15
-24 26 -10 83 -7 104 6 15 10 24 9 44 -2 26 -13 35 -30 16 -30 -5 0 -10 5 -10
10 0 6 -13 10 -30 10 -16 0 -30 -5 -30 -11 0 -7 -30 -9 -85 -8 -47 2 -85 6
-85 10 0 3 -11 4 -25 1 -34 -6 -33 14 5 78 17 28 30 54 30 58 0 13 23 32 29
25 3 -3 0 -8 -8 -11z m1259 -107 c0 -11 -12 -15 -42 -16 l-43 -2 45 -8 c25 -4
70 -11 100 -16 l55 -9 -77 -8 c-101 -10 -298 -7 -420 7 -98 11 -133 27 -59 27
22 0 41 5 43 11 3 10 94 16 361 27 27 2 37 -2 37 -13z m-810 -254 c0 -5 11 -8
25 -8 14 0 28 -3 31 -6 8 -7 -12 -98 -30 -142 -15 -34 -17 -35 -70 -35 -31 0
-56 4 -56 9 0 5 14 40 31 78 17 37 35 78 40 91 8 21 29 31 29 13z m2390 -97
c16 -52 30 -96 30 -99 0 -3 -27 -5 -59 -5 l-60 0 -10 53 c-24 122 -24 123 -1
133 11 5 32 10 45 10 23 2 27 -6 55 -92z m-1877 -408 c53 4 59 2 64 -16 3 -12
8 -19 12 -18 3 2 23 12 43 22 30 16 40 17 52 6 9 -7 12 -17 8 -24 -13 -21 -9
-56 8 -56 13 0 16 9 13 39 -1 22 2 43 7 46 6 4 11 -8 12 -27 0 -18 1 -40 2
-48 1 -19 36 -26 36 -8 0 8 -5 19 -10 24 -7 7 -8 19 -1 37 10 26 30 35 45 20
4 -4 17 -8 29 -8 28 0 29 -28 2 -34 -27 -5 -45 -32 -38 -58 4 -19 1 -23 -16
-23 -12 0 -24 -7 -27 -15 -4 -10 -17 -15 -38 -13 -17 1 -37 -2 -44 -6 -16 -10
-15 -29 1 -23 9 3 13 -6 14 -29 1 -23 -4 -34 -13 -34 -8 0 -14 5 -14 11 0 5
-4 8 -9 4 -5 -3 -12 -1 -16 5 -9 15 -176 12 -198 -4 -9 -7 -29 -11 -45 -8 -27
5 -27 5 -8 -16 10 -12 26 -21 35 -20 35 3 51 -3 51 -17 0 -8 5 -15 10 -15 6 0
10 7 10 15 0 10 11 15 35 15 24 0 35 -5 35 -15 0 -8 5 -15 10 -15 6 0 10 7 10
15 0 23 38 18 45 -6 10 -30 -10 -47 -35 -31 -13 8 -27 9 -38 4 -27 -13 -84 -7
-97 11 -15 21 -34 22 -41 2 -4 -8 -10 -15 -15 -15 -5 0 -9 7 -9 15 0 20 -27
19 -38 -1 -15 -26 -25 1 -17 46 4 22 11 43 16 46 6 4 6 11 -1 19 -7 8 -9 19
-5 25 10 15 82 12 99 -5 11 -11 37 -15 99 -15 59 0 87 -4 90 -12 2 -8 8 -9 13
-4 5 5 4 11 -3 13 -16 6 -17 33 -2 33 6 0 8 7 5 16 -5 12 -2 15 10 10 10 -4
14 -1 12 6 -7 20 -38 21 -58 3 -20 -18 -136 -30 -145 -14 -4 5 4 9 16 9 12 0
19 3 15 8 -4 4 -13 7 -19 7 -7 0 -13 8 -15 18 -2 9 1 17 7 17 6 0 11 4 11 9 0
13 -83 7 -87 -6 -2 -6 0 -14 6 -17 18 -12 0 -46 -25 -46 -29 0 -42 25 -26 50
7 12 7 21 0 28 -15 15 18 73 37 66 8 -4 15 -15 15 -26 0 -15 5 -18 16 -14 9 4
23 1 30 -5 8 -6 14 -8 14 -5 0 11 -27 36 -39 36 -6 0 -11 4 -11 9 0 13 23 20
35 11 6 -5 36 -6 68 -4z m767 -42 c0 -12 -4 -26 -10 -29 -16 -10 -11 -28 6
-21 9 3 21 3 27 -1 7 -4 15 -8 20 -9 4 -1 10 -2 13 -3 4 0 1 -7 -5 -15 -8 -10
-9 -16 -1 -21 24 -15 5 -20 -70 -20 -85 0 -104 9 -98 46 3 21 8 24 41 22 35
-2 49 9 27 22 -16 10 -11 53 7 64 23 12 43 -4 43 -35z m70 -239 c7 -9 21 -13
31 -10 13 4 19 1 19 -8 0 -8 7 -14 16 -13 9 0 19 -4 21 -11 3 -7 -11 -11 -41
-11 -25 0 -46 4 -46 10 0 5 -6 3 -13 -4 -8 -8 -31 -12 -58 -10 -24 2 -59 4
-78 5 -19 1 -36 8 -38 15 -6 17 -43 15 -43 -3 0 -8 -5 -15 -11 -15 -6 0 -9 12
-7 28 3 25 6 27 52 27 27 1 54 -4 60 -11 8 -8 13 -8 22 4 8 11 15 12 30 4 14
-7 24 -6 39 4 24 18 30 18 45 -1z"/>
</g>
</svg>
