<?xml version="1.0" standalone="no"?>
<!DOCTYPE svg PUBLIC "-//W3C//DTD SVG 20010904//EN"
 "http://www.w3.org/TR/2001/REC-SVG-20010904/DTD/svg10.dtd">
<svg version="1.0" xmlns="http://www.w3.org/2000/svg"
 width="1028.000000pt" height="934.000000pt" viewBox="0 0 2002.000000 2068.000000"
 preserveAspectRatio="xMidYMid meet">
<metadata>
Created by potrace 1.15, written by Peter Selinger 2001-2017
</metadata>
<g transform="translate(0.000000,2068.000000) scale(0.100000,-0.100000)"
fill="#000000" stroke="none">
<path d="M10223 19295 c-14 -15 -23 -37 -23 -55 0 -40 -20 -60 -60 -60 -17 0
-38 6 -46 14 -16 16 -19 86 -4 86 6 0 10 5 10 10 0 6 -18 10 -40 10 l-40 0 0
-50 c0 -47 -2 -50 -26 -50 -33 0 -54 -21 -54 -54 0 -14 -4 -26 -10 -26 -6 0
-10 -47 -10 -120 0 -73 -4 -120 -10 -120 -16 0 -13 -397 3 -404 10 -5 10 -7 0
-12 -7 -3 -13 -23 -13 -45 0 -21 -4 -39 -10 -39 -5 0 -10 -18 -10 -40 0 -22
-4 -40 -10 -40 -5 0 -10 -22 -10 -50 0 -27 -4 -50 -10 -50 -6 0 -10 -37 -10
-90 0 -53 -4 -90 -10 -90 -6 0 -10 -27 -10 -60 0 -33 -4 -60 -10 -60 -5 0 -10
-17 -10 -38 0 -26 -6 -42 -20 -52 -19 -13 -20 -26 -20 -172 0 -87 -3 -158 -6
-158 -16 0 -34 33 -34 64 0 20 -4 36 -10 36 -5 0 -10 9 -10 20 0 11 5 20 10
20 6 0 10 40 10 100 0 60 4 100 10 100 6 0 10 33 10 80 0 47 -4 80 -10 80 -6
0 -10 57 -10 150 0 93 -4 150 -10 150 -6 0 -10 47 -10 120 0 73 4 120 10 120
6 0 10 50 10 130 0 80 4 130 10 130 6 0 10 37 10 90 0 53 4 90 10 90 6 0 10
37 10 90 0 53 4 90 10 90 6 0 10 9 10 20 0 17 -7 20 -40 20 -22 0 -40 5 -40
10 0 6 -13 10 -30 10 -16 0 -30 -4 -30 -10 0 -5 -9 -10 -20 -10 -16 0 -20 -7
-20 -38 0 -26 -6 -42 -20 -52 -18 -13 -20 -26 -20 -132 0 -72 4 -118 10 -118
6 0 10 -27 10 -60 0 -33 -4 -60 -10 -60 -6 0 -10 -29 -10 -68 0 -56 -3 -70
-20 -82 -14 -10 -20 -26 -20 -52 l0 -38 -49 0 c-30 0 -52 -5 -55 -12 -5 -10
-7 -10 -12 0 -3 6 -23 12 -45 12 -37 0 -39 -2 -39 -30 0 -16 5 -30 10 -30 6 0
10 -13 10 -30 0 -23 -4 -30 -20 -30 -11 0 -20 -4 -20 -10 0 -5 -9 -10 -20 -10
-11 0 -20 -4 -20 -10 0 -5 -9 -10 -20 -10 -11 0 -20 -4 -20 -10 0 -5 -4 -10
-10 -10 -5 0 -10 9 -10 20 0 11 -4 20 -10 20 -5 0 -10 23 -10 50 0 28 5 50 10
50 6 0 10 18 10 40 0 22 5 40 10 40 6 0 10 18 10 40 0 22 5 40 10 40 6 0 10
18 10 40 0 22 5 40 10 40 6 0 10 23 10 50 0 28 5 50 10 50 6 0 10 23 10 50 0
28 5 50 10 50 6 0 10 14 10 30 0 17 5 30 10 30 6 0 10 14 10 30 0 17 5 30 10
30 6 0 10 9 10 20 0 11 5 20 10 20 6 0 10 14 10 30 0 17 5 30 10 30 6 0 10 14
10 30 0 17 5 30 10 30 15 0 12 29 -4 46 -21 21 -46 17 -46 -6 0 -11 -4 -20
-10 -20 -5 0 -10 -13 -10 -30 0 -16 -4 -30 -10 -30 -5 0 -10 -9 -10 -20 0 -11
-4 -20 -10 -20 -5 0 -10 -13 -10 -30 0 -16 -4 -30 -10 -30 -5 0 -10 -9 -10
-20 0 -11 -4 -20 -10 -20 -5 0 -10 -18 -10 -40 0 -22 -4 -40 -10 -40 -5 0 -10
-18 -10 -40 0 -22 -4 -40 -10 -40 -5 0 -10 -22 -10 -50 0 -27 -4 -50 -10 -50
-5 0 -10 -22 -10 -50 0 -27 -4 -50 -10 -50 -5 0 -10 -22 -10 -50 0 -27 -4 -50
-10 -50 -5 0 -10 -18 -10 -40 0 -22 -4 -40 -10 -40 -5 0 -10 -25 -10 -56 0
-49 4 -59 30 -84 17 -15 30 -35 30 -44 0 -9 5 -16 10 -16 6 0 10 5 10 10 0 6
9 10 20 10 11 0 20 5 20 10 0 6 9 10 20 10 11 0 20 5 20 10 0 6 9 10 20 10 11
0 20 5 20 10 0 6 9 10 20 10 17 0 20 -7 20 -50 0 -27 5 -50 10 -50 6 0 10 -30
10 -70 0 -40 -4 -70 -10 -70 -5 0 -10 -18 -10 -40 0 -22 -4 -40 -10 -40 -5 0
-10 -9 -10 -20 0 -11 -4 -20 -10 -20 -5 0 -10 -13 -10 -30 0 -16 -4 -30 -10
-30 -5 0 -10 -9 -10 -20 0 -11 -4 -20 -10 -20 -5 0 -10 -9 -10 -20 0 -11 -4
-20 -10 -20 -5 0 -10 -9 -10 -20 0 -11 -4 -20 -10 -20 -5 0 -10 -13 -10 -30 0
-16 -4 -30 -10 -30 -5 0 -10 -13 -10 -30 0 -16 -4 -30 -10 -30 -5 0 -10 -13
-10 -30 0 -16 -4 -30 -10 -30 -5 0 -10 -18 -10 -40 0 -22 -4 -40 -10 -40 -5 0
-10 -13 -10 -30 0 -16 -4 -30 -10 -30 -5 0 -10 -18 -10 -40 0 -22 -4 -40 -10
-40 -5 0 -10 -13 -10 -30 0 -16 -4 -30 -10 -30 -5 0 -10 -13 -10 -30 0 -16 -4
-30 -10 -30 -5 0 -10 -13 -10 -30 0 -16 -4 -30 -10 -30 -5 0 -10 -18 -10 -40
0 -22 -4 -40 -10 -40 -5 0 -10 -22 -10 -50 0 -27 -4 -50 -10 -50 -6 0 -10 -27
-10 -60 0 -33 -4 -60 -10 -60 -5 0 -10 -18 -10 -40 0 -22 -4 -40 -10 -40 -5 0
-10 -13 -10 -30 0 -16 -4 -30 -10 -30 -5 0 -10 -13 -10 -30 0 -16 -4 -30 -10
-30 -5 0 -10 -13 -10 -30 0 -16 -4 -30 -10 -30 -5 0 -10 -22 -10 -50 0 -27 -4
-50 -10 -50 -5 0 -10 -13 -10 -30 0 -16 -3 -30 -6 -30 -14 0 -34 31 -34 54 0
22 -4 26 -30 26 -16 0 -30 5 -30 10 0 6 -18 10 -40 10 -22 0 -40 5 -40 10 0 6
-18 10 -40 10 -22 0 -40 5 -40 10 0 15 -29 12 -46 -4 -21 -21 -17 -46 6 -46
11 0 20 -4 20 -10 0 -5 14 -10 30 -10 17 0 30 -4 30 -10 0 -5 14 -10 30 -10
17 0 30 -4 30 -10 0 -5 12 -10 26 -10 43 0 54 -21 54 -104 0 -44 -4 -76 -10
-76 -5 0 -10 18 -10 40 0 22 -4 40 -10 40 -5 0 -10 12 -10 26 0 29 -21 54 -44
54 -9 0 -16 5 -16 10 0 6 -13 10 -30 10 -16 0 -30 5 -30 10 0 6 -9 10 -20 10
-11 0 -20 5 -20 10 0 6 -9 10 -19 10 -11 0 -22 6 -25 13 -5 10 -7 10 -12 0
-10 -22 -24 -14 -24 13 0 14 -7 32 -15 40 -13 14 -17 14 -30 0 -8 -8 -15 -20
-15 -26 0 -6 -22 -33 -50 -60 -27 -27 -50 -56 -50 -64 0 -9 -4 -16 -10 -16 -5
0 -10 -18 -10 -40 0 -22 -4 -40 -10 -40 -6 0 -10 -37 -10 -90 0 -53 -4 -90
-10 -90 -5 0 -10 -18 -10 -40 0 -22 5 -40 10 -40 6 0 10 -13 10 -30 0 -16 5
-30 10 -30 6 0 10 -18 10 -40 0 -22 5 -40 10 -40 6 0 10 -18 10 -40 0 -22 5
-40 10 -40 6 0 10 -9 10 -20 0 -11 -4 -20 -10 -20 -5 0 -10 -22 -10 -50 0 -27
-4 -50 -10 -50 -5 0 -10 -22 -10 -50 0 -49 -1 -50 -30 -50 l-30 0 0 -70 c0
-40 4 -70 10 -70 6 0 10 -13 10 -30 0 -16 -4 -30 -10 -30 -5 0 -10 -18 -10
-40 0 -22 -4 -40 -10 -40 -5 0 -10 -18 -10 -40 0 -22 -4 -40 -10 -40 -5 0 -10
-13 -10 -30 0 -16 -4 -30 -10 -30 -5 0 -10 -18 -10 -40 0 -22 -4 -40 -10 -40
-5 0 -10 -18 -10 -40 0 -22 -4 -40 -10 -40 -5 0 -10 -13 -10 -30 0 -16 -4 -30
-10 -30 -5 0 -10 -18 -10 -40 0 -22 -4 -40 -10 -40 -5 0 -10 -18 -10 -40 0
-22 -4 -40 -10 -40 -5 0 -10 -18 -10 -40 0 -22 -4 -40 -10 -40 -5 0 -10 -22
-10 -50 0 -27 -4 -50 -10 -50 -5 0 -10 -18 -10 -40 0 -22 -4 -40 -10 -40 -5 0
-10 -18 -10 -40 0 -22 -4 -40 -10 -40 -5 0 -10 -18 -10 -40 0 -22 -4 -40 -10
-40 -5 0 -10 -22 -10 -50 0 -27 -4 -50 -10 -50 -5 0 -10 -22 -10 -50 0 -27 -4
-50 -10 -50 -6 0 -10 -27 -10 -60 0 -33 -4 -60 -10 -60 -6 0 -10 -30 -10 -70
0 -40 -4 -70 -10 -70 -6 0 -10 -40 -10 -100 0 -60 -4 -100 -10 -100 -6 0 -10
-40 -10 -100 0 -60 -4 -100 -10 -100 -6 0 -10 -56 -10 -149 0 -110 -3 -151
-12 -155 -10 -5 -10 -7 0 -12 9 -4 12 -120 12 -531 l0 -525 -30 -28 -30 -28 0
-276 c0 -177 4 -276 10 -276 6 0 10 -83 10 -230 0 -147 -4 -230 -10 -230 -6 0
-10 -37 -10 -90 0 -53 -4 -90 -10 -90 -6 0 -10 -30 -10 -70 0 -40 -4 -70 -10
-70 -5 0 -10 -13 -10 -30 0 -16 -4 -30 -10 -30 -6 0 -10 103 -10 290 0 187 4
290 10 290 6 0 10 43 10 110 0 67 -4 110 -10 110 -6 0 -10 113 -10 320 0 207
-4 320 -10 320 -6 0 -10 107 -10 300 0 193 4 300 10 300 6 0 10 133 10 380 0
247 4 380 10 380 6 0 10 50 10 130 0 80 4 130 10 130 6 0 10 37 10 90 0 53 4
90 10 90 6 0 10 30 10 70 0 40 4 70 10 70 6 0 10 23 10 50 0 28 5 50 10 50 6
0 10 27 10 60 0 33 4 60 10 60 6 0 10 27 10 60 0 33 4 60 10 60 6 0 10 23 10
50 0 28 5 50 10 50 6 0 10 23 10 50 0 28 5 50 10 50 6 0 10 27 10 60 0 33 4
60 10 60 6 0 10 33 10 80 0 47 4 80 10 80 6 0 10 27 10 60 0 33 -4 60 -10 60
-6 0 -10 27 -10 60 0 33 -4 60 -10 60 -5 0 -10 9 -10 20 0 23 -25 27 -46 6
-16 -17 -19 -66 -4 -66 6 0 10 -26 10 -59 0 -38 5 -61 13 -65 10 -5 10 -7 0
-12 -9 -4 -13 -33 -13 -95 0 -53 -4 -89 -10 -89 -6 0 -10 -27 -10 -60 0 -33
-4 -60 -10 -60 -5 0 -10 -22 -10 -50 0 -27 -4 -50 -10 -50 -6 0 -10 -27 -10
-60 0 -33 -4 -60 -10 -60 -5 0 -10 -22 -10 -50 0 -27 -4 -50 -10 -50 -6 0 -10
-27 -10 -60 0 -33 -4 -60 -10 -60 -6 0 -10 -27 -10 -60 0 -33 -4 -60 -10 -60
-6 0 -10 -30 -10 -70 0 -40 -4 -70 -10 -70 -6 0 -10 -27 -10 -60 0 -33 -4 -60
-10 -60 -6 0 -10 -57 -10 -150 0 -93 -4 -150 -10 -150 -6 0 -10 -130 -10 -370
0 -240 -4 -370 -10 -370 -6 0 -10 -127 -10 -360 0 -233 4 -360 10 -360 6 0 10
-13 10 -30 0 -16 -4 -30 -10 -30 -6 0 -10 -37 -10 -90 0 -53 4 -90 10 -90 6 0
10 -67 10 -180 0 -113 4 -180 10 -180 6 0 10 -30 10 -70 0 -40 -4 -70 -10 -70
-6 0 -10 -123 -10 -350 0 -227 -4 -350 -10 -350 -6 0 -10 -37 -10 -90 0 -53
-4 -90 -10 -90 -6 0 -10 -40 -10 -100 0 -60 -4 -100 -10 -100 -5 0 -10 -13
-10 -30 0 -16 -4 -30 -10 -30 -5 0 -10 -9 -10 -20 0 -11 -4 -20 -10 -20 -5 0
-10 -8 -10 -18 0 -10 -9 -24 -20 -32 -11 -8 -20 -22 -20 -32 0 -10 -4 -18 -10
-18 -5 0 -10 -8 -10 -18 0 -10 -9 -24 -20 -32 -11 -8 -20 -21 -20 -30 0 -9 -9
-22 -20 -30 -17 -12 -20 -26 -20 -82 0 -39 -4 -68 -10 -68 -5 0 -10 -18 -10
-40 0 -22 -4 -40 -10 -40 -5 0 -10 -13 -10 -30 0 -16 -4 -30 -10 -30 -5 0 -10
-9 -10 -20 0 -11 -4 -20 -10 -20 -6 0 -10 -27 -10 -60 0 -33 -4 -60 -10 -60
-6 0 -10 -43 -10 -110 0 -67 -4 -110 -10 -110 -5 0 -10 -18 -10 -40 0 -22 -4
-40 -10 -40 -5 0 -10 -18 -10 -40 0 -22 -4 -40 -10 -40 -5 0 -10 -13 -10 -30
0 -16 -4 -30 -10 -30 -5 0 -10 -13 -10 -30 0 -16 -4 -30 -10 -30 -5 0 -10 -18
-10 -40 0 -22 -4 -40 -10 -40 -5 0 -10 -9 -10 -20 0 -11 -4 -20 -10 -20 -5 0
-10 -13 -10 -30 0 -16 -4 -30 -10 -30 -5 0 -10 -13 -10 -30 0 -16 -4 -30 -10
-30 -5 0 -10 -18 -10 -40 0 -22 -4 -40 -10 -40 -5 0 -10 -13 -10 -30 0 -16 -4
-30 -10 -30 -5 0 -10 -13 -10 -30 0 -16 -4 -30 -10 -30 -5 0 -10 -18 -10 -40
0 -22 -4 -40 -10 -40 -5 0 -10 -9 -10 -20 0 -11 -4 -20 -10 -20 -5 0 -10 -13
-10 -30 0 -16 -4 -30 -10 -30 -5 0 -10 -9 -10 -20 0 -11 -4 -20 -10 -20 -5 0
-10 -9 -10 -20 0 -11 -4 -20 -10 -20 -5 0 -10 -13 -10 -30 0 -16 -4 -30 -10
-30 -5 0 -10 -13 -10 -30 0 -16 -4 -30 -10 -30 -5 0 -10 -9 -10 -20 0 -11 -4
-20 -10 -20 -5 0 -10 -9 -10 -20 0 -11 -4 -20 -10 -20 -5 0 -10 -9 -10 -20 0
-11 -4 -20 -10 -20 -5 0 -10 -9 -10 -20 0 -11 -4 -20 -10 -20 -5 0 -10 -9 -10
-20 0 -11 -4 -20 -10 -20 -5 0 -10 -13 -10 -30 0 -16 -4 -30 -10 -30 -5 0 -10
-13 -10 -30 0 -16 -4 -30 -10 -30 -5 0 -10 -22 -10 -50 0 -27 5 -50 10 -50 6
0 10 -18 10 -40 0 -22 5 -40 10 -40 6 0 10 -18 10 -40 0 -22 5 -40 10 -40 6 0
10 -57 10 -150 0 -93 -4 -150 -10 -150 -6 0 -10 -47 -10 -120 0 -73 -4 -120
-10 -120 -6 0 -10 -40 -10 -100 0 -60 -4 -100 -10 -100 -6 0 -10 -40 -10 -100
0 -60 -4 -100 -10 -100 -6 0 -10 -57 -10 -150 0 -93 -4 -150 -10 -150 -6 0
-10 60 -10 160 0 100 4 160 10 160 6 0 10 40 10 100 0 60 4 100 10 100 6 0 10
40 10 100 0 60 4 100 10 100 6 0 10 47 10 120 0 73 4 120 10 120 6 0 10 53 10
140 0 87 -4 140 -10 140 -5 0 -10 18 -10 40 0 22 -4 40 -10 40 -5 0 -10 16
-10 36 0 19 -6 42 -14 50 -17 16 -66 19 -66 4 0 -5 5 -10 10 -10 6 0 10 -18
10 -40 0 -22 5 -40 10 -40 6 0 10 -18 10 -40 0 -22 5 -40 10 -40 6 0 10 -57
10 -150 0 -93 -4 -150 -10 -150 -6 0 -10 -47 -10 -120 0 -73 -4 -120 -10 -120
-6 0 -10 -40 -10 -100 0 -60 -4 -100 -10 -100 -6 0 -10 -43 -10 -110 0 -67 -4
-110 -10 -110 -6 0 -10 -40 -10 -100 0 -60 -4 -100 -10 -100 -5 0 -10 5 -10
10 0 15 -29 12 -46 -4 -16 -17 -19 -46 -4 -46 6 0 10 -13 10 -29 0 -16 6 -32
13 -34 9 -4 8 -8 -3 -17 -11 -9 -12 -13 -2 -17 7 -2 12 -22 12 -44 0 -21 5
-39 10 -39 6 0 10 -22 10 -50 0 -27 5 -50 10 -50 6 0 10 -43 10 -110 0 -67 4
-110 10 -110 6 0 10 -43 10 -110 0 -67 4 -110 10 -110 6 0 10 -37 10 -90 0
-53 4 -90 10 -90 6 0 10 -37 10 -90 0 -53 4 -90 10 -90 6 0 10 -63 10 -170 0
-107 4 -170 10 -170 6 0 10 -97 10 -270 0 -173 4 -270 10 -270 6 0 10 -107 10
-300 0 -193 4 -300 10 -300 6 0 10 -27 10 -60 0 -33 4 -60 10 -60 6 0 10 -9
10 -20 0 -11 5 -20 10 -20 6 0 10 -9 10 -20 0 -11 5 -20 10 -20 6 0 10 -9 10
-20 0 -11 5 -20 10 -20 6 0 10 -9 10 -20 0 -11 5 -20 10 -20 6 0 10 -7 10 -16
0 -9 14 -29 30 -44 16 -15 30 -34 30 -42 0 -7 9 -20 20 -28 11 -8 20 -22 20
-32 0 -13 8 -18 30 -18 17 0 30 -4 30 -10 0 -5 16 -10 35 -10 27 0 44 -8 70
-35 19 -19 35 -39 35 -45 0 -20 28 -40 54 -40 19 0 26 5 26 20 0 17 7 20 46
20 52 0 74 16 74 54 0 14 3 26 6 26 14 0 34 -31 34 -54 0 -32 29 -35 50 -6 11
15 26 20 61 20 29 0 49 5 51 12 9 25 38 -20 38 -56 0 -35 1 -36 40 -36 22 0
40 -4 40 -10 0 -5 14 -10 30 -10 17 0 30 5 30 10 0 6 9 10 20 10 11 0 20 5 20
10 0 6 5 10 10 10 6 0 10 -13 10 -30 0 -16 5 -30 10 -30 6 0 10 -9 10 -20 0
-16 7 -20 30 -20 23 0 30 4 30 20 0 11 -4 20 -10 20 -5 0 -10 9 -10 20 0 13 7
20 20 20 11 0 20 5 20 10 0 6 14 10 30 10 17 0 30 -4 30 -10 0 -5 18 -10 39
-10 22 0 42 -6 45 -12 5 -11 7 -11 12 0 7 16 81 16 86 0 3 -9 9 -8 21 4 19 18
23 48 7 48 -5 0 -10 9 -10 20 0 11 -4 20 -10 20 -5 0 -10 9 -10 20 0 11 -4 20
-10 20 -5 0 -10 9 -10 20 0 11 -4 20 -10 20 -5 0 -10 9 -10 20 0 11 -4 20 -10
20 -5 0 -10 14 -10 30 0 17 -4 30 -10 30 -5 0 -10 18 -10 40 0 22 -4 40 -10
40 -5 0 -10 23 -10 50 0 28 -4 50 -10 50 -6 0 -10 27 -10 60 0 33 -4 60 -10
60 -6 0 -10 33 -10 80 0 47 -4 80 -10 80 -5 0 -10 18 -10 40 0 22 -4 40 -10
40 -5 0 -10 18 -10 40 0 22 -4 40 -10 40 -5 0 -10 14 -10 30 0 17 -4 30 -10
30 -6 0 -10 33 -10 80 0 47 -4 80 -10 80 -6 0 -10 133 -10 380 0 247 -4 380
-10 380 -6 0 -10 33 -10 80 0 47 -4 80 -10 80 -5 0 -10 9 -10 20 0 11 -4 20
-10 20 -5 0 -10 8 -10 18 0 10 -9 24 -20 32 -11 8 -20 22 -20 32 0 10 -4 18
-10 18 -5 0 -10 7 -10 16 0 9 -13 29 -30 44 -16 15 -30 33 -30 40 0 7 -14 25
-30 40 -17 15 -30 34 -30 42 0 7 -9 20 -20 28 -11 8 -20 21 -20 28 0 8 -13 27
-30 42 -16 15 -30 34 -30 42 0 7 -9 20 -20 28 -11 8 -20 21 -20 30 0 9 -9 22
-20 30 -11 8 -20 21 -20 30 0 9 -9 22 -20 30 -11 8 -20 21 -20 30 0 9 -9 22
-20 30 -11 8 -20 21 -20 30 0 9 -9 22 -20 30 -11 8 -20 21 -20 30 0 9 -9 22
-20 30 -11 8 -20 22 -20 32 0 10 -4 18 -10 18 -5 0 -10 14 -10 30 0 17 -4 30
-10 30 -5 0 -10 14 -10 30 0 17 -4 30 -10 30 -5 0 -10 9 -10 20 0 11 -4 20
-10 20 -5 0 -10 14 -10 30 0 17 -4 30 -10 30 -5 0 -10 14 -10 30 0 17 -4 30
-10 30 -6 0 -10 27 -10 60 0 33 -4 60 -10 60 -6 0 -10 43 -10 110 0 67 4 110
10 110 6 0 10 37 10 90 0 53 4 90 10 90 6 0 10 27 10 60 0 33 4 60 10 60 6 0
10 23 10 50 0 28 5 50 10 50 6 0 10 23 10 50 0 28 5 50 10 50 6 0 10 23 10 50
0 28 5 50 10 50 6 0 10 23 10 50 0 28 5 50 10 50 6 0 10 23 10 50 0 28 5 50
10 50 6 0 10 27 10 60 0 33 4 60 10 60 6 0 10 23 10 50 0 28 5 50 10 50 6 0
10 27 10 60 0 33 4 60 10 60 6 0 10 23 10 50 0 28 5 50 10 50 6 0 10 23 10 50
0 28 5 50 10 50 6 0 10 23 10 50 0 28 5 50 10 50 6 0 10 14 10 30 0 17 5 30
10 30 6 0 10 14 10 30 0 17 5 30 10 30 6 0 10 14 10 30 0 17 5 30 10 30 6 0
10 9 10 20 0 11 5 20 10 20 6 0 10 9 10 20 0 11 5 20 10 20 6 0 10 9 10 20 0
11 5 20 10 20 6 0 10 9 10 20 0 11 5 20 10 20 6 0 10 7 10 15 0 9 36 51 80 95
58 58 80 86 80 105 0 14 5 25 10 25 6 0 10 14 10 30 0 17 5 30 10 30 6 0 10
18 10 40 0 22 5 40 10 40 6 0 10 18 10 40 0 22 5 40 10 40 6 0 10 14 10 30 0
17 5 30 10 30 6 0 10 23 10 50 0 28 5 50 10 50 6 0 10 16 10 36 0 31 18 64 34
64 3 0 6 -22 6 -50 0 -43 3 -50 20 -50 11 0 20 -4 20 -10 0 -5 14 -10 30 -10
l30 0 0 176 c0 139 3 178 14 190 17 16 46 19 46 4 0 -5 14 -10 30 -10 17 0 30
-4 30 -10 0 -5 7 -10 16 -10 8 0 42 -27 74 -60 50 -51 64 -60 94 -60 20 0 36
5 36 10 0 6 16 10 35 10 29 0 44 9 80 45 25 24 45 49 45 55 0 14 86 100 100
100 15 0 120 107 120 123 0 7 9 19 20 27 11 8 20 22 20 32 0 10 5 18 10 18 6
0 10 -9 10 -19 0 -11 6 -22 13 -25 10 -5 10 -7 0 -12 -7 -3 -13 -14 -13 -25 0
-10 -4 -19 -10 -19 -5 0 -10 -22 -10 -50 0 -43 3 -50 20 -50 11 0 20 -4 20
-10 0 -5 8 -10 18 -10 10 0 24 -9 32 -20 8 -12 26 -20 42 -20 15 0 28 -4 28
-10 0 -5 9 -10 20 -10 11 0 20 -4 20 -10 0 -6 50 -10 130 -10 123 0 130 1 130
20 0 11 7 20 15 20 19 0 85 64 85 82 0 8 9 20 20 28 11 8 20 21 20 28 0 8 14
27 30 42 17 15 30 33 30 39 0 14 246 261 261 261 6 0 28 18 49 40 21 22 46 40
54 40 9 0 16 5 16 10 0 6 14 10 30 10 17 0 30 5 30 10 0 6 14 10 30 10 17 0
30 5 30 10 0 6 9 10 20 10 11 0 20 5 20 10 0 6 9 10 20 10 11 0 20 5 20 10 0
6 7 10 16 10 8 0 37 23 64 50 27 28 54 50 60 50 14 0 80 66 80 80 0 17 26 40
44 40 9 0 16 -4 16 -10 0 -5 9 -10 20 -10 11 0 20 -4 20 -10 0 -5 14 -10 30
-10 17 0 30 -4 30 -10 0 -5 14 -10 30 -10 17 0 30 -4 30 -10 0 -5 18 -10 40
-10 22 0 40 5 40 10 0 6 27 10 60 10 33 0 60 4 60 10 0 6 11 10 25 10 26 0 95
59 95 80 0 7 18 29 40 50 35 34 40 44 40 84 0 25 5 46 10 46 6 0 10 23 10 50
0 28 5 50 10 50 6 0 10 9 10 20 0 16 7 20 30 20 17 0 30 5 30 10 0 6 14 10 30
10 17 0 30 5 30 10 0 6 13 10 28 10 16 0 34 8 42 20 8 11 22 20 32 20 10 0 18
5 18 10 0 6 8 10 18 10 10 0 24 9 32 20 8 11 22 20 32 20 10 0 18 5 18 10 0 6
30 10 70 10 40 0 70 4 70 10 0 6 23 10 50 10 28 0 50 5 50 10 0 6 9 10 20 10
11 0 20 5 20 10 0 6 14 10 30 10 17 0 30 5 30 10 0 6 9 10 20 10 11 0 20 5 20
10 0 6 9 10 20 10 11 0 20 5 20 10 0 6 9 10 20 10 11 0 20 5 20 10 0 6 7 10
16 10 9 0 29 14 44 30 36 38 81 40 115 5 25 -24 35 -75 15 -75 -5 0 -10 -13
-10 -30 0 -16 -4 -30 -10 -30 -5 0 -10 -13 -10 -30 0 -16 -4 -30 -10 -30 -5 0
-10 -9 -10 -20 0 -11 -4 -20 -10 -20 -5 0 -10 -9 -10 -20 0 -11 -4 -20 -10
-20 -5 0 -10 -8 -10 -18 0 -10 -9 -24 -20 -32 -11 -8 -20 -22 -20 -32 0 -10
-4 -18 -10 -18 -5 0 -10 -8 -10 -18 0 -10 -9 -24 -20 -32 -11 -8 -20 -21 -20
-30 0 -9 -9 -22 -20 -30 -11 -8 -20 -21 -20 -30 0 -9 -9 -22 -20 -30 -18 -13
-20 -26 -20 -112 0 -59 4 -98 10 -98 6 0 10 -20 10 -46 0 -42 4 -49 60 -104
55 -54 75 -90 50 -90 -5 0 -10 -9 -10 -20 0 -11 -4 -20 -10 -20 -5 0 -10 -9
-10 -20 0 -11 -4 -20 -10 -20 -5 0 -10 -7 -10 -16 0 -19 -24 -44 -42 -44 -8 0
-20 -9 -28 -20 -8 -11 -22 -20 -32 -20 -10 0 -18 -4 -18 -10 0 -5 -7 -10 -16
-10 -22 0 -53 -32 -36 -38 6 -2 12 -12 12 -23 0 -10 5 -19 10 -19 6 0 10 5 10
10 0 6 8 10 18 10 10 0 24 9 32 20 8 11 22 20 32 20 10 0 18 5 18 10 0 6 9 10
20 10 11 0 20 5 20 10 0 6 9 10 20 10 13 0 20 7 20 20 0 11 5 20 10 20 6 0 10
9 10 20 0 11 5 20 10 20 6 0 10 9 10 20 0 11 5 20 10 20 6 0 10 9 10 20 0 11
5 20 10 20 18 0 11 55 -10 70 -11 8 -20 20 -20 28 0 7 -22 35 -50 62 l-50 49
0 75 c0 44 -4 76 -10 76 -5 0 -10 14 -10 30 0 17 5 30 10 30 6 0 10 8 10 18 0
10 9 24 20 32 11 8 20 22 20 32 0 10 5 18 10 18 6 0 10 -43 10 -110 0 -67 4
-110 10 -110 6 0 10 -9 10 -20 0 -11 5 -20 10 -20 6 0 10 -13 10 -30 0 -16 5
-30 10 -30 6 0 10 -8 10 -18 0 -10 9 -24 20 -32 11 -8 20 -22 20 -32 0 -10 5
-18 10 -18 6 0 10 -8 10 -18 0 -10 9 -24 20 -32 21 -15 28 -70 10 -70 -5 0
-10 -8 -10 -18 0 -10 -9 -24 -20 -32 -11 -8 -20 -22 -20 -32 0 -10 -4 -18 -10
-18 -6 0 -10 -27 -10 -60 0 -33 -4 -60 -10 -60 -6 0 -10 -43 -10 -110 0 -67
-4 -110 -10 -110 -5 0 -10 -13 -10 -30 0 -16 5 -30 10 -30 6 0 10 -22 10 -50
0 -27 5 -50 10 -50 6 0 10 -12 10 -26 0 -33 21 -54 54 -54 14 0 26 -4 26 -10
0 -5 14 -10 30 -10 17 0 30 -4 30 -10 0 -5 9 -10 20 -10 13 0 20 7 20 20 0 11
5 20 10 20 6 0 10 18 10 40 0 22 5 40 10 40 6 0 10 14 10 30 0 17 5 30 10 30
6 0 10 14 10 30 0 17 5 30 10 30 6 0 10 9 10 20 0 11 5 20 10 20 6 0 10 9 10
20 0 11 5 20 10 20 6 0 10 9 10 20 0 11 5 20 10 20 6 0 10 9 10 20 0 11 5 20
10 20 6 0 10 9 10 20 0 11 5 20 10 20 6 0 10 9 10 20 0 11 5 20 10 20 6 0 10
9 10 20 0 12 7 20 16 20 9 0 29 14 44 30 15 17 33 30 39 30 17 0 81 67 81 85
0 8 5 15 10 15 6 0 10 23 10 50 0 28 5 50 10 50 6 0 10 9 10 20 0 11 5 20 10
20 6 0 10 -12 10 -26 0 -16 12 -37 30 -54 17 -15 30 -35 30 -44 0 -9 5 -16 10
-16 6 0 10 -9 10 -20 0 -11 5 -20 10 -20 6 0 10 -9 10 -20 0 -11 5 -20 10 -20
6 0 10 -9 10 -20 0 -11 5 -20 10 -20 6 0 10 -9 10 -20 0 -11 5 -20 10 -20 6 0
10 -9 10 -20 0 -11 5 -20 10 -20 6 0 10 -30 10 -70 0 -40 4 -70 10 -70 6 0 10
-13 10 -30 0 -16 -4 -30 -10 -30 -5 0 -10 -7 -10 -16 0 -8 -22 -37 -50 -64
-27 -27 -50 -56 -50 -64 0 -9 -4 -16 -10 -16 -6 0 -10 -27 -10 -60 0 -33 -4
-60 -10 -60 -5 0 -10 -4 -10 -10 0 -5 7 -10 16 -10 8 0 33 -18 54 -40 21 -22
46 -40 54 -40 9 0 16 -8 16 -20 0 -11 -4 -20 -10 -20 -5 0 -10 -9 -10 -20 0
-11 -4 -20 -10 -20 -5 0 -10 -8 -10 -18 0 -10 -9 -24 -20 -32 -11 -8 -20 -22
-20 -32 0 -10 -4 -18 -10 -18 -5 0 -10 -9 -10 -20 0 -11 5 -20 10 -20 6 0 10
-27 10 -60 0 -47 3 -60 15 -60 19 0 85 64 85 82 0 8 9 20 20 28 11 8 20 22 20
32 0 10 5 18 10 18 6 0 10 9 10 20 0 11 5 20 10 20 6 0 10 14 10 30 0 17 5 30
10 30 6 0 10 14 10 30 0 17 5 30 10 30 6 0 10 9 10 20 0 11 5 20 10 20 6 0 10
14 10 30 0 17 5 30 10 30 6 0 10 9 10 20 0 11 5 20 10 20 6 0 10 9 10 20 0 11
5 20 10 20 6 0 10 9 10 20 0 11 5 20 10 20 6 0 10 12 10 26 0 14 7 32 15 40
13 13 22 7 80 -50 36 -36 65 -71 65 -77 0 -6 14 -24 30 -39 17 -15 30 -34 30
-42 0 -7 9 -20 20 -28 11 -8 20 -21 20 -30 0 -9 9 -22 20 -30 11 -8 20 -21 20
-28 0 -8 14 -27 30 -42 17 -15 30 -33 30 -40 0 -6 18 -29 40 -50 22 -21 40
-44 40 -50 0 -6 27 -38 60 -70 33 -32 60 -65 60 -72 0 -8 9 -20 20 -28 11 -8
20 -21 20 -30 0 -9 9 -22 20 -30 11 -8 20 -21 20 -30 0 -9 9 -22 20 -30 11 -8
20 -22 20 -32 0 -10 5 -18 10 -18 6 0 10 -8 10 -18 0 -10 9 -24 20 -32 11 -8
20 -21 20 -30 0 -9 9 -22 20 -30 11 -8 20 -21 20 -28 0 -8 14 -27 30 -42 17
-15 30 -33 30 -40 0 -6 23 -33 50 -60 28 -27 50 -55 50 -62 0 -8 9 -20 20 -28
11 -8 20 -21 20 -30 0 -9 9 -22 20 -30 11 -8 20 -21 20 -28 0 -8 14 -27 30
-42 17 -15 30 -35 30 -44 0 -9 5 -16 10 -16 6 0 10 -8 10 -18 0 -10 9 -24 20
-32 11 -8 20 -21 20 -30 0 -9 9 -22 20 -30 11 -8 20 -21 20 -30 0 -9 9 -22 20
-30 11 -8 20 -22 20 -32 0 -10 5 -18 10 -18 6 0 10 -8 10 -18 0 -10 9 -24 20
-32 11 -8 20 -22 20 -32 0 -10 5 -18 10 -18 6 0 10 -9 10 -20 0 -11 5 -20 10
-20 6 0 10 -8 10 -18 0 -10 9 -24 20 -32 11 -8 20 -22 20 -32 0 -10 5 -18 10
-18 6 0 10 -9 10 -20 0 -11 5 -20 10 -20 6 0 10 -9 10 -20 0 -11 5 -20 10 -20
6 0 10 -9 10 -20 0 -11 5 -20 10 -20 6 0 10 -9 10 -20 0 -11 5 -20 10 -20 6 0
10 -9 10 -20 0 -11 5 -20 10 -20 6 0 10 -9 10 -20 0 -11 5 -20 10 -20 6 0 10
-13 10 -30 0 -16 5 -30 10 -30 6 0 10 -13 10 -30 0 -16 5 -30 10 -30 6 0 10
-9 10 -20 0 -11 5 -20 10 -20 6 0 10 -13 10 -30 0 -16 5 -30 10 -30 6 0 10
-13 10 -30 0 -16 5 -30 10 -30 6 0 10 -18 10 -40 0 -22 5 -40 10 -40 6 0 10
-13 10 -30 0 -16 5 -30 10 -30 6 0 10 -13 10 -30 0 -16 5 -30 10 -30 6 0 10
-18 10 -40 0 -22 5 -40 10 -40 6 0 10 -18 10 -40 0 -22 5 -40 10 -40 6 0 10
-18 10 -40 0 -22 5 -40 10 -40 6 0 10 -18 10 -40 0 -22 5 -40 10 -40 6 0 10
-27 10 -60 0 -33 4 -60 10 -60 6 0 10 -27 10 -60 0 -33 4 -60 10 -60 6 0 10
-18 10 -40 0 -22 5 -40 10 -40 6 0 10 -18 10 -40 0 -22 5 -40 10 -40 6 0 10
-50 10 -130 0 -80 4 -130 10 -130 6 0 10 -57 10 -150 0 -93 4 -150 10 -150 6
0 10 -67 10 -180 0 -113 4 -180 10 -180 6 0 10 -22 10 -50 0 -27 5 -50 10 -50
6 0 10 -22 10 -50 0 -27 5 -50 10 -50 6 0 10 -18 10 -40 0 -22 5 -40 10 -40 6
0 10 -18 10 -40 0 -22 5 -40 10 -40 6 0 10 -22 10 -50 0 -27 5 -50 10 -50 6 0
10 -67 10 -180 0 -113 -4 -180 -10 -180 -6 0 -10 -30 -10 -70 0 -40 -4 -70
-10 -70 -6 0 -10 -37 -10 -90 0 -53 4 -90 10 -90 6 0 10 -22 10 -50 0 -27 -4
-50 -10 -50 -6 0 -10 -33 -10 -80 0 -47 -4 -80 -10 -80 -6 0 -10 -27 -10 -60
0 -33 -4 -60 -10 -60 -5 0 -10 -9 -10 -20 0 -11 -4 -20 -10 -20 -6 0 -10 -53
-10 -140 0 -87 -4 -140 -10 -140 -6 0 -10 -37 -10 -90 0 -53 -4 -90 -10 -90
-5 0 -10 -11 -10 -25 0 -29 -59 -95 -85 -95 -8 0 -15 -4 -15 -10 0 -5 -8 -10
-18 -10 -10 0 -24 -9 -32 -20 -8 -11 -20 -20 -28 -20 -18 0 -42 -25 -42 -44 0
-9 -4 -16 -10 -16 -5 0 -10 -9 -10 -20 0 -11 -4 -20 -10 -20 -5 0 -10 -9 -10
-20 0 -11 -4 -20 -10 -20 -5 0 -10 -8 -10 -18 0 -10 -9 -24 -20 -32 -11 -8
-20 -22 -20 -32 0 -10 -4 -18 -10 -18 -5 0 -10 -9 -10 -20 0 -11 -4 -20 -10
-20 -5 0 -10 -22 -10 -50 0 -27 -4 -50 -10 -50 -5 0 -10 -18 -10 -40 0 -22 -4
-40 -10 -40 -5 0 -10 -22 -10 -50 0 -27 -4 -50 -10 -50 -5 0 -10 -22 -10 -50
0 -27 -4 -50 -10 -50 -5 0 -10 -22 -10 -50 0 -27 -4 -50 -10 -50 -5 0 -10 -22
-10 -50 0 -27 -4 -50 -10 -50 -5 0 -10 -22 -10 -50 0 -27 -4 -50 -10 -50 -5 0
-10 -13 -10 -28 0 -16 -8 -34 -20 -42 -11 -8 -20 -21 -20 -30 0 -9 -9 -22 -20
-30 -11 -8 -20 -21 -20 -30 0 -9 -9 -22 -20 -30 -11 -8 -20 -21 -20 -30 0 -9
-9 -22 -20 -30 -11 -8 -20 -21 -20 -30 0 -9 -9 -22 -20 -30 -11 -8 -20 -22
-20 -32 0 -10 -4 -18 -10 -18 -5 0 -10 -9 -10 -20 0 -11 -4 -20 -10 -20 -5 0
-10 -8 -10 -18 0 -10 -9 -24 -20 -32 -11 -8 -20 -22 -20 -32 0 -10 -4 -18 -10
-18 -5 0 -10 -9 -10 -20 0 -11 -4 -20 -10 -20 -5 0 -10 -9 -10 -20 0 -11 -4
-20 -10 -20 -5 0 -10 -13 -10 -30 0 -16 -4 -30 -10 -30 -5 0 -10 -22 -10 -50
0 -27 -4 -50 -10 -50 -6 0 -10 -27 -10 -60 0 -33 -4 -60 -10 -60 -6 0 -10 -27
-10 -60 0 -33 4 -60 10 -60 6 0 10 -7 10 -16 0 -23 25 -44 54 -44 14 0 26 -4
26 -10 0 -5 9 -10 20 -10 11 0 20 -4 20 -10 0 -5 13 -10 29 -10 16 0 32 -6 35
-12 5 -10 7 -10 12 0 7 14 44 16 44 2 0 -5 23 -10 50 -10 39 0 50 -4 50 -16 0
-23 25 -44 54 -44 14 0 26 -4 26 -10 0 -5 18 -10 40 -10 22 0 40 -4 40 -10 0
-5 17 -10 38 -10 26 0 42 -6 52 -20 10 -14 26 -20 52 -20 21 0 38 -4 38 -10 0
-5 5 -10 10 -10 6 0 10 9 10 20 0 11 5 20 10 20 6 0 10 14 10 30 0 17 5 30 10
30 6 0 10 9 10 20 0 11 5 20 10 20 6 0 10 9 10 20 0 11 5 20 10 20 6 0 10 9
10 20 0 11 5 20 10 20 6 0 10 9 10 20 0 11 5 20 10 20 6 0 10 9 10 20 0 11 5
20 10 20 6 0 10 9 10 20 0 11 5 20 10 20 6 0 10 9 10 20 0 11 5 20 10 20 6 0
10 9 10 20 0 11 5 20 10 20 6 0 10 9 10 20 0 11 5 20 10 20 6 0 10 9 10 20 0
11 5 20 10 20 6 0 10 9 10 20 0 11 5 20 10 20 6 0 10 9 10 20 0 11 5 20 10 20
6 0 10 14 10 30 0 17 5 30 10 30 6 0 10 9 10 20 0 11 5 20 10 20 6 0 10 14 10
30 0 17 5 30 10 30 6 0 10 14 10 30 0 17 5 30 10 30 6 0 10 9 10 20 0 11 5 20
10 20 6 0 10 14 10 30 0 17 5 30 10 30 6 0 10 14 10 30 0 17 5 30 10 30 6 0
10 18 10 40 0 22 5 40 10 40 6 0 10 14 10 30 0 17 5 30 10 30 6 0 10 14 10 30
0 17 5 30 10 30 6 0 10 14 10 30 0 17 5 30 10 30 6 0 10 18 10 40 0 22 5 40
10 40 6 0 10 14 10 30 0 17 5 30 10 30 6 0 10 18 10 40 0 22 5 40 10 40 6 0
10 18 10 40 0 22 5 40 10 40 6 0 10 18 10 40 0 22 5 40 10 40 6 0 10 18 10 40
0 22 5 40 10 40 6 0 10 23 10 50 0 28 5 50 10 50 6 0 10 23 10 50 0 28 5 50
10 50 6 0 10 23 10 50 0 28 5 50 10 50 6 0 10 23 10 50 0 28 5 50 10 50 6 0
10 27 10 60 0 33 4 60 10 60 6 0 10 27 10 60 0 33 4 60 10 60 6 0 10 37 10 90
0 53 4 90 10 90 6 0 10 33 10 80 0 47 4 80 10 80 6 0 10 30 10 70 0 40 4 70
10 70 6 0 10 50 10 130 0 80 4 130 10 130 6 0 10 47 10 120 0 73 4 120 10 120
6 0 10 33 10 80 0 47 4 80 10 80 6 0 10 40 10 100 0 60 4 100 10 100 6 0 10
87 10 240 0 153 -4 240 -10 240 -6 0 -10 33 -10 80 0 47 -4 80 -10 80 -6 0
-10 67 -10 180 0 113 -4 180 -10 180 -6 0 -10 37 -10 90 0 53 -4 90 -10 90 -6
0 -10 27 -10 60 0 33 -4 60 -10 60 -5 0 -10 23 -10 50 0 28 -4 50 -10 50 -5 0
-10 23 -10 50 0 28 -4 50 -10 50 -5 0 -10 18 -10 40 0 22 -4 40 -10 40 -5 0
-10 18 -10 40 0 22 -4 40 -10 40 -5 0 -10 23 -10 50 0 28 -4 50 -10 50 -6 0
-10 27 -10 60 0 33 -4 60 -10 60 -5 0 -10 23 -10 50 0 28 -4 50 -10 50 -5 0
-10 18 -10 40 0 22 -4 40 -10 40 -5 0 -10 18 -10 40 0 22 -4 40 -10 40 -5 0
-10 18 -10 40 0 22 -4 40 -10 40 -5 0 -10 18 -10 40 0 22 -4 40 -10 40 -5 0
-10 14 -10 30 0 17 -4 30 -10 30 -5 0 -10 18 -10 40 0 22 -4 40 -10 40 -5 0
-10 18 -10 40 0 22 -4 40 -10 40 -5 0 -10 14 -10 30 0 17 -4 30 -10 30 -5 0
-10 9 -10 20 0 11 -4 20 -10 20 -5 0 -10 14 -10 30 0 17 -4 30 -10 30 -5 0
-10 14 -10 30 0 17 -4 30 -10 30 -5 0 -10 9 -10 20 0 11 -4 20 -10 20 -5 0
-10 14 -10 30 0 17 -4 30 -10 30 -5 0 -10 9 -10 20 0 11 -4 20 -10 20 -5 0
-10 14 -10 30 0 17 -4 30 -10 30 -5 0 -10 9 -10 20 0 11 -4 20 -10 20 -5 0
-10 14 -10 30 0 17 -4 30 -10 30 -5 0 -10 9 -10 20 0 11 -4 20 -10 20 -5 0
-10 14 -10 30 0 17 -4 30 -10 30 -5 0 -10 9 -10 20 0 11 -4 20 -10 20 -5 0
-10 14 -10 30 0 17 -4 30 -10 30 -5 0 -10 9 -10 20 0 11 -4 20 -10 20 -5 0
-10 9 -10 20 0 11 -4 20 -10 20 -5 0 -10 14 -10 30 0 17 -4 30 -10 30 -5 0
-10 9 -10 20 0 11 -4 20 -10 20 -5 0 -10 9 -10 20 0 11 -4 20 -10 20 -5 0 -10
9 -10 20 0 11 -4 20 -10 20 -5 0 -10 9 -10 20 0 11 -4 20 -10 20 -5 0 -10 9
-10 20 0 11 -4 20 -10 20 -5 0 -10 9 -10 20 0 11 -4 20 -10 20 -5 0 -10 9 -10
20 0 11 -4 20 -10 20 -5 0 -10 9 -10 20 0 11 -4 20 -10 20 -5 0 -10 9 -10 20
0 11 -4 20 -10 20 -5 0 -10 8 -10 18 0 10 -9 24 -20 32 -11 8 -20 22 -20 32 0
10 -4 18 -10 18 -5 0 -10 8 -10 18 0 10 -9 24 -20 32 -11 8 -20 22 -20 32 0
10 -4 18 -10 18 -5 0 -10 8 -10 18 0 10 -9 24 -20 32 -11 8 -20 21 -20 30 0 9
-9 22 -20 30 -11 8 -20 21 -20 30 0 9 -9 22 -20 30 -11 8 -20 21 -20 30 0 9
-9 22 -20 30 -11 8 -20 21 -20 30 0 9 -9 22 -20 30 -11 8 -20 21 -20 30 0 9
-9 22 -20 30 -11 8 -20 21 -20 30 0 9 -9 22 -20 30 -11 8 -20 21 -20 28 0 8
-13 27 -30 42 -16 15 -30 33 -30 40 0 7 -14 25 -30 40 -16 15 -30 33 -30 40 0
7 -14 25 -30 40 -16 15 -30 33 -30 40 0 7 -13 25 -30 40 -16 15 -30 33 -30 40
0 7 -13 25 -30 40 -16 15 -30 33 -30 40 0 7 -13 25 -30 40 -16 15 -30 35 -30
44 0 9 -4 16 -10 16 -5 0 -10 9 -10 20 0 11 -4 20 -10 20 -5 0 -10 8 -10 18 0
10 -9 24 -20 32 -11 8 -20 22 -20 32 0 11 7 18 20 18 12 0 20 -7 20 -16 0 -18
23 -44 40 -44 6 0 42 -31 80 -70 38 -39 74 -70 81 -70 6 0 24 -13 39 -30 21
-23 37 -30 64 -30 20 0 36 -4 36 -10 0 -5 7 -10 15 -10 19 0 85 -64 85 -82 0
-8 9 -20 20 -28 11 -8 20 -26 20 -40 0 -14 9 -32 20 -40 11 -8 20 -20 20 -28
0 -22 48 -62 75 -62 21 0 25 5 25 30 0 17 5 30 10 30 6 0 10 14 10 30 0 17 -4
30 -10 30 -5 0 -10 9 -10 20 0 11 -4 20 -10 20 -5 0 -10 7 -10 15 0 17 -204
225 -221 225 -6 0 -24 14 -39 30 -15 17 -33 30 -39 30 -6 0 -63 52 -126 115
l-115 115 0 51 c0 51 -15 79 -42 79 -8 0 -20 9 -28 20 -8 11 -20 20 -28 20
-16 0 -42 -24 -42 -40 0 -6 -7 -18 -15 -26 -13 -13 -19 -11 -50 20 -19 19 -35
40 -35 47 0 6 -13 24 -30 39 -16 15 -30 33 -30 40 0 6 -27 38 -60 70 -33 32
-60 66 -60 74 0 9 -4 16 -10 16 -5 0 -10 23 -10 50 0 28 5 50 10 50 6 0 10 18
10 40 0 22 5 40 10 40 6 0 10 9 10 20 0 11 5 20 10 20 6 0 10 9 10 20 0 11 5
20 10 20 6 0 10 9 10 20 0 11 5 20 10 20 6 0 10 9 10 20 0 11 5 20 10 20 6 0
10 18 10 40 0 22 5 40 10 40 6 0 10 18 10 40 0 22 5 40 10 40 6 0 10 9 10 20
0 11 5 20 10 20 6 0 10 14 10 30 0 17 5 30 10 30 6 0 10 18 10 40 0 22 5 40
10 40 15 0 13 157 -2 162 -7 3 14 31 50 66 34 33 62 68 62 76 0 9 5 16 10 16
6 0 10 9 10 20 0 11 5 20 10 20 6 0 10 9 10 20 0 11 5 20 10 20 6 0 10 9 10
20 0 11 5 20 10 20 6 0 10 37 10 90 0 53 4 90 10 90 6 0 10 30 10 70 0 40 4
70 10 70 6 0 10 14 10 30 0 27 -3 30 -30 30 -16 0 -30 -4 -30 -10 0 -5 -13
-10 -30 -10 -16 0 -30 -4 -30 -10 0 -5 -9 -10 -20 -10 -11 0 -20 -4 -20 -10 0
-5 -9 -10 -20 -10 -11 0 -20 -4 -20 -10 0 -5 -9 -10 -20 -10 -11 0 -20 -4 -20
-10 0 -5 -13 -10 -30 -10 -16 0 -30 -4 -30 -10 0 -15 -29 -12 -46 4 -8 9 -14
34 -14 60 0 25 -4 46 -10 46 -5 0 -10 14 -10 30 0 17 -4 30 -10 30 -5 0 -10
14 -10 30 0 17 -4 30 -10 30 -5 0 -10 8 -10 18 0 10 -9 24 -20 32 -11 8 -20
21 -20 30 0 9 -9 22 -20 30 -11 8 -20 21 -20 30 0 9 -9 22 -20 30 -11 8 -20
22 -20 32 0 10 -4 18 -10 18 -5 0 -10 8 -10 18 0 10 -9 24 -20 32 -12 8 -20
26 -20 42 0 15 -4 28 -10 28 -5 0 -10 18 -10 40 0 22 -4 40 -10 40 -5 0 -10 9
-10 20 0 16 7 20 30 20 17 0 30 -4 30 -10 0 -6 27 -10 60 -10 33 0 60 -4 60
-10 0 -5 14 -10 30 -10 17 0 30 -4 30 -10 0 -5 13 -10 28 -10 16 0 34 -8 42
-20 8 -11 21 -20 30 -20 9 0 22 -9 30 -20 8 -11 21 -20 30 -20 9 0 22 -9 30
-20 8 -11 22 -20 32 -20 10 0 18 -4 18 -10 0 -5 16 -10 36 -10 27 0 43 -7 64
-30 34 -36 80 -42 80 -10 0 11 -4 20 -10 20 -5 0 -10 12 -10 26 0 29 -21 54
-44 54 -9 0 -16 5 -16 10 0 6 -9 10 -20 10 -11 0 -20 5 -20 10 0 6 -9 10 -20
10 -11 0 -20 5 -20 10 0 6 -9 10 -20 10 -11 0 -20 5 -20 10 0 6 -7 10 -16 10
-9 0 -29 14 -44 30 -15 17 -34 30 -42 30 -7 0 -20 9 -28 20 -8 11 -22 20 -32
20 -10 0 -18 5 -18 10 0 6 -9 10 -20 10 -11 0 -20 5 -20 10 0 6 -7 10 -16 10
-19 0 -44 24 -44 42 0 8 -9 20 -20 28 -11 8 -20 22 -20 32 0 11 -7 18 -20 18
-11 0 -20 5 -20 10 0 6 -9 10 -20 10 -11 0 -20 5 -20 10 0 6 -13 10 -30 10
-16 0 -30 5 -30 10 0 6 -22 10 -50 10 -43 0 -50 3 -50 20 0 11 -4 20 -10 20
-5 0 -10 18 -10 40 0 22 -4 40 -10 40 -5 0 -10 18 -10 40 0 22 -4 40 -10 40
-5 0 -10 14 -10 30 0 17 -4 30 -10 30 -5 0 -10 18 -10 40 0 22 -4 40 -10 40
-5 0 -10 18 -10 40 0 22 -4 40 -10 40 -5 0 -10 18 -10 40 0 22 -4 40 -10 40
-5 0 -10 18 -10 40 0 22 -4 40 -10 40 -5 0 -10 14 -10 30 0 22 -5 30 -18 30
-10 0 -24 9 -32 20 -8 11 -20 20 -28 20 -18 0 -82 66 -82 85 0 8 -4 15 -10 15
-5 0 -10 8 -10 18 0 10 -9 24 -20 32 -11 8 -20 22 -20 32 0 10 -4 18 -10 18
-5 0 -10 8 -10 18 0 10 -9 24 -20 32 -11 8 -20 22 -20 32 0 10 -4 18 -10 18
-5 0 -10 9 -10 20 0 11 -4 20 -10 20 -5 0 -10 9 -10 20 0 11 -4 20 -10 20 -5
0 -10 8 -10 18 0 10 -9 24 -20 32 -11 8 -20 22 -20 32 0 10 -4 18 -10 18 -5 0
-10 14 -10 30 0 17 -4 30 -10 30 -5 0 -10 9 -10 20 0 11 -4 20 -10 20 -5 0
-10 14 -10 30 0 17 -4 30 -10 30 -5 0 -10 14 -10 30 0 17 -4 30 -10 30 -5 0
-10 7 -10 15 0 9 -31 47 -70 85 -38 38 -70 76 -70 85 0 8 -4 15 -10 15 -5 0
-10 9 -10 20 0 11 -4 20 -10 20 -5 0 -10 9 -10 20 0 11 -4 20 -10 20 -5 0 -10
14 -10 30 0 17 -4 30 -10 30 -5 0 -10 9 -10 20 0 11 -4 20 -10 20 -5 0 -10 14
-10 30 0 17 -4 30 -10 30 -5 0 -10 14 -10 30 0 17 -4 30 -10 30 -5 0 -10 9
-10 20 0 11 -4 20 -10 20 -5 0 -10 9 -10 20 0 11 -4 20 -10 20 -5 0 -10 7 -10
16 0 9 -13 29 -30 44 -16 15 -30 33 -30 40 0 7 -13 25 -30 40 -16 15 -30 33
-30 40 0 6 -27 38 -60 70 -33 32 -60 64 -60 70 0 6 -45 55 -100 110 -55 55
-100 104 -100 110 0 6 -90 100 -200 210 -184 184 -200 202 -200 235 0 19 -4
35 -10 35 -5 0 -10 18 -10 40 0 22 -4 40 -10 40 -5 0 -10 18 -10 40 0 22 -4
40 -10 40 -5 0 -10 14 -10 30 0 17 -4 30 -10 30 -5 0 -10 18 -10 40 0 22 -4
40 -10 40 -5 0 -10 14 -10 30 0 17 -4 30 -10 30 -5 0 -10 18 -10 40 0 22 -4
40 -10 40 -5 0 -10 18 -10 40 0 22 -4 40 -10 40 -5 0 -10 18 -10 40 0 22 -4
40 -10 40 -6 0 -10 43 -10 110 0 67 4 110 10 110 6 0 10 -13 10 -30 0 -16 5
-30 10 -30 6 0 10 -9 10 -20 0 -11 5 -20 10 -20 6 0 10 -13 10 -30 0 -16 5
-30 10 -30 6 0 10 -13 10 -30 0 -16 5 -30 10 -30 6 0 10 -13 10 -30 0 -16 5
-30 10 -30 6 0 10 -12 10 -26 0 -33 21 -54 54 -54 22 0 26 4 26 30 0 17 -4 30
-10 30 -5 0 -10 14 -10 30 0 17 -4 30 -10 30 -5 0 -10 14 -10 30 0 17 -4 30
-10 30 -5 0 -10 14 -10 30 0 17 -4 30 -10 30 -5 0 -10 13 -10 28 0 16 -8 34
-20 42 -11 8 -20 21 -20 30 0 9 -9 22 -20 30 -11 8 -20 21 -20 30 0 9 -9 22
-20 30 -11 8 -20 20 -20 28 0 13 -23 42 -34 42 -3 0 -6 -45 -6 -100 0 -60 -4
-100 -10 -100 -6 0 -10 -33 -10 -80 0 -47 4 -80 10 -80 6 0 10 -18 10 -40 0
-22 5 -40 10 -40 6 0 10 -18 10 -40 0 -22 5 -40 10 -40 6 0 10 -18 10 -40 0
-22 5 -40 10 -40 6 0 10 -18 10 -40 0 -22 5 -40 10 -40 6 0 10 -13 10 -30 0
-16 5 -30 10 -30 6 0 10 -18 10 -40 0 -22 5 -40 10 -40 6 0 10 -13 10 -30 0
-16 5 -30 10 -30 6 0 10 -9 10 -20 0 -11 -4 -20 -10 -20 -5 0 -10 9 -10 20 0
11 -4 20 -10 20 -5 0 -10 9 -10 20 0 11 -4 20 -10 20 -5 0 -10 9 -10 20 0 11
-4 20 -10 20 -5 0 -10 9 -10 20 0 11 -4 20 -10 20 -5 0 -10 14 -10 30 0 17 -4
30 -10 30 -5 0 -10 18 -10 40 0 22 -4 40 -10 40 -5 0 -10 14 -10 30 0 17 -4
30 -10 30 -5 0 -10 14 -10 30 0 17 -4 30 -10 30 -5 0 -10 14 -10 30 0 17 -4
30 -10 30 -5 0 -10 9 -10 20 0 11 -4 20 -10 20 -5 0 -10 14 -10 30 0 17 -4 30
-10 30 -5 0 -10 9 -10 20 0 11 -4 20 -10 20 -5 0 -10 9 -10 20 0 11 -4 20 -10
20 -5 0 -10 14 -10 30 0 17 -4 30 -10 30 -5 0 -10 9 -10 20 0 11 -4 20 -10 20
-5 0 -10 9 -10 20 0 11 -4 20 -10 20 -5 0 -10 14 -10 30 0 17 -4 30 -10 30 -5
0 -10 9 -10 20 0 11 -4 20 -10 20 -5 0 -10 14 -10 30 0 17 -4 30 -10 30 -5 0
-10 9 -10 20 0 11 -4 20 -10 20 -5 0 -10 23 -10 50 0 28 -4 50 -10 50 -5 0
-10 23 -10 50 0 28 -4 50 -10 50 -5 0 -10 14 -10 30 0 17 -4 30 -10 30 -5 0
-10 14 -10 30 0 17 -4 30 -10 30 -5 0 -10 14 -10 30 0 17 -4 30 -10 30 -5 0
-10 14 -10 30 0 17 -4 30 -10 30 -5 0 -10 14 -10 30 0 17 -4 30 -10 30 -6 0
-10 27 -10 60 0 33 -4 60 -10 60 -5 0 -10 23 -10 50 0 28 -4 50 -10 50 -6 0
-10 37 -10 90 0 53 -4 90 -10 90 -6 0 -10 43 -10 110 0 67 -4 110 -10 110 -6
0 -10 30 -10 70 0 40 -4 70 -10 70 -6 0 -10 40 -10 100 0 60 -4 100 -10 100
-6 0 -10 47 -10 120 0 73 4 120 10 120 6 0 10 18 10 40 0 22 -4 40 -10 40 -6
0 -10 30 -10 70 0 40 -4 70 -10 70 -6 0 -10 43 -10 110 l0 110 40 0 c22 0 40
-4 40 -10 0 -5 8 -10 18 -10 10 0 24 -9 32 -20 8 -11 21 -20 30 -20 9 0 22 9
30 20 8 11 21 20 28 20 7 0 31 18 52 40 21 22 43 40 50 40 20 0 60 49 60 75 0
14 5 25 10 25 6 0 10 14 10 30 0 17 5 30 10 30 6 0 10 27 10 60 0 33 -4 60
-10 60 -5 0 -10 9 -10 20 0 11 -4 20 -10 20 -5 0 -10 9 -10 20 0 11 -4 20 -10
20 -5 0 -10 9 -10 20 0 11 -4 20 -10 20 -5 0 -10 7 -10 15 0 8 -38 53 -85 100
-61 62 -92 85 -110 85 -18 0 -25 -5 -25 -20 0 -11 -4 -20 -10 -20 -5 0 -10 5
-10 10 0 6 -7 10 -16 10 -9 0 -25 9 -35 21 -16 19 -20 20 -34 6 -8 -9 -15 -23
-15 -31 0 -11 -9 -16 -30 -16 -28 0 -30 -2 -30 -40 0 -22 -4 -40 -10 -40 -5 0
-10 14 -10 30 0 17 -4 30 -10 30 -5 0 -10 14 -10 30 0 17 5 30 10 30 15 0 12
49 -4 66 -19 18 -162 20 -170 2 -5 -10 -7 -10 -12 0 -10 22 -77 13 -101 -13z
m527 -195 c8 -11 20 -20 28 -20 18 0 62 -46 62 -65 0 -8 5 -15 10 -15 6 0 10
-8 10 -18 0 -10 9 -24 20 -32 11 -8 20 -22 20 -32 0 -10 5 -18 10 -18 6 0 10
-9 10 -20 0 -11 -4 -20 -10 -20 -5 0 -10 -18 -10 -40 l0 -40 -50 0 c-27 0 -50
5 -50 10 0 6 -7 10 -16 10 -9 0 -29 14 -44 30 -15 17 -33 30 -40 30 -16 0 -40
26 -40 44 0 9 5 16 10 16 6 0 10 18 10 40 0 22 5 40 10 40 6 0 10 14 10 30 0
17 5 30 10 30 6 0 10 14 10 30 0 35 10 38 30 10z m-1010 -2070 c0 -16 5 -30
10 -30 6 0 10 -22 10 -50 0 -27 5 -50 10 -50 6 0 10 -33 10 -80 0 -47 -4 -80
-10 -80 -6 0 -10 -60 -10 -160 0 -88 -4 -160 -8 -160 -4 0 -14 9 -22 20 -8 11
-21 20 -30 20 -9 0 -22 9 -30 20 -18 25 -30 26 -30 2 0 -10 -9 -24 -20 -32
-11 -8 -20 -21 -20 -30 0 -9 -9 -22 -20 -30 -11 -8 -20 -22 -20 -32 0 -10 -4
-18 -10 -18 -5 0 -10 -7 -10 -16 0 -9 -10 -26 -22 -37 -16 -13 -19 -21 -10
-24 6 -3 12 -18 12 -34 0 -16 5 -29 10 -29 18 0 10 -31 -15 -55 -16 -17 -35
-25 -60 -25 -19 0 -35 -4 -35 -10 0 -5 -13 -10 -30 -10 -16 0 -30 -4 -30 -10
0 -6 -27 -10 -60 -10 -33 0 -60 4 -60 10 0 6 5 10 10 10 6 0 10 9 10 20 0 11
5 20 10 20 6 0 10 14 10 30 0 17 5 30 10 30 6 0 10 9 10 20 0 11 5 20 10 20 6
0 10 14 10 30 0 17 5 30 10 30 6 0 10 9 10 20 0 11 5 20 10 20 6 0 10 7 10 15
0 9 63 78 140 155 l140 139 0 76 c0 43 4 75 10 75 6 0 10 9 10 20 0 11 5 20
10 20 6 0 10 18 10 40 0 22 5 40 10 40 6 0 10 18 10 40 0 22 5 40 10 40 6 0
10 14 10 30 0 17 5 30 10 30 6 0 10 -13 10 -30z m-300 -160 c0 -5 14 -10 30
-10 17 0 30 -4 30 -10 0 -5 9 -10 20 -10 11 0 20 -7 20 -15 0 -18 -44 -65 -60
-65 -14 0 -80 -66 -80 -80 0 -7 -18 -29 -40 -50 -22 -21 -40 -44 -40 -50 0
-17 -30 -44 -38 -35 -4 4 -1 10 6 12 6 3 12 18 12 34 0 16 5 29 10 29 6 0 10
9 10 20 0 11 5 20 10 20 6 0 10 9 10 20 0 11 5 20 10 20 6 0 10 14 10 30 0 17
5 30 10 30 6 0 10 9 10 20 0 11 5 20 10 20 6 0 10 9 10 20 0 11 5 20 10 20 6
0 10 9 10 20 0 11 5 20 10 20 6 0 10 -4 10 -10z m140 -156 c0 -44 -16 -74 -39
-74 -15 0 -181 -166 -181 -181 0 -6 -13 -24 -30 -39 -16 -15 -30 -35 -30 -44
0 -9 -4 -16 -10 -16 -5 0 -10 -9 -10 -20 0 -11 -4 -20 -10 -20 -5 0 -10 -13
-10 -30 0 -16 -4 -30 -10 -30 -5 0 -10 -9 -10 -20 0 -11 -4 -20 -10 -20 -5 0
-10 -13 -10 -30 0 -16 -4 -30 -10 -30 -5 0 -10 -7 -10 -16 0 -20 -24 -44 -44
-44 -9 0 -16 8 -16 20 0 11 5 20 10 20 6 0 10 9 10 20 0 11 5 20 10 20 6 0 10
9 10 20 0 11 5 20 10 20 6 0 10 9 10 20 0 11 5 20 10 20 6 0 10 9 10 20 0 11
5 20 10 20 6 0 10 9 10 20 0 11 5 20 10 20 6 0 10 9 10 20 0 11 5 20 10 20 6
0 10 9 10 20 0 11 5 20 10 20 6 0 10 9 10 20 0 11 5 20 10 20 6 0 10 7 10 16
0 9 14 29 30 44 17 15 30 33 30 40 0 7 14 25 30 40 17 15 30 33 30 39 0 16 46
61 62 61 7 0 24 14 38 30 14 16 28 30 33 30 4 0 7 -21 7 -46z m0 -630 c0 -9
14 -29 30 -44 18 -17 30 -38 30 -54 0 -14 5 -26 10 -26 6 0 10 -9 10 -20 0
-16 7 -20 30 -20 27 0 30 3 30 30 0 17 -4 30 -10 30 -5 0 -10 9 -10 20 0 13 7
20 20 20 19 0 20 -7 20 -120 0 -73 -4 -120 -10 -120 -6 0 -10 -73 -10 -200 0
-178 -2 -200 -16 -200 -9 0 -26 10 -37 23 -13 15 -21 18 -24 10 -6 -15 -83
-18 -83 -3 0 6 -9 10 -20 10 -11 0 -20 -4 -20 -10 0 -5 -13 -10 -30 -10 -28 0
-30 -2 -30 -38 0 -26 6 -42 20 -52 11 -8 20 -21 20 -30 0 -9 9 -22 20 -30 11
-8 20 -20 20 -27 0 -16 85 -103 100 -103 6 0 31 -20 55 -45 36 -36 45 -51 45
-80 0 -32 -2 -35 -30 -35 -16 0 -30 -4 -30 -10 0 -5 -7 -10 -16 -10 -9 0 -29
-13 -44 -30 -15 -16 -33 -30 -40 -30 -16 0 -40 -26 -40 -44 0 -9 -4 -16 -10
-16 -5 0 -10 -13 -10 -30 0 -16 -4 -30 -10 -30 -5 0 -10 -9 -10 -19 0 -11 -6
-22 -12 -24 -10 -4 -9 -8 2 -17 11 -9 12 -13 3 -17 -7 -2 -13 -13 -13 -24 0
-16 7 -19 40 -19 33 0 40 -3 40 -20 0 -11 -4 -20 -10 -20 -5 0 -10 -13 -10
-30 0 -16 -4 -30 -10 -30 -5 0 -10 -13 -10 -30 0 -23 4 -30 20 -30 11 0 20 -4
20 -10 0 -5 9 -10 20 -10 11 0 20 -4 20 -10 0 -5 9 -10 20 -10 11 0 20 -4 20
-10 0 -5 7 -10 16 -10 8 0 22 -6 30 -14 16 -17 19 -46 4 -46 -5 0 -10 -22 -10
-50 0 -27 -4 -50 -10 -50 -5 0 -10 -18 -10 -40 0 -22 -4 -40 -10 -40 -5 0 -10
-9 -10 -20 0 -11 -4 -20 -10 -20 -5 0 -10 -13 -10 -30 0 -16 -4 -30 -10 -30
-5 0 -10 -13 -10 -30 0 -16 -4 -30 -10 -30 -5 0 -10 -9 -10 -20 0 -11 -4 -20
-10 -20 -5 0 -10 -9 -10 -20 0 -11 -4 -20 -10 -20 -5 0 -10 -9 -10 -20 0 -11
-4 -20 -10 -20 -5 0 -10 -9 -10 -20 0 -11 -4 -20 -10 -20 -5 0 -10 -9 -10 -20
0 -11 -4 -20 -10 -20 -5 0 -10 -13 -10 -30 0 -21 5 -30 16 -30 19 0 44 24 44
42 0 8 9 20 20 28 11 8 20 22 20 32 0 10 5 18 10 18 6 0 10 9 10 20 0 11 5 20
10 20 6 0 10 9 10 20 0 11 5 20 10 20 6 0 10 14 10 30 0 17 5 30 10 30 6 0 10
9 10 20 0 11 5 20 10 20 6 0 10 14 10 30 0 17 5 30 10 30 6 0 10 -13 10 -30 0
-16 -4 -30 -10 -30 -5 0 -10 -18 -10 -40 0 -22 -4 -40 -10 -40 -5 0 -10 -18
-10 -40 0 -22 -4 -40 -10 -40 -5 0 -10 -18 -10 -40 0 -22 -4 -40 -10 -40 -5 0
-10 -13 -10 -30 0 -16 -4 -30 -10 -30 -6 0 -10 -27 -10 -60 0 -33 -4 -60 -10
-60 -6 0 -10 -27 -10 -60 0 -33 -4 -60 -10 -60 -5 0 -10 -18 -10 -40 0 -22 -4
-40 -10 -40 -5 0 -10 -13 -10 -30 0 -16 -4 -30 -10 -30 -5 0 -10 -18 -10 -40
0 -22 -4 -40 -10 -40 -5 0 -10 -13 -10 -30 0 -16 -4 -30 -10 -30 -5 0 -10 -13
-10 -30 0 -16 -4 -30 -10 -30 -5 0 -10 -13 -10 -30 0 -16 -4 -30 -10 -30 -5 0
-10 -13 -10 -30 0 -16 -4 -30 -10 -30 -5 0 -10 -13 -10 -30 0 -16 -4 -30 -10
-30 -5 0 -10 -13 -10 -30 0 -16 -4 -30 -10 -30 -5 0 -10 -13 -10 -30 0 -16 -4
-30 -10 -30 -5 0 -10 -13 -10 -30 0 -16 -4 -30 -10 -30 -5 0 -10 -13 -10 -30
0 -16 -4 -30 -10 -30 -5 0 -10 -13 -10 -30 0 -16 -4 -30 -10 -30 -5 0 -10 -9
-10 -20 0 -11 -4 -20 -10 -20 -5 0 -10 -13 -10 -30 0 -16 -4 -30 -10 -30 -5 0
-10 -13 -10 -30 0 -16 -4 -30 -10 -30 -5 0 -10 -9 -10 -20 0 -11 -4 -20 -10
-20 -5 0 -10 -13 -10 -30 0 -16 -4 -30 -10 -30 -5 0 -10 -13 -10 -30 0 -16 -4
-30 -10 -30 -5 0 -10 -7 -10 -16 0 -23 -25 -44 -54 -44 -22 0 -26 -5 -26 -29
0 -16 6 -32 13 -35 10 -5 10 -7 0 -12 -7 -3 -13 -14 -13 -25 0 -10 -4 -19 -10
-19 -5 0 -10 -9 -10 -20 0 -11 -4 -20 -10 -20 -5 0 -10 -8 -10 -18 0 -10 -9
-24 -20 -32 -11 -8 -20 -21 -20 -30 0 -9 -9 -22 -20 -30 -11 -8 -20 -21 -20
-30 0 -9 -9 -22 -20 -30 -11 -8 -20 -21 -20 -28 0 -8 -13 -27 -30 -42 -16 -15
-30 -33 -30 -39 0 -21 -49 -61 -75 -61 -14 0 -25 5 -25 10 0 6 -4 10 -10 10
-5 0 -10 -8 -10 -18 0 -10 -9 -24 -20 -32 -11 -8 -20 -21 -20 -30 0 -9 -9 -22
-20 -30 -11 -8 -20 -20 -20 -27 0 -17 -106 -123 -123 -123 -7 0 -19 -9 -27
-20 -8 -11 -21 -20 -28 -20 -8 0 -27 -13 -42 -30 -15 -16 -33 -30 -40 -30 -7
0 -25 -13 -40 -30 -20 -21 -37 -30 -60 -30 -44 0 -60 20 -60 74 0 25 -4 46
-10 46 -6 0 -10 63 -10 170 0 107 4 170 10 170 6 0 10 14 10 30 0 17 5 30 10
30 6 0 10 18 10 40 0 22 5 40 10 40 6 0 10 9 10 20 0 13 -7 20 -20 20 -19 0
-20 7 -20 120 0 73 4 120 10 120 6 0 10 23 10 50 0 49 1 50 30 50 17 0 30 5
30 10 0 6 14 10 30 10 17 0 30 5 30 10 0 6 14 10 30 10 33 0 40 21 16 46 -17
16 -66 19 -66 4 0 -5 -9 -10 -20 -10 -11 0 -20 -4 -20 -10 0 -5 -9 -10 -20
-10 -26 0 -25 8 1 31 19 16 20 20 6 34 -24 23 -56 18 -87 -15 -33 -35 -40 -37
-40 -10 0 11 5 20 10 20 6 0 10 40 10 100 0 60 4 100 10 100 6 0 10 14 10 30
0 17 5 30 10 30 6 0 10 14 10 30 0 17 5 30 10 30 6 0 10 47 10 120 0 73 -4
120 -10 120 -6 0 -10 30 -10 70 0 40 -4 70 -10 70 -6 0 -10 73 -10 200 0 127
4 200 10 200 6 0 10 67 10 180 0 113 4 180 10 180 6 0 10 47 10 120 0 73 4
120 10 120 6 0 10 30 10 70 0 40 4 70 10 70 6 0 10 18 10 40 0 22 5 40 10 40
6 0 10 18 10 40 0 22 5 40 10 40 6 0 10 14 10 30 0 17 5 30 10 30 6 0 10 14
10 30 0 17 5 30 10 30 6 0 10 18 10 40 0 22 5 40 10 40 6 0 10 14 10 30 0 17
5 30 10 30 6 0 10 9 10 20 0 11 5 20 10 20 6 0 10 14 10 30 0 17 5 30 10 30 6
0 10 14 10 30 0 17 5 30 10 30 6 0 10 9 10 20 0 11 5 20 10 20 6 0 10 -9 10
-20 0 -24 6 -25 26 -6 8 8 14 31 14 50 0 20 5 36 10 36 6 0 10 14 10 30 0 17
5 30 10 30 6 0 10 9 10 20 0 11 5 20 10 20 6 0 10 7 10 16 0 9 14 29 30 44 17
15 30 34 30 42 0 7 9 20 20 28 11 8 20 21 20 30 0 9 9 22 20 30 11 8 20 21 20
28 0 7 18 31 40 52 22 21 40 44 40 50 0 7 14 25 30 40 17 15 30 33 30 40 0 7
14 25 30 40 17 15 30 34 30 42 0 7 9 20 20 28 11 8 20 21 20 30 0 9 9 22 20
30 11 8 20 22 20 32 0 10 5 18 10 18 6 0 10 8 10 18 0 10 9 24 20 32 11 8 20
22 20 32 0 10 5 18 10 18 6 0 10 9 10 20 0 11 5 20 10 20 6 0 10 8 10 18 0 10
9 24 20 32 11 8 20 20 20 28 0 32 28 42 114 42 51 0 86 4 86 10 0 6 14 10 30
10 17 0 30 5 30 10 0 6 17 10 38 10 26 0 42 6 52 20 17 24 50 27 50 4z m2386
-1478 c8 -8 14 -20 14 -26 0 -6 27 -38 60 -70 33 -32 60 -64 60 -70 0 -7 14
-25 30 -40 17 -15 30 -35 30 -44 0 -9 5 -16 10 -16 6 0 10 -13 10 -30 0 -16 5
-30 10 -30 6 0 10 -9 10 -20 0 -11 5 -20 10 -20 6 0 10 -9 10 -20 0 -11 5 -20
10 -20 6 0 10 -13 10 -30 0 -16 5 -30 10 -30 6 0 10 -9 10 -20 0 -11 -4 -20
-10 -20 -5 0 -10 8 -10 18 0 10 -9 24 -20 32 -11 8 -20 21 -20 30 0 9 -9 22
-20 30 -11 8 -20 21 -20 30 0 9 -9 22 -20 30 -11 8 -20 22 -20 32 0 10 -4 18
-10 18 -5 0 -10 9 -10 20 0 11 -4 20 -10 20 -5 0 -10 9 -10 20 0 11 -4 20 -10
20 -5 0 -10 8 -10 18 0 10 -9 24 -20 32 -11 8 -20 22 -20 32 0 10 -4 18 -10
18 -5 0 -10 8 -10 18 0 10 -9 24 -20 32 -11 8 -20 22 -20 32 0 10 -4 18 -10
18 -5 0 -10 5 -10 10 0 14 9 12 26 -4z m-71 -111 c14 -13 25 -29 25 -35 0 -7
18 -29 40 -50 22 -21 40 -44 40 -50 0 -7 14 -25 30 -40 17 -15 30 -35 30 -44
0 -9 5 -16 10 -16 6 0 10 -9 10 -20 0 -11 5 -20 10 -20 6 0 10 -8 10 -18 0
-10 9 -24 20 -32 11 -8 20 -21 20 -30 0 -9 9 -22 20 -30 11 -8 20 -21 20 -30
0 -9 9 -22 20 -30 11 -8 20 -20 20 -28 0 -7 23 -35 50 -62 28 -27 50 -55 50
-62 0 -8 9 -20 20 -28 11 -8 20 -22 20 -32 0 -10 5 -18 10 -18 6 0 10 -9 10
-20 0 -11 5 -20 10 -20 6 0 10 -9 10 -20 0 -11 5 -20 10 -20 6 0 10 -9 10 -20
0 -11 5 -20 10 -20 6 0 10 -8 10 -18 0 -10 9 -24 20 -32 11 -8 20 -22 20 -32
0 -10 5 -18 10 -18 6 0 10 -8 10 -18 0 -10 9 -24 20 -32 11 -8 20 -22 20 -32
0 -10 5 -18 10 -18 6 0 10 -9 10 -20 0 -11 5 -20 10 -20 6 0 10 -9 10 -20 0
-11 5 -20 10 -20 6 0 10 -9 10 -20 0 -11 5 -20 10 -20 6 0 10 -9 10 -20 0 -11
5 -20 10 -20 6 0 10 -7 10 -16 0 -9 10 -25 22 -35 11 -11 19 -22 15 -25 -8 -8
-77 62 -77 78 0 8 -9 20 -20 28 -11 8 -20 21 -20 30 0 9 -9 22 -20 30 -11 8
-20 22 -20 32 0 10 -4 18 -10 18 -5 0 -10 8 -10 18 0 10 -9 24 -20 32 -11 8
-20 21 -20 30 0 9 -9 22 -20 30 -11 8 -20 22 -20 32 0 10 -4 18 -10 18 -5 0
-10 9 -10 20 0 11 -4 20 -10 20 -5 0 -10 8 -10 18 0 10 -9 24 -20 32 -11 8
-20 21 -20 30 0 9 -9 22 -20 30 -11 8 -20 21 -20 30 0 9 -9 22 -20 30 -11 8
-20 22 -20 32 0 10 -4 18 -10 18 -5 0 -10 8 -10 18 0 10 -9 24 -20 32 -11 8
-20 22 -20 32 0 10 -4 18 -10 18 -5 0 -10 8 -10 18 0 10 -9 24 -20 32 -11 8
-20 22 -20 32 0 10 -4 18 -10 18 -5 0 -10 8 -10 18 0 10 -9 24 -20 32 -11 8
-20 22 -20 32 0 10 -4 18 -10 18 -5 0 -10 8 -10 18 0 10 -9 24 -20 32 -11 8
-20 22 -20 32 0 10 -4 18 -10 18 -5 0 -10 8 -10 18 0 10 -9 24 -20 32 -11 8
-20 21 -20 28 0 8 -13 27 -30 42 -16 15 -30 34 -30 42 0 7 -9 20 -20 28 -19
14 -27 30 -15 30 3 0 17 -11 30 -25z m-1355 -145 c0 -5 7 -10 15 -10 9 0 27
-11 40 -25 14 -13 25 -31 25 -40 0 -8 5 -15 10 -15 6 0 10 -9 10 -20 0 -17 -7
-20 -40 -20 -22 0 -40 5 -40 10 0 6 -27 10 -60 10 -74 0 -77 13 -17 75 43 44
57 53 57 35z m40 -180 c0 -5 23 -10 50 -10 28 0 50 -4 50 -10 0 -5 -9 -10 -20
-10 -11 0 -20 -4 -20 -10 0 -5 -7 -10 -15 -10 -18 0 -65 -44 -65 -60 0 -17
-26 -40 -44 -40 -9 0 -16 -4 -16 -10 0 -5 -9 -10 -20 -10 -16 0 -20 -7 -20
-30 0 -23 4 -30 20 -30 11 0 20 -4 20 -10 0 -5 9 -10 20 -10 13 0 20 7 20 20
0 17 7 20 40 20 22 0 40 -4 40 -10 0 -5 7 -10 16 -10 22 0 53 -32 36 -38 -8
-2 -12 -35 -12 -113 l0 -109 -50 0 c-27 0 -50 5 -50 10 0 6 -9 10 -20 10 -11
0 -20 5 -20 10 0 6 -13 10 -30 10 -16 0 -30 5 -30 10 0 6 -9 10 -20 10 -11 0
-20 5 -20 10 0 6 -9 10 -20 10 -13 0 -20 7 -20 18 0 10 9 24 20 32 11 8 20 22
20 32 0 11 -7 18 -20 18 -13 0 -20 7 -20 20 0 11 -4 20 -10 20 -14 0 -12 38 3
43 8 3 5 11 -10 24 -23 20 -32 73 -13 73 6 0 10 14 10 30 0 17 5 30 10 30 6 0
10 11 10 25 0 46 17 54 113 55 51 0 87 -4 87 -10z m-230 -450 c8 -12 26 -20
42 -20 15 0 28 -4 28 -10 0 -5 9 -10 20 -10 11 0 20 -4 20 -10 0 -5 14 -10 30
-10 17 0 30 -4 30 -10 0 -5 9 -10 20 -10 11 0 20 -4 20 -10 0 -5 18 -10 40
-10 38 0 40 -2 40 -30 0 -16 -4 -30 -10 -30 -18 0 -11 -55 10 -70 11 -8 20
-22 20 -31 0 -10 6 -19 13 -22 7 -2 8 -8 3 -13 -5 -5 -11 -4 -13 4 -3 6 -13
12 -24 12 -10 0 -19 5 -19 10 0 6 -9 10 -20 10 -11 0 -20 5 -20 10 0 6 -8 10
-18 10 -10 0 -24 9 -32 20 -8 11 -20 20 -27 20 -19 0 -163 146 -163 165 0 8
-4 15 -10 15 -5 0 -10 9 -10 20 0 11 4 20 8 20 4 0 14 -9 22 -20z m-170 -250
c0 -5 14 -10 30 -10 17 0 30 -4 30 -10 0 -5 14 -10 30 -10 17 0 30 -4 30 -10
0 -5 8 -10 18 -10 10 0 24 -9 32 -20 8 -11 22 -20 32 -20 10 0 18 -4 18 -10 0
-5 9 -10 20 -10 11 0 20 -4 20 -10 0 -5 9 -10 20 -10 11 0 20 -4 20 -10 0 -5
-13 -10 -30 -10 -16 0 -30 -4 -30 -10 0 -5 -22 -10 -50 -10 -27 0 -50 5 -50
10 0 6 -22 10 -50 10 -27 0 -50 5 -50 10 0 6 -18 10 -40 10 l-40 0 0 70 c0 63
2 70 20 70 11 0 20 -4 20 -10z m240 -320 c0 -6 40 -10 100 -10 55 0 100 -3
100 -6 0 -11 -29 -34 -42 -34 -8 0 -20 -9 -28 -20 -8 -11 -20 -20 -28 -20 -22
0 -62 -48 -62 -75 0 -34 25 -32 60 5 15 17 33 30 40 30 7 0 25 14 40 30 15 17
34 30 42 30 7 0 20 9 28 20 15 21 50 28 50 10 0 -5 -4 -10 -10 -10 -5 0 -10
-9 -10 -20 0 -11 -4 -20 -10 -20 -5 0 -10 -9 -10 -20 0 -11 -4 -20 -10 -20 -5
0 -10 -13 -10 -30 0 -28 -2 -30 -40 -30 -36 0 -40 -2 -40 -25 0 -29 -59 -95
-85 -95 -8 0 -15 -4 -15 -10 0 -5 -13 -10 -30 -10 -16 0 -30 -4 -30 -10 0 -5
-13 -10 -30 -10 -16 0 -30 -4 -30 -10 0 -5 -9 -10 -20 -10 -11 0 -20 -4 -20
-10 0 -6 -63 -10 -170 -10 -107 0 -170 4 -170 10 0 6 -22 10 -50 10 -41 0 -50
3 -50 18 0 10 9 24 20 32 11 8 20 22 20 32 0 10 5 18 10 18 6 0 10 9 10 20 0
11 5 20 10 20 6 0 10 9 10 20 0 11 5 20 10 20 6 0 10 8 10 18 0 10 9 24 20 32
12 8 20 26 20 42 0 15 5 28 10 28 6 0 10 14 10 30 0 17 5 30 10 30 6 0 10 -4
10 -10 0 -5 18 -10 40 -10 22 0 40 -4 40 -10 0 -5 18 -10 40 -10 22 0 40 -4
40 -10 0 -5 23 -10 50 -10 28 0 50 -4 50 -10 0 -5 18 -10 40 -10 22 0 40 -4
40 -10 0 -5 14 -10 30 -10 27 0 30 3 30 30 0 23 -4 30 -20 30 -11 0 -20 5 -20
10 0 6 -18 10 -40 10 -22 0 -40 5 -40 10 0 6 -27 10 -60 10 -33 0 -60 4 -60
10 0 6 40 10 100 10 60 0 100 -4 100 -10z m2380 -40 c0 -5 9 -10 20 -10 13 0
20 -7 20 -20 0 -11 5 -20 10 -20 6 0 10 -9 10 -20 0 -11 5 -20 10 -20 6 0 10
-9 10 -20 0 -11 5 -20 10 -20 6 0 10 -9 10 -20 0 -11 5 -20 10 -20 6 0 10 -13
10 -30 0 -16 5 -30 10 -30 6 0 10 -9 10 -20 0 -11 5 -20 10 -20 6 0 10 -18 10
-40 0 -22 5 -40 10 -40 6 0 10 -33 10 -80 0 -47 4 -80 10 -80 6 0 10 -22 10
-50 0 -27 -2 -50 -5 -50 -13 0 -55 50 -55 65 0 8 -4 15 -10 15 -5 0 -10 23
-10 50 0 28 -4 50 -10 50 -6 0 -10 29 -10 68 0 56 -3 70 -20 82 -12 8 -20 26
-20 42 0 15 -4 28 -10 28 -5 0 -10 9 -10 20 0 11 -4 20 -10 20 -5 0 -10 9 -10
20 0 11 -4 20 -10 20 -6 0 -10 27 -10 60 0 33 -4 60 -10 60 -5 0 -10 5 -10 10
0 6 5 10 10 10 6 0 10 -4 10 -10z m-700 -110 c0 -11 5 -20 10 -20 6 0 10 -9
10 -20 0 -11 5 -20 10 -20 6 0 10 -8 10 -18 0 -10 9 -24 20 -32 11 -8 20 -22
20 -32 0 -10 5 -18 10 -18 6 0 10 -9 10 -20 0 -11 5 -20 10 -20 6 0 10 -8 10
-18 0 -10 9 -24 20 -32 11 -8 20 -21 20 -30 0 -9 9 -22 20 -30 11 -8 20 -21
20 -30 0 -9 9 -22 20 -30 24 -17 28 -93 6 -116 -20 -19 -26 -18 -26 6 0 11 -4
20 -10 20 -5 0 -10 9 -10 20 0 11 -4 20 -10 20 -5 0 -10 14 -10 30 0 17 -4 30
-10 30 -5 0 -10 9 -10 20 0 11 -4 20 -10 20 -5 0 -10 14 -10 30 0 17 -4 30
-10 30 -5 0 -10 9 -10 20 0 11 -4 20 -10 20 -5 0 -10 9 -10 20 0 11 -4 20 -10
20 -5 0 -10 9 -10 20 0 11 -4 20 -10 20 -5 0 -10 9 -10 20 0 11 -4 20 -10 20
-5 0 -10 9 -10 20 0 11 -4 20 -10 20 -5 0 -10 9 -10 20 0 11 -4 20 -10 20 -5
0 -10 9 -10 20 0 11 5 20 10 20 6 0 10 -9 10 -20z m-140 -150 c0 -16 5 -30 10
-30 6 0 10 -9 10 -20 0 -11 5 -20 10 -20 6 0 10 -9 10 -20 0 -11 5 -20 10 -20
6 0 10 -13 10 -30 0 -16 5 -30 10 -30 6 0 10 -13 10 -30 0 -16 5 -30 10 -30 6
0 10 -9 10 -20 0 -11 5 -20 10 -20 6 0 10 -40 10 -100 0 -60 4 -100 10 -100 6
0 10 -27 10 -60 0 -33 4 -60 10 -60 6 0 10 -22 10 -50 0 -27 5 -50 10 -50 6 0
10 -22 10 -50 0 -27 5 -50 10 -50 6 0 10 -18 10 -40 0 -22 -4 -40 -10 -40 -5
0 -10 18 -10 40 0 22 -4 40 -10 40 -5 0 -10 18 -10 40 0 22 -4 40 -10 40 -5 0
-10 23 -10 50 0 28 -4 50 -10 50 -5 0 -10 23 -10 50 0 28 -4 50 -10 50 -6 0
-10 30 -10 70 0 40 -4 70 -10 70 -5 0 -10 14 -10 30 0 17 -4 30 -10 30 -5 0
-10 9 -10 20 0 11 -4 20 -10 20 -5 0 -10 14 -10 30 0 17 -4 30 -10 30 -5 0
-10 14 -10 30 0 17 -4 30 -10 30 -5 0 -10 9 -10 20 0 11 -4 20 -10 20 -6 0
-10 30 -10 70 0 40 4 70 10 70 6 0 10 -13 10 -30z m-2100 -200 c0 -6 67 -10
180 -10 113 0 180 4 180 10 0 6 14 10 30 10 17 0 30 -4 30 -10 0 -5 -8 -10
-18 -10 -10 0 -24 -9 -32 -20 -8 -11 -22 -20 -32 -20 -10 0 -18 -4 -18 -10 0
-5 -13 -10 -30 -10 -16 0 -30 -4 -30 -10 0 -5 -13 -10 -30 -10 -16 0 -30 -4
-30 -10 0 -5 -18 -10 -40 -10 -22 0 -40 -4 -40 -10 0 -6 -43 -10 -110 -10
-103 0 -110 1 -110 20 0 11 5 20 10 20 6 0 10 14 10 30 0 17 5 30 10 30 6 0
10 9 10 20 0 16 7 20 30 20 17 0 30 -4 30 -10z m2100 -100 c0 -16 5 -30 10
-30 6 0 10 -13 10 -30 0 -16 5 -30 10 -30 6 0 10 -30 10 -70 0 -40 4 -70 10
-70 6 0 10 -22 10 -50 0 -27 5 -50 10 -50 6 0 10 -18 10 -40 0 -22 5 -40 10
-40 6 0 10 -18 10 -40 0 -22 5 -40 10 -40 6 0 10 -18 10 -40 0 -22 5 -40 10
-40 6 0 10 -27 10 -60 0 -33 4 -60 10 -60 6 0 10 -9 10 -20 0 -28 -6 -25 -50
20 -21 22 -46 40 -54 40 -9 0 -16 8 -16 20 0 11 -4 20 -10 20 -5 0 -10 9 -10
20 0 11 -4 20 -10 20 -6 0 -10 63 -10 170 0 107 -4 170 -10 170 -6 0 -10 50
-10 130 0 80 4 130 10 130 6 0 10 -13 10 -30z m1020 -120 c0 -5 9 -10 20 -10
18 0 20 -7 20 -60 0 -33 4 -60 10 -60 6 0 10 -33 10 -80 0 -47 4 -80 10 -80 6
0 10 -37 10 -90 0 -53 -4 -90 -10 -90 -5 0 -10 23 -10 50 0 28 -4 50 -10 50
-6 0 -10 27 -10 60 0 33 -4 60 -10 60 -6 0 -10 30 -10 70 0 40 -4 70 -10 70
-5 0 -10 18 -10 40 0 22 -4 40 -10 40 -5 0 -10 9 -10 20 0 11 5 20 10 20 6 0
10 -4 10 -10z m300 -80 c0 -5 11 -10 25 -10 26 0 95 -59 95 -80 0 -16 47 -60
65 -60 8 0 15 -4 15 -10 0 -5 -9 -10 -20 -10 -11 0 -20 5 -20 10 0 6 -22 10
-50 10 -27 0 -50 5 -50 10 0 6 -22 10 -50 10 -49 0 -50 1 -50 30 0 17 -4 30
-10 30 -5 0 -10 14 -10 30 0 17 -4 30 -10 30 -5 0 -10 5 -10 10 0 6 18 10 40
10 22 0 40 -4 40 -10z m-1020 -380 c0 -16 5 -30 10 -30 6 0 10 -13 10 -30 0
-16 5 -30 10 -30 6 0 10 -13 10 -30 0 -16 5 -30 10 -30 6 0 10 -13 10 -30 0
-16 5 -30 10 -30 6 0 10 -13 10 -30 0 -16 5 -30 10 -30 6 0 10 -9 10 -20 0
-11 -4 -20 -10 -20 -5 0 -10 5 -10 10 0 6 -8 10 -18 10 -10 0 -24 9 -32 20 -8
11 -22 20 -32 20 -16 0 -18 12 -18 140 0 87 4 140 10 140 6 0 10 -13 10 -30z
m1100 -148 c0 -10 9 -24 20 -32 11 -8 20 -21 20 -30 0 -9 9 -22 20 -30 11 -8
20 -22 20 -32 0 -10 5 -18 10 -18 6 0 10 -13 10 -30 0 -16 5 -30 10 -30 6 0
10 -13 10 -30 0 -16 5 -30 10 -30 6 0 10 -13 10 -30 0 -16 5 -30 10 -30 18 0
11 -55 -10 -70 -11 -8 -20 -22 -20 -32 0 -10 -4 -18 -10 -18 -5 0 -10 -9 -10
-20 0 -13 7 -20 20 -20 11 0 20 5 20 10 0 6 5 10 10 10 6 0 10 -20 10 -45 0
-35 -6 -52 -25 -70 -24 -25 -75 -35 -75 -15 0 6 -7 10 -16 10 -23 0 -44 25
-44 54 0 14 -4 26 -10 26 -5 0 -10 14 -10 30 0 17 -4 30 -10 30 -5 0 -10 14
-10 30 0 17 -4 30 -10 30 -6 0 -10 37 -10 90 0 53 4 90 10 90 6 0 10 37 10 90
0 53 4 90 10 90 6 0 10 9 10 20 0 11 5 20 10 20 6 0 10 -8 10 -18z m-1100
-172 c0 -5 7 -10 16 -10 8 0 22 -6 30 -14 8 -8 14 -22 14 -30 0 -9 5 -16 10
-16 6 0 10 -37 10 -90 0 -53 4 -90 10 -90 6 0 10 -30 10 -70 0 -40 4 -70 10
-70 6 0 10 -37 10 -90 0 -53 4 -90 10 -90 6 0 10 -37 10 -90 0 -53 4 -90 10
-90 6 0 10 -73 10 -200 0 -127 4 -200 10 -200 6 0 10 -43 10 -110 0 -67 4
-110 10 -110 6 0 10 -30 10 -70 0 -40 -4 -70 -10 -70 -5 0 -10 18 -10 40 0 22
-4 40 -10 40 -5 0 -10 14 -10 30 0 17 -4 30 -10 30 -5 0 -10 18 -10 40 0 22
-4 40 -10 40 -5 0 -10 7 -10 16 0 20 -24 44 -44 44 -9 0 -16 5 -16 10 0 6 -13
10 -30 10 -16 0 -30 5 -30 10 0 6 -12 10 -26 10 -29 0 -54 21 -54 44 0 9 -4
16 -10 16 -5 0 -10 18 -10 40 0 22 -4 40 -10 40 -6 0 -10 30 -10 70 0 40 4 70
10 70 6 0 10 14 10 30 0 17 5 30 10 30 6 0 10 14 10 30 0 17 5 30 10 30 6 0
10 9 10 20 0 11 -4 20 -10 20 -5 0 -10 23 -10 50 0 28 -4 50 -10 50 -6 0 -10
27 -10 60 0 33 4 60 10 60 6 0 10 18 10 40 0 22 5 40 10 40 6 0 10 27 10 60 0
33 4 60 10 60 6 0 10 30 10 70 0 40 4 70 10 70 6 0 10 40 10 100 0 60 4 100
10 100 6 0 10 -4 10 -10z m-820 -120 c0 -5 14 -10 30 -10 27 0 30 -3 30 -30 0
-16 -4 -30 -10 -30 -5 0 -10 -7 -10 -16 0 -8 -6 -22 -14 -30 -17 -16 -66 -19
-66 -4 0 6 -30 10 -70 10 -38 0 -70 3 -70 6 0 3 14 19 30 34 17 15 30 33 30
39 0 26 26 40 73 41 26 0 47 -4 47 -10z m2400 -70 c0 -22 -4 -40 -10 -40 -6 0
-10 -43 -10 -110 0 -67 -4 -110 -10 -110 -5 0 -10 -9 -10 -20 0 -11 -4 -20
-10 -20 -5 0 -10 -7 -10 -16 0 -8 -18 -33 -40 -54 -22 -21 -40 -43 -40 -50 0
-11 -44 -60 -55 -60 -3 0 -5 9 -5 20 0 13 7 20 20 20 11 0 20 5 20 10 0 6 -4
10 -10 10 -5 0 -10 21 -10 46 0 38 5 51 30 74 26 24 30 35 30 80 0 52 -15 80
-43 80 -9 0 -17 -6 -20 -12 -2 -8 -8 -9 -13 -4 -5 5 -4 11 4 13 6 3 12 11 12
20 0 8 18 32 40 53 22 21 40 44 40 50 0 20 27 40 54 40 14 0 26 5 26 10 0 6 5
10 10 10 6 0 10 -18 10 -40z m-2720 -230 c0 -5 14 -10 30 -10 17 0 30 -4 30
-10 0 -5 9 -10 20 -10 11 0 20 -4 20 -10 0 -5 9 -10 20 -10 11 0 20 -4 20 -10
0 -5 14 -10 30 -10 17 0 30 -4 30 -10 0 -5 18 -10 40 -10 22 0 40 -4 40 -10 0
-5 14 -10 30 -10 33 0 40 -21 16 -46 -17 -16 -46 -19 -46 -4 0 6 -27 10 -60
10 -33 0 -60 4 -60 10 0 6 -18 10 -40 10 -22 0 -40 5 -40 10 0 6 -13 10 -30
10 -16 0 -30 5 -30 10 0 6 -9 10 -20 10 -11 0 -20 5 -20 10 0 6 -7 10 -16 10
-18 0 -44 23 -44 40 0 20 25 39 53 40 15 0 27 -4 27 -10z m-280 -160 c0 -5 9
-10 20 -10 11 0 20 -4 20 -10 0 -5 9 -10 20 -10 11 0 20 -4 20 -10 0 -5 9 -10
20 -10 11 0 20 -4 20 -10 0 -5 9 -10 20 -10 11 0 20 -4 20 -10 0 -5 9 -10 20
-10 11 0 20 -4 20 -10 0 -5 14 -10 30 -10 17 0 30 -4 30 -10 0 -5 23 -10 50
-10 28 0 50 -4 50 -10 0 -5 18 -10 40 -10 22 0 40 -3 40 -6 0 -11 -29 -34 -44
-34 -9 0 -16 -4 -16 -10 0 -5 -9 -10 -20 -10 -11 0 -20 -4 -20 -10 0 -5 -13
-10 -30 -10 -16 0 -30 -4 -30 -10 0 -5 -9 -10 -20 -10 -11 0 -20 -4 -20 -10 0
-5 -12 -10 -26 -10 -35 0 -54 -22 -54 -64 0 -20 -4 -36 -10 -36 -5 0 -10 -22
-10 -50 0 -27 -4 -50 -10 -50 -5 0 -10 -12 -10 -26 0 -16 -12 -37 -30 -54 -16
-15 -30 -33 -30 -39 0 -7 -16 -27 -35 -46 -32 -33 -38 -35 -100 -35 -37 0 -65
-4 -65 -10 0 -5 -18 -10 -40 -10 -22 0 -40 5 -40 10 0 6 -13 10 -30 10 -16 0
-30 5 -30 10 0 6 -12 10 -26 10 -52 0 -73 57 -33 91 19 16 20 20 6 34 -12 12
-40 15 -131 15 -64 0 -116 2 -116 5 0 11 49 55 60 55 6 0 33 23 60 50 27 28
54 50 60 50 6 0 87 77 180 170 93 94 176 170 185 170 8 0 15 5 15 10 0 6 5 10
10 10 6 0 10 -4 10 -10z m1280 -130 c0 -22 5 -40 10 -40 6 0 10 -9 10 -20 0
-11 -4 -20 -10 -20 -5 0 -10 -13 -10 -30 0 -16 -4 -30 -10 -30 -5 0 -10 -13
-10 -30 0 -16 -4 -30 -10 -30 -5 0 -10 -13 -10 -29 0 -16 -6 -32 -12 -35 -10
-5 -10 -7 0 -12 6 -3 12 -19 12 -35 0 -16 5 -29 10 -29 6 0 10 -18 10 -40 0
-22 5 -40 10 -40 6 0 10 -11 10 -25 0 -29 40 -75 65 -75 8 0 15 -4 15 -10 0
-5 14 -10 30 -10 17 0 30 -4 30 -10 0 -5 12 -10 26 -10 14 0 32 -6 40 -14 8
-8 14 -26 14 -40 0 -14 5 -26 10 -26 6 0 10 -18 10 -40 0 -22 5 -40 10 -40 6
0 10 -18 10 -40 0 -22 -4 -40 -10 -40 -5 0 -10 -13 -10 -30 0 -16 -4 -30 -10
-30 -5 0 -10 -13 -10 -30 0 -16 -4 -30 -10 -30 -5 0 -10 -7 -10 -16 0 -18 -24
-44 -40 -44 -7 0 -25 -13 -40 -30 -15 -16 -33 -30 -39 -30 -17 0 -81 -67 -81
-85 0 -8 -4 -15 -10 -15 -5 0 -10 -13 -10 -30 0 -16 -4 -30 -10 -30 -5 0 -10
-13 -10 -30 0 -16 -4 -30 -10 -30 -17 0 -13 -189 4 -206 17 -16 46 -19 46 -4
0 6 5 10 10 10 6 0 10 -9 10 -20 0 -11 -4 -20 -10 -20 -5 0 -10 -9 -10 -20 0
-13 -7 -20 -20 -20 -11 0 -20 5 -20 10 0 6 -7 10 -16 10 -31 0 -44 27 -44 94
0 37 -4 66 -10 66 -5 0 -10 9 -10 20 0 11 5 20 10 20 6 0 10 47 10 120 0 73 4
120 10 120 6 0 10 23 10 50 0 28 5 50 10 50 6 0 10 9 10 20 0 11 5 20 10 20 6
0 10 8 10 18 0 10 9 24 20 32 21 15 28 70 10 70 -5 0 -10 9 -10 20 0 11 -4 20
-10 20 -5 0 -10 8 -10 18 0 10 -9 24 -20 32 -11 8 -20 22 -20 32 0 10 -4 18
-10 18 -5 0 -10 9 -10 20 0 11 -4 20 -10 20 -5 0 -10 9 -10 20 0 11 -4 20 -10
20 -5 0 -10 14 -10 30 0 17 -4 30 -10 30 -6 0 -10 47 -10 120 0 73 4 120 10
120 6 0 10 14 10 30 0 17 5 30 10 30 6 0 10 9 10 20 0 11 5 20 10 20 6 0 10 9
10 20 0 11 5 20 10 20 6 0 10 14 10 30 0 17 5 30 10 30 6 0 10 13 10 28 0 16
8 34 20 42 12 8 20 26 20 42 0 15 5 28 10 28 6 0 10 -18 10 -40z m1380 -150
c0 -5 7 -10 16 -10 28 0 44 -27 44 -74 0 -25 -4 -46 -10 -46 -5 0 -10 -13 -10
-30 0 -16 -4 -30 -10 -30 -5 0 -10 -13 -10 -30 0 -16 -4 -30 -10 -30 -5 0 -10
-13 -10 -30 0 -16 -4 -30 -10 -30 -5 0 -10 -13 -10 -30 0 -16 -4 -30 -10 -30
-5 0 -10 -9 -10 -20 0 -11 -4 -20 -10 -20 -5 0 -10 -7 -10 -16 0 -9 -13 -29
-30 -44 -16 -15 -30 -35 -30 -44 0 -9 -4 -16 -10 -16 -5 0 -10 -9 -10 -20 0
-24 -6 -25 -26 -6 -17 17 -21 226 -4 226 6 0 10 9 10 20 0 11 5 20 10 20 6 0
10 9 10 20 0 11 5 20 10 20 6 0 10 14 10 30 0 17 5 30 10 30 6 0 10 9 10 20 0
11 5 20 10 20 6 0 10 14 10 30 0 17 5 30 10 30 6 0 10 14 10 30 0 17 5 30 10
30 6 0 10 9 10 20 0 13 7 20 20 20 11 0 20 -4 20 -10z m-3140 -298 c0 -4 -9
-14 -20 -22 -11 -8 -20 -22 -20 -32 0 -10 -4 -18 -10 -18 -5 0 -10 -7 -10 -15
0 -19 -64 -85 -82 -85 -8 0 -20 -9 -28 -20 -8 -11 -21 -20 -30 -20 -9 0 -22
-9 -30 -20 -8 -11 -22 -20 -32 -20 -10 0 -18 -4 -18 -10 0 -5 -13 -10 -30 -10
-16 0 -30 -4 -30 -10 0 -5 -4 -10 -10 -10 -5 0 -10 9 -10 20 0 11 -4 20 -10
20 -5 0 -10 8 -10 18 0 10 -9 24 -20 32 -36 26 -15 70 34 70 14 0 26 5 26 10
0 6 8 10 18 10 10 0 24 9 32 20 8 11 26 20 40 20 16 1 37 15 60 40 35 39 35
39 113 40 42 0 77 -4 77 -8z m-514 -186 c8 -8 14 -22 14 -30 0 -9 5 -16 10
-16 6 0 10 -8 10 -18 0 -10 9 -24 20 -32 25 -18 26 -50 2 -50 -10 0 -24 -9
-32 -20 -8 -11 -20 -20 -28 -20 -7 0 -35 -22 -62 -50 -27 -27 -54 -50 -60 -50
-15 0 -40 -25 -40 -40 0 -6 -36 -46 -80 -90 -44 -44 -80 -85 -80 -92 0 -8 -9
-20 -20 -28 -11 -8 -20 -20 -20 -27 0 -8 -25 -38 -55 -68 -30 -30 -60 -55 -68
-55 -7 0 -19 -9 -27 -20 -8 -11 -22 -20 -31 -20 -10 0 -20 -6 -23 -12 -5 -10
-7 -10 -12 0 -3 7 -25 12 -55 12 -27 0 -49 5 -49 10 0 6 -7 10 -16 10 -33 0
-44 26 -44 109 l0 81 75 75 c64 64 80 75 109 75 19 0 36 6 39 13 2 6 8 9 12 5
5 -5 -2 -16 -13 -27 -22 -18 -31 -71 -12 -71 6 0 10 -13 10 -29 0 -16 6 -31
12 -33 8 -3 -9 -26 -40 -56 -47 -46 -52 -54 -38 -67 8 -8 19 -15 26 -15 17 0
125 113 112 118 -7 2 -12 21 -12 43 0 21 -4 39 -10 39 -5 0 -10 9 -10 20 0 11
5 20 10 20 6 0 10 7 10 15 0 9 20 36 45 60 24 25 51 45 60 45 8 0 15 5 15 10
0 6 9 10 20 10 13 0 20 7 20 18 0 10 9 24 20 32 11 8 20 20 20 28 0 15 65 82
80 82 6 0 33 23 60 50 27 28 56 50 64 50 9 0 16 5 16 10 0 15 29 12 46 -4z
m-246 -36 c0 -5 -4 -10 -10 -10 -5 0 -10 -9 -10 -20 0 -11 -4 -20 -10 -20 -5
0 -10 -7 -10 -15 0 -8 -34 -49 -75 -90 -41 -41 -81 -75 -90 -75 -8 0 -15 -4
-15 -10 0 -5 -9 -10 -20 -10 -13 0 -20 7 -20 20 0 11 5 20 10 20 6 0 10 8 10
18 0 10 9 24 20 32 11 8 20 21 20 29 0 7 10 23 23 34 15 13 18 21 10 24 -20 7
-15 23 7 23 11 0 20 5 20 10 0 6 9 10 20 10 11 0 20 5 20 10 0 6 14 10 30 10
17 0 30 5 30 10 0 6 9 10 20 10 11 0 20 -4 20 -10z m-2440 -5760 c0 -5 9 -10
20 -10 11 0 20 -4 20 -10 0 -5 9 -10 20 -10 11 0 20 -4 20 -10 0 -5 7 -10 16
-10 20 0 44 -24 44 -44 0 -9 5 -16 10 -16 6 0 10 -9 10 -20 0 -11 5 -20 10
-20 6 0 10 -4 10 -10 0 -5 -9 -10 -19 -10 -11 0 -22 -6 -25 -12 -5 -10 -7 -10
-12 0 -3 6 -12 12 -20 12 -19 0 -104 85 -104 105 0 8 -4 15 -10 15 -5 0 -10
14 -10 30 0 17 5 30 10 30 6 0 10 -4 10 -10z m7640 -1670 c0 -22 -4 -40 -10
-40 -5 0 -10 -13 -10 -30 0 -16 -4 -30 -10 -30 -5 0 -10 -18 -10 -40 0 -22 -4
-40 -10 -40 -5 0 -10 -13 -10 -30 0 -16 -4 -30 -10 -30 -5 0 -10 -13 -10 -30
0 -16 -4 -30 -10 -30 -5 0 -10 -13 -10 -28 0 -16 -8 -34 -20 -42 -11 -8 -20
-21 -20 -28 0 -8 -13 -27 -30 -42 -16 -15 -30 -35 -30 -44 0 -9 -4 -16 -10
-16 -5 0 -10 9 -10 20 0 11 5 20 10 20 6 0 10 18 10 40 0 22 5 40 10 40 6 0
10 18 10 40 0 22 5 40 10 40 6 0 10 14 10 30 0 17 5 30 10 30 6 0 10 14 10 30
0 17 5 30 10 30 6 0 10 14 10 30 0 17 5 30 10 30 6 0 10 14 10 30 0 17 5 30
10 30 6 0 10 8 10 18 0 10 9 24 20 32 11 8 20 22 20 32 0 11 7 18 20 18 17 0
20 -7 20 -40z"/>
</g>
</svg>
